<svg width="641" height="641" viewBox="0 0 641 641" fill="none" xmlns="http://www.w3.org/2000/svg">
<path d="M187.621 176.595C190.007 180.253 191.857 184.172 193.164 188.235L204.944 190.267L205.972 210.017L194.468 213.262C193.589 217.44 192.157 221.53 190.163 225.418L197.056 235.181L183.814 249.873L173.389 244.035C169.73 246.423 165.809 248.271 161.746 249.578L159.714 261.359L139.965 262.388L136.719 250.882C132.542 250.004 128.452 248.571 124.564 246.576L114.803 253.468L100.106 240.229L105.948 229.803C103.559 226.145 101.711 222.225 100.404 218.161L88.6223 216.129L87.5932 196.377L99.1013 193.134C99.9795 188.958 101.413 184.868 103.405 180.979L96.5155 171.217L109.754 156.522L120.18 162.362C123.837 159.974 127.76 158.125 131.822 156.819L133.853 145.037L153.604 144.009L156.849 155.515C161.025 156.393 165.115 157.826 169.004 159.821L178.766 152.929L193.459 166.168L187.621 176.595ZM161.653 188.037C152.949 180.194 139.532 180.891 131.687 189.598C123.844 198.302 124.544 211.719 133.248 219.563C141.955 227.408 155.371 226.709 163.214 218.003C171.058 209.296 170.36 195.882 161.653 188.037Z" fill="#FBA425"/>
<path d="M190.524 85.7029C192.458 87.1545 194.162 88.8445 195.613 90.7092L202.126 89.5361L206.4 99.6171L201.03 103.484C201.364 105.823 201.393 108.222 201.091 110.622L206.526 114.397L202.419 124.548L195.889 123.485C194.438 125.42 192.749 127.124 190.882 128.574L192.056 135.088L181.977 139.362L178.108 133.991C175.769 134.325 173.37 134.352 170.97 134.052L167.196 139.487L157.043 135.38L158.108 128.85C156.173 127.4 154.469 125.71 153.02 123.844L146.505 125.017L142.23 114.936L147.603 111.069C147.269 108.731 147.24 106.332 147.541 103.931L142.107 100.157L146.212 90.0054L152.742 91.0696C154.194 89.1344 155.885 87.429 157.751 85.9804L156.575 79.4666L166.655 75.1912L170.523 80.5637C172.862 80.2294 175.262 80.2007 177.662 80.5013L181.435 75.0675L191.587 79.1732L190.524 85.7029ZM179.182 96.5731C173.169 94.1408 166.319 97.0448 163.887 103.06C161.454 109.075 164.358 115.921 170.373 118.353C176.388 120.785 183.235 117.882 185.667 111.867C188.099 105.852 185.197 99.0065 179.182 96.5731Z" fill="#263238"/>
<path d="M492.605 335.174C492.605 341.857 487.184 347.275 480.502 347.275C473.819 347.275 468.4 341.857 468.4 335.174C468.4 328.491 473.819 323.073 480.502 323.073C487.184 323.073 492.605 328.491 492.605 335.174Z" fill="#263238"/>
<path d="M457.461 335.174C457.461 342.293 451.69 348.064 444.571 348.064C437.452 348.064 431.68 342.293 431.68 335.174C431.68 328.055 437.452 322.283 444.571 322.283C451.69 322.283 457.461 328.055 457.461 335.174Z" fill="#263238"/>
<path d="M430.635 312.368C430.635 319.926 424.509 326.051 416.951 326.051C409.395 326.051 403.267 319.926 403.267 312.368C403.267 304.811 409.395 298.686 416.951 298.686C424.509 298.686 430.635 304.811 430.635 312.368Z" fill="#263238"/>
<path d="M425.637 277.303C425.637 285.196 419.237 291.595 411.345 291.595C403.452 291.595 397.053 285.196 397.053 277.303C397.053 269.411 403.452 263.014 411.345 263.014C419.237 263.014 425.637 269.411 425.637 277.303Z" fill="#263238"/>
<path d="M443.616 246.608C443.616 254.766 437.004 261.378 428.847 261.378C420.689 261.378 414.077 254.766 414.077 246.608C414.077 238.451 420.689 231.838 428.847 231.838C437.004 231.838 443.616 238.451 443.616 246.608Z" fill="#263238"/>
<path d="M478.579 234.479C478.579 243.37 471.373 250.576 462.483 250.576C453.593 250.576 446.386 243.37 446.386 234.479C446.386 225.59 453.593 218.382 462.483 218.382C471.373 218.382 478.579 225.59 478.579 234.479Z" fill="#263238"/>
<path d="M518.888 312.085C518.888 318.54 513.655 323.773 507.2 323.773C500.745 323.773 495.512 318.54 495.512 312.085C495.512 305.63 500.745 300.397 507.2 300.397C513.655 300.397 518.888 305.63 518.888 312.085Z" fill="#263238"/>
<path d="M524.303 276.912C524.303 282.903 519.447 287.76 513.455 287.76C507.464 287.76 502.606 282.903 502.606 276.912C502.606 270.921 507.464 266.064 513.455 266.064C519.447 266.064 524.303 270.921 524.303 276.912Z" fill="#263238"/>
<path d="M505.323 246.203C505.323 251.676 500.887 256.113 495.415 256.113C489.94 256.113 485.503 251.676 485.503 246.203C485.503 240.729 489.94 236.293 495.415 236.293C500.887 236.293 505.323 240.729 505.323 246.203Z" fill="#263238"/>
<path d="M418.652 53.4274L380.96 53.253C375.905 53.2312 371.788 57.4965 371.768 62.7796L371.736 69.6177C371.717 74.9022 367.599 79.1674 362.544 79.1443L289.074 78.802C284.019 78.7802 279.94 74.4778 279.962 69.1934L279.991 62.3565C280.013 57.0721 275.933 52.7697 270.878 52.7466L257.622 52.6838L224.632 52.5325C208.248 52.4582 194.906 65.6807 194.837 82.0647L192.827 557.788C192.756 574.164 205.973 587.497 222.348 587.573L416.368 588.469C432.751 588.544 446.091 575.321 446.162 558.935L448.173 83.2121C448.241 66.8371 435.026 53.5043 418.652 53.4274Z" fill="white"/>
<path d="M418.652 53.4286C418.652 53.4286 418.993 53.4363 419.668 53.4671C420.337 53.535 421.357 53.4619 422.671 53.7171C425.298 54.0401 429.292 54.9119 433.775 57.6105C436.04 58.9002 438.338 60.7527 440.512 63.1205C442.677 65.4909 444.687 68.4511 446.118 71.992C447.569 75.5226 448.344 79.6404 448.285 84.0338C448.272 88.4131 448.256 93.0757 448.241 98.014C448.099 137.533 447.894 194.708 447.638 265.356C447.362 336.007 447.029 420.132 446.662 513.541C446.614 525.217 446.565 537.039 446.517 548.997C446.506 551.987 446.494 554.984 446.481 557.99C446.436 561.001 446.23 564.089 445.312 567.012C444.446 569.936 443.225 572.785 441.499 575.335C439.781 577.881 437.695 580.182 435.309 582.146C430.484 585.987 424.448 588.424 418.201 588.707C416.637 588.81 415.092 588.789 413.546 588.779L408.898 588.757C405.795 588.743 402.684 588.73 399.565 588.715C387.092 588.659 374.498 588.602 361.791 588.544C336.379 588.429 310.518 588.312 284.273 588.192C271.149 588.132 257.931 588.07 244.624 588.009C237.971 587.979 231.296 587.948 224.6 587.919C217.884 588.233 210.944 586.437 205.353 582.522C199.738 578.636 195.606 572.773 193.693 566.281C192.664 563.044 192.486 559.598 192.499 556.266C192.514 552.928 192.528 549.593 192.541 546.267C192.599 532.956 192.655 519.732 192.71 506.605C192.823 480.353 192.935 454.484 193.044 429.066C193.265 378.228 193.478 329.192 193.683 282.481C193.891 235.769 194.09 191.381 194.274 149.839C194.368 129.068 194.46 109.008 194.547 89.7259C194.559 87.317 194.569 84.9184 194.581 82.5326C194.601 81.3377 194.692 80.1339 194.761 78.9417C194.974 77.7648 195.07 76.5674 195.381 75.4175C196.482 70.7869 198.643 66.4588 201.655 62.9C204.689 59.3617 208.489 56.5631 212.665 54.7388C216.839 52.8748 221.414 52.2299 225.835 52.3017C234.666 52.3466 243.286 52.3902 251.689 52.4325C255.89 52.4543 260.036 52.4748 264.127 52.4966C266.171 52.5068 268.203 52.5171 270.22 52.5273C272.254 52.4363 274.358 52.9991 276.021 54.1722C277.684 55.3452 278.959 57.031 279.611 58.9258C280.359 60.8219 280.172 62.8667 280.187 64.7679C280.182 65.7332 280.177 66.696 280.173 67.6549C280.172 68.6164 280.134 69.5703 280.254 70.4894C280.485 72.3355 281.258 74.106 282.462 75.4893C283.642 76.8918 285.263 77.8981 287.009 78.3366C287.888 78.5609 288.77 78.6263 289.692 78.6122C290.606 78.6161 291.519 78.6212 292.425 78.6263C296.053 78.6455 299.623 78.6648 303.13 78.6827C317.162 78.7571 330.22 78.8276 342.24 78.8904C348.249 78.9237 353.999 78.9545 359.483 78.9853C360.844 78.966 362.224 79.0583 363.525 78.9494C364.835 78.8045 366.087 78.3584 367.176 77.6802C369.367 76.329 370.859 74.0778 371.371 71.6997C371.648 70.5087 371.606 69.2946 371.618 68.0921C371.624 66.8922 371.63 65.7102 371.638 64.5448C371.657 63.3859 371.59 62.2231 371.806 61.0911C372.003 59.9655 372.389 58.8925 372.931 57.9271C374.006 55.9849 375.743 54.5209 377.669 53.7722C379.614 52.9363 381.68 53.1991 383.551 53.1671C391.155 53.2145 397.588 53.2555 402.79 53.2889C407.987 53.326 411.95 53.3555 414.621 53.376C417.287 53.3991 418.652 53.4286 418.652 53.4286C418.652 53.4286 417.287 53.4453 414.621 53.444C411.95 53.4389 407.987 53.4324 402.79 53.4235C397.588 53.4068 391.154 53.3889 383.551 53.3658C381.662 53.4017 379.633 53.1504 377.748 53.9709C375.87 54.708 374.177 56.14 373.132 58.0399C372.606 58.9835 372.23 60.0322 372.04 61.1309C371.831 62.2282 371.897 63.3782 371.881 64.5448C371.877 65.7114 371.875 66.8934 371.87 68.0934C371.861 69.2844 371.907 70.5279 371.624 71.7548C371.104 74.1983 369.577 76.5161 367.321 77.9148C366.199 78.6148 364.907 79.0789 363.556 79.2288C362.191 79.3442 360.857 79.2532 359.48 79.2737C353.997 79.2532 348.248 79.2314 342.239 79.2083C330.219 79.1622 317.16 79.1109 303.129 79.0558C299.621 79.0417 296.052 79.0276 292.424 79.0135C291.517 79.0096 290.606 79.0058 289.691 79.0019C288.785 79.0173 287.82 78.9507 286.913 78.7186C285.086 78.261 283.391 77.211 282.159 75.7495C280.902 74.3085 280.094 72.4637 279.852 70.5407C279.725 69.5703 279.764 68.6062 279.764 67.6524C279.768 66.6947 279.77 65.7319 279.773 64.7666C279.757 62.8333 279.936 60.8719 279.217 59.0643C278.591 57.249 277.366 55.6401 275.779 54.5209C274.175 53.403 272.219 52.8697 270.219 52.9581C268.201 52.9504 266.17 52.9427 264.124 52.9337C260.033 52.9171 255.888 52.8991 251.686 52.8812C243.285 52.8466 234.664 52.8107 225.833 52.7735C221.442 52.7081 216.969 53.3453 212.857 55.1824C208.751 56.981 205.015 59.7373 202.033 63.2192C199.073 66.7217 196.952 70.9792 195.873 75.5316C195.568 76.6623 195.477 77.8405 195.265 78.9968C195.2 80.1724 195.111 81.3442 195.091 82.5351C195.081 84.9197 195.072 87.3183 195.063 89.7284C194.987 109.011 194.909 129.07 194.828 149.841C194.661 191.383 194.484 235.771 194.297 282.484C194.106 329.196 193.905 378.23 193.697 429.067C193.592 454.486 193.485 480.356 193.374 506.609C193.319 519.736 193.264 532.959 193.208 546.27C193.195 549.597 193.181 552.93 193.167 556.269C193.155 559.594 193.327 562.916 194.334 566.095C196.205 572.443 200.245 578.173 205.735 581.974C211.226 585.801 217.934 587.559 224.603 587.251C231.298 587.283 237.974 587.312 244.627 587.344C257.935 587.406 271.153 587.466 284.276 587.528C310.522 587.651 336.383 587.773 361.794 587.891C374.502 587.951 387.096 588.01 399.569 588.069C402.686 588.084 405.798 588.098 408.902 588.112L413.55 588.135C415.099 588.147 416.647 588.166 418.165 588.065C424.28 587.792 430.184 585.406 434.909 581.648C437.244 579.726 439.288 577.476 440.969 574.983C442.66 572.489 443.855 569.699 444.701 566.839C445.603 563.968 445.803 560.975 445.85 557.988C445.863 554.983 445.876 551.984 445.889 548.995C445.941 537.036 445.995 525.215 446.046 513.538C446.468 420.129 446.846 336.006 447.165 265.353C447.509 194.706 447.788 137.532 447.981 98.0127C448.006 93.0744 448.032 88.4118 448.055 84.0325C448.124 79.6609 447.365 75.5803 445.933 72.0676C444.522 68.5459 442.535 65.5973 440.389 63.2321C438.235 60.8719 435.953 59.0181 433.704 57.7259C429.253 55.0208 425.28 54.1286 422.663 53.7837C421.352 53.5183 420.334 53.5812 419.667 53.5017C418.993 53.4581 418.652 53.4286 418.652 53.4286Z" fill="#253138"/>
<path d="M294.564 262.967C293.409 260.387 292.624 257.694 292.198 254.964L284.873 252.473L286.215 239.741L293.901 238.832C294.885 236.251 296.214 233.781 297.883 231.498L294.464 224.558L304.418 216.505L310.492 221.293C313.071 220.137 315.766 219.352 318.497 218.93L320.987 211.602L333.718 212.944L334.63 220.629C337.21 221.614 339.679 222.944 341.964 224.613L348.902 221.195L356.956 231.148L352.167 237.222C353.323 239.801 354.108 242.496 354.531 245.224L361.859 247.718L360.515 260.449L352.831 261.357C351.846 263.938 350.516 266.407 348.849 268.692L352.264 275.63L342.313 283.685L336.239 278.896C333.659 280.052 330.965 280.837 328.235 281.261L325.743 288.587L313.012 287.246L312.103 279.559C309.522 278.576 307.051 277.245 304.767 275.576L297.827 278.994L289.776 269.043L294.564 262.967ZM312.323 258.282C317.094 264.176 325.743 265.091 331.64 260.319C337.536 255.547 338.446 246.899 333.676 241.003C328.904 235.107 320.256 234.195 314.361 238.967C308.464 243.739 307.551 252.385 312.323 258.282Z" fill="#FF8100"/>
<path d="M331.139 238.76C324.709 234.739 316.235 236.69 312.213 243.122C308.192 249.554 310.147 258.027 316.576 262.048C323.008 266.07 331.482 264.116 335.502 257.686C339.524 251.254 337.571 242.781 331.139 238.76Z" fill="white"/>
<path d="M281.643 377.923V369.704H283.159V377.862C283.159 381.264 284.757 382.821 287.544 382.821C290.351 382.821 291.951 381.264 291.951 377.862V369.704H293.427V377.923C293.427 382.044 291.213 384.176 287.544 384.176C283.876 384.176 281.643 382.044 281.643 377.923Z" fill="#253138"/>
<path d="M309.222 374.625C309.222 377.678 307.008 379.522 303.36 379.522H299.506V384.053H297.989V369.704H303.36C307.008 369.704 309.222 371.549 309.222 374.625ZM307.706 374.625C307.706 372.327 306.188 371.017 303.319 371.017H299.506V378.19H303.319C306.188 378.19 307.706 376.88 307.706 374.625Z" fill="#253138"/>
<path d="M312.494 369.704H318.334C322.927 369.704 326.024 372.657 326.024 376.88C326.024 381.1 322.927 384.051 318.334 384.051H312.494V369.704ZM318.255 382.741C322.068 382.741 324.527 380.321 324.527 376.88C324.527 373.435 322.068 371.016 318.255 371.016H314.013V382.741H318.255Z" fill="#253138"/>
<path d="M338.208 380.221H330.215L328.493 384.051H326.917L333.475 369.704H334.97L341.529 384.051H339.93L338.208 380.221ZM337.656 378.989L334.212 371.283L330.769 378.989H337.656Z" fill="#253138"/>
<path d="M345.971 371.016H340.927V369.704H352.529V371.016H347.487V384.053H345.971V371.016Z" fill="#253138"/>
<path d="M365.087 382.741V384.051H354.941V369.704H364.78V371.016H356.46V376.122H363.879V377.412H356.46V382.741H365.087Z" fill="#253138"/>
<path d="M429.897 99.5831C429.898 99.7178 424.702 99.8716 418.292 99.9254C411.881 99.978 406.685 99.9113 406.685 99.7754C406.684 99.6408 411.877 99.487 418.288 99.4344C424.697 99.3806 429.896 99.4473 429.897 99.5831Z" fill="#253138"/>
<path d="M429.947 105.523C429.948 105.657 424.752 105.811 418.343 105.865C411.932 105.918 406.736 105.851 406.735 105.715C406.734 105.58 411.927 105.427 418.338 105.374C424.748 105.32 429.945 105.388 429.947 105.523Z" fill="#253138"/>
<path d="M429.996 111.462C429.997 111.597 424.801 111.751 418.392 111.803C411.981 111.856 406.785 111.789 406.784 111.655C406.782 111.519 411.976 111.366 418.387 111.314C424.797 111.261 429.994 111.328 429.996 111.462Z" fill="#253138"/>
<path d="M218.771 118.241C218.78 118.232 218.945 118.222 219.253 118.209C219.633 118.196 220.074 118.182 220.596 118.164C221.863 118.135 223.519 118.095 225.552 118.047L225.415 118.186C225.397 117.088 225.378 115.888 225.356 114.592C225.364 113.924 225.3 113.294 225.365 112.524C225.499 111.753 226.184 111.074 227.028 110.996C227.827 110.979 228.529 110.943 229.396 110.983C230.288 111.092 231.048 111.952 231.021 112.898C231.039 114.574 231.059 116.323 231.079 118.139L230.85 117.913C232.857 117.893 234.947 117.871 237.102 117.849L236.865 118.091C236.843 115.574 236.82 112.969 236.796 110.301C236.79 109.635 236.784 108.974 236.779 108.316C236.776 107.705 236.403 107.296 235.899 106.839C234.975 105.928 234.061 105.029 233.165 104.146C232.27 103.262 231.392 102.395 230.529 101.543C230.098 101.119 229.673 100.697 229.252 100.281C228.813 99.8575 228.468 99.4203 227.959 99.3165C227.465 99.1832 226.92 99.2883 226.523 99.5895C226.143 99.91 225.742 100.363 225.36 100.734C224.591 101.511 223.841 102.266 223.117 102.997C221.705 104.464 220.236 105.802 219.168 107.069C218.717 107.767 218.886 108.623 218.853 109.402C218.851 110.176 218.849 110.911 218.848 111.604C218.839 112.956 218.832 114.139 218.826 115.153C218.817 116.061 218.808 116.809 218.8 117.422C218.792 117.948 218.782 118.229 218.771 118.241C218.759 118.253 218.744 117.995 218.726 117.49C218.709 116.885 218.69 116.148 218.664 115.254C218.642 114.233 218.613 113.039 218.582 111.678C218.571 110.971 218.555 110.221 218.541 109.431C218.535 109.031 218.531 108.621 218.525 108.202C218.521 107.758 218.635 107.299 218.869 106.893C220.026 105.475 221.406 104.221 222.828 102.713C223.547 101.975 224.288 101.215 225.052 100.432C225.454 100.038 225.783 99.6472 226.26 99.237C226.76 98.8524 227.447 98.7152 228.073 98.8793C228.738 99.0268 229.17 99.5716 229.573 99.9536C229.996 100.368 230.425 100.787 230.857 101.21C231.723 102.057 232.603 102.923 233.502 103.803C234.4 104.685 235.314 105.582 236.24 106.492C236.46 106.725 236.725 106.921 236.939 107.248C237.142 107.56 237.257 107.929 237.267 108.303C237.274 108.964 237.279 109.628 237.284 110.297C237.305 112.965 237.324 115.57 237.343 118.088L237.346 118.327L237.107 118.33C234.952 118.343 232.862 118.357 230.855 118.37L230.625 118.371L230.623 118.143C230.614 116.327 230.604 114.577 230.596 112.901C230.621 112.145 230.036 111.479 229.333 111.383C228.614 111.345 227.765 111.37 227.064 111.376C226.392 111.431 225.832 111.971 225.717 112.592C225.656 113.22 225.704 113.953 225.691 114.589C225.691 115.885 225.69 117.085 225.691 118.184V118.325L225.555 118.323C223.487 118.309 221.803 118.296 220.515 118.289C220.005 118.28 219.573 118.272 219.201 118.266C218.908 118.258 218.762 118.25 218.771 118.241Z" fill="#253138"/>
<path d="M372.418 113.172C372.418 113.357 352.883 113.507 328.792 113.507C304.69 113.507 285.158 113.357 285.158 113.172C285.158 112.988 304.69 112.84 328.792 112.84C352.883 112.84 372.418 112.988 372.418 113.172Z" fill="#253138"/>
<path d="M370.155 518.351H278.548C266.847 518.351 257.364 508.867 257.364 497.167C257.364 485.466 266.847 475.981 278.548 475.981H370.155C381.855 475.981 391.338 485.466 391.338 497.167C391.338 508.867 381.855 518.351 370.155 518.351Z" fill="white"/>
<path d="M306.872 500.266L307.637 498.57C308.458 499.168 309.681 499.585 310.85 499.585C312.186 499.585 312.727 499.14 312.727 498.542C312.727 496.72 307.067 497.971 307.067 494.356C307.067 492.701 308.402 491.323 311.171 491.323C312.394 491.323 313.645 491.615 314.549 492.185L313.854 493.896C312.95 493.382 312.019 493.132 311.157 493.132C309.821 493.132 309.305 493.632 309.305 494.244C309.305 496.038 314.967 494.799 314.967 498.375C314.967 500.002 313.618 501.393 310.836 501.393C309.292 501.393 307.735 500.934 306.872 500.266Z" fill="white"/>
<path d="M321.18 500.865C320.734 501.185 320.081 501.338 319.413 501.338C317.646 501.338 316.617 500.434 316.617 498.653V495.58H315.462V493.91H316.617V492.088H318.786V493.91H320.651V495.58H318.786V498.626C318.786 499.266 319.134 499.612 319.717 499.612C320.037 499.612 320.357 499.516 320.594 499.335L321.18 500.865Z" fill="white"/>
<path d="M329.019 496.956V501.226H326.988V500.294C326.586 500.975 325.808 501.338 324.708 501.338C322.955 501.338 321.912 500.363 321.912 499.07C321.912 497.749 322.844 496.83 325.124 496.83H326.85C326.85 495.898 326.292 495.357 325.124 495.357C324.332 495.357 323.512 495.621 322.969 496.052L322.19 494.535C323.012 493.952 324.221 493.631 325.418 493.631C327.699 493.631 329.019 494.689 329.019 496.956ZM326.85 498.861V498.097H325.361C324.346 498.097 324.027 498.471 324.027 498.972C324.027 499.516 324.485 499.876 325.25 499.876C325.973 499.876 326.6 499.543 326.85 498.861Z" fill="white"/>
<path d="M335.621 493.631V495.634C335.44 495.621 335.301 495.607 335.134 495.607C333.938 495.607 333.144 496.261 333.144 497.693V501.226H330.975V493.743H333.047V494.73C333.575 494.007 334.467 493.631 335.621 493.631Z" fill="white"/>
<path d="M342.002 500.865C341.556 501.185 340.902 501.338 340.234 501.338C338.467 501.338 337.438 500.434 337.438 498.653V495.58H336.284V493.91H337.438V492.088H339.608V493.91H341.472V495.58H339.608V498.626C339.608 499.266 339.956 499.612 340.539 499.612C340.86 499.612 341.179 499.516 341.416 499.335L342.002 500.865Z" fill="white"/>
<path d="M411.411 417.837C411.411 418.022 372.024 418.172 323.451 418.172C274.861 418.172 235.484 418.022 235.484 417.837C235.484 417.653 274.861 417.505 323.451 417.505C372.024 417.505 411.411 417.653 411.411 417.837Z" fill="#253138"/>
<path d="M132.939 587.466L125.151 616.265L150.464 618.575L155.783 591.16L132.939 587.466Z" fill="#FF8100"/>
<path d="M125.15 616.265L150.463 618.575L150.872 616.462L125.882 613.287L125.177 615.978" fill="white"/>
<path d="M137.726 614.983C137.566 614.945 138.644 610.004 140.133 603.95C141.622 597.894 142.957 593.018 143.116 593.057C143.276 593.097 142.198 598.036 140.709 604.092C139.221 610.146 137.886 615.021 137.726 614.983Z" fill="#253138"/>
<path d="M149.8 616.042C149.645 616.034 150.606 613.975 149.858 610.688C149.472 609.086 148.629 607.222 147.086 605.677C145.567 604.123 143.289 603.039 140.787 602.784C138.281 602.543 135.839 603.146 134.007 604.323C132.153 605.486 130.879 607.072 130.066 608.512C128.456 611.465 128.611 613.684 128.467 613.649C128.447 613.647 128.435 613.516 128.431 613.265C128.419 613.014 128.439 612.646 128.489 612.169C128.596 611.222 128.915 609.85 129.694 608.313C130.488 606.798 131.779 605.11 133.713 603.862C135.629 602.594 138.209 601.936 140.848 602.191C143.481 602.459 145.887 603.622 147.476 605.292C149.086 606.948 149.918 608.92 150.266 610.599C150.6 612.295 150.484 613.71 150.275 614.641C150.166 615.107 150.066 615.464 149.965 615.695C149.875 615.929 149.819 616.048 149.8 616.042Z" fill="#253138"/>
<path d="M237.457 579.738L235.762 605.323C235.762 605.323 261.227 613.775 261.374 618.534L211.619 618.894L212.624 578.92L237.457 579.738Z" fill="#FF8100"/>
<path d="M220.451 602.703C219.481 602.937 218.783 604 218.977 604.978C219.17 605.958 220.245 606.677 221.219 606.46C222.193 606.244 223.07 604.994 222.768 604.042C222.465 603.091 221.159 602.316 220.264 602.76" fill="white"/>
<path d="M211.619 618.893L211.72 614.864L259.775 616.191C259.775 616.191 261.374 616.882 261.627 618.893H211.619Z" fill="white"/>
<path d="M236.575 605.096C236.56 605.337 235.343 605.412 234.124 606.156C232.887 606.869 232.238 607.901 232.017 607.799C231.796 607.745 232.201 606.304 233.692 605.43C235.175 604.54 236.634 604.874 236.575 605.096Z" fill="#253138"/>
<path d="M241.727 607.411C241.776 607.649 240.71 608.028 239.855 609.032C238.969 610.008 238.727 611.113 238.486 611.095C238.257 611.125 238.134 609.697 239.221 608.473C240.298 607.237 241.728 607.179 241.727 607.411Z" fill="#253138"/>
<path d="M244.5 613.742C244.278 613.787 243.977 612.564 244.64 611.254C245.295 609.937 246.455 609.447 246.552 609.654C246.683 609.856 245.923 610.549 245.395 611.632C244.841 612.704 244.741 613.725 244.5 613.742Z" fill="#253138"/>
<path d="M236.316 599.222C236.208 599.44 235.102 599.072 233.726 599.123C232.351 599.147 231.269 599.575 231.148 599.363C231.014 599.184 232.084 598.316 233.704 598.279C235.325 598.229 236.441 599.035 236.316 599.222Z" fill="#253138"/>
<path d="M236.562 594.053C236.562 594.153 235.598 594.275 234.072 593.965C233.312 593.81 232.42 593.533 231.489 593.085C231.025 592.861 230.552 592.597 230.083 592.284C229.858 592.13 229.591 591.972 229.349 591.676C229.088 591.413 228.952 590.767 229.275 590.381C229.542 590.007 229.997 589.855 230.356 589.857C230.724 589.856 231.018 589.94 231.286 590.016C231.836 590.166 232.35 590.365 232.82 590.593C233.757 591.053 234.511 591.622 235.069 592.169C236.19 593.272 236.558 594.192 236.473 594.238C236.362 594.313 235.822 593.538 234.675 592.62C234.103 592.162 233.368 591.685 232.491 591.299C232.052 591.108 231.579 590.943 231.076 590.817C230.553 590.662 230.106 590.644 229.963 590.875C229.912 590.963 229.904 590.998 230.009 591.156C230.12 591.302 230.329 591.447 230.549 591.599C230.98 591.899 231.415 592.162 231.841 592.392C232.695 592.849 233.516 593.167 234.221 593.386C235.634 593.827 236.569 593.921 236.562 594.053Z" fill="#253138"/>
<path d="M236.235 594.392C236.148 594.426 235.693 593.542 235.65 591.966C235.632 591.185 235.743 590.243 236.073 589.251C236.241 588.756 236.464 588.251 236.753 587.757C237.059 587.275 237.435 586.628 238.38 586.548C238.872 586.544 239.269 586.941 239.399 587.274C239.553 587.615 239.577 587.905 239.627 588.194C239.701 588.779 239.673 589.347 239.577 589.872C239.389 590.926 238.93 591.794 238.436 592.412C237.426 593.671 236.403 593.931 236.386 593.848C236.308 593.724 237.169 593.281 237.95 592.066C238.335 591.466 238.685 590.671 238.808 589.749C238.872 589.29 238.88 588.802 238.807 588.308C238.745 587.778 238.559 587.346 238.359 587.393C238.113 587.382 237.68 587.767 237.463 588.183C237.195 588.621 236.978 589.071 236.807 589.514C236.468 590.403 236.305 591.26 236.249 591.984C236.136 593.442 236.368 594.359 236.235 594.392Z" fill="#253138"/>
<path d="M237.458 357.461L161.648 356.891L125.015 597.495L156.478 601.489L196.799 403.653L208.868 602.191L208.9 602.782L242.926 602.19L237.458 357.461Z" fill="#253138"/>
<path d="M202.976 376.961C202.953 376.936 203.498 376.903 204.544 376.858C205.679 376.817 207.205 376.761 209.103 376.691C213.165 376.576 218.801 376.416 225.487 376.227L225.798 376.218L225.799 376.534C225.811 381.287 225.824 386.605 225.838 392.248V392.4L225.726 392.502C224.816 393.338 223.85 394.228 222.873 395.126C219.954 397.802 217.129 400.389 214.46 402.836L214.237 403.04L214.013 402.84C209.844 399.124 206.04 395.734 202.798 392.845L202.706 392.761L202.707 392.642C202.766 387.863 202.815 383.937 202.849 381.112C202.877 379.827 202.9 378.794 202.917 378.005C202.938 377.302 202.957 376.94 202.976 376.961C202.995 376.98 203.015 377.376 203.035 378.109C203.053 378.913 203.076 379.967 203.104 381.276C203.138 384.062 203.188 387.932 203.245 392.642L203.156 392.441C206.422 395.302 210.254 398.66 214.455 402.339L214.009 402.344C216.672 399.892 219.489 397.297 222.402 394.615C223.382 393.718 224.348 392.829 225.258 391.995L225.147 392.248C225.161 386.605 225.174 381.287 225.185 376.534L225.498 376.84C218.89 376.903 213.319 376.955 209.305 376.993C207.377 376.995 205.827 376.998 204.673 376.999C204.177 376.994 203.77 376.99 203.429 376.987C203.141 376.981 202.988 376.972 202.976 376.961Z" fill="#455A63"/>
<path d="M167.298 375.917C167.277 375.891 167.763 375.919 168.697 375.99C169.721 376.073 171.085 376.184 172.775 376.321C176.428 376.653 181.487 377.113 187.518 377.658L187.824 377.686L187.787 377.995C187.232 382.645 186.598 387.943 185.923 393.597L185.907 393.738L185.796 393.826C184.752 394.66 183.647 395.542 182.528 396.435C179.738 398.654 177.035 400.807 174.466 402.853L174.201 403.061L173.994 402.798C170.736 398.68 167.749 394.905 165.18 391.655L165.107 391.564L165.121 391.451C165.758 386.734 166.284 382.844 166.662 380.035C166.847 378.764 166.997 377.737 167.111 376.951C167.217 376.253 167.28 375.895 167.298 375.917C167.315 375.94 167.286 376.339 167.218 377.072C167.138 377.877 167.031 378.931 166.9 380.233C166.598 383.01 166.176 386.855 165.666 391.518L165.608 391.312C168.206 394.539 171.225 398.292 174.518 402.381L174.046 402.329C176.612 400.277 179.31 398.119 182.095 395.893C183.215 395.001 184.322 394.119 185.365 393.288L185.238 393.515C185.945 387.864 186.609 382.567 187.189 377.921L187.459 378.258C181.517 377.595 176.532 377.039 172.935 376.639C171.222 376.431 169.843 376.266 168.804 376.141C167.843 376.019 167.318 375.943 167.298 375.917Z" fill="#455A63"/>
<path d="M213.679 412.439C213.629 412.523 212.329 411.859 210.242 410.768C208.155 409.677 205.273 408.172 202.062 406.568C198.848 404.966 195.912 403.568 193.784 402.558C191.657 401.547 190.344 400.908 190.384 400.817C190.419 400.731 191.801 401.211 193.983 402.109C196.166 403.008 199.147 404.34 202.372 405.948C205.595 407.555 208.45 409.136 210.481 410.339C212.513 411.542 213.726 412.359 213.679 412.439Z" fill="#455A63"/>
<path d="M212.705 418.279C212.677 418.355 211.65 418.074 210.118 417.305C208.589 416.544 206.585 415.232 204.712 413.394C202.846 411.549 201.505 409.563 200.719 408.046C199.928 406.526 199.632 405.504 199.707 405.476C199.907 405.367 201.516 409.318 205.198 412.9C208.834 416.526 212.812 418.078 212.705 418.279Z" fill="#455A63"/>
<path d="M234.106 487.803C234.146 487.816 234.046 488.27 233.762 489.06C233.482 489.851 232.978 490.965 232.182 492.243C230.621 494.79 227.627 497.979 223.335 499.795C219.037 501.603 214.662 501.523 211.749 500.864C210.277 500.544 209.127 500.126 208.365 499.777C207.602 499.427 207.208 499.182 207.226 499.147C207.276 499.02 208.938 499.875 211.841 500.384C214.71 500.905 218.928 500.897 223.064 499.154C227.196 497.407 230.143 494.393 231.771 491.974C233.434 489.539 233.98 487.752 234.106 487.803Z" fill="#455A63"/>
<path d="M229.121 485.752C229.154 485.824 228.094 486.429 226.224 487.03C224.361 487.642 221.673 488.17 218.682 488.277C215.691 488.402 212.991 488.121 211.064 487.828C209.136 487.52 207.969 487.202 207.986 487.116C208.018 486.879 212.769 487.801 218.656 487.583C221.593 487.478 224.226 487.038 226.089 486.56C227.957 486.089 229.076 485.65 229.121 485.752Z" fill="#455A63"/>
<path d="M172.757 487.183C172.81 487.239 171.881 488.243 170.12 489.571C168.364 490.901 165.726 492.49 162.563 493.672C159.398 494.847 156.364 495.37 154.168 495.512C151.966 495.66 150.607 495.507 150.611 495.431C150.611 495.316 151.964 495.293 154.118 495.024C156.271 494.76 159.223 494.171 162.324 493.022C165.418 491.864 168.034 490.379 169.836 489.171C171.641 487.965 172.681 487.098 172.757 487.183Z" fill="#455A63"/>
<path d="M166.112 486.892C166.155 487.061 163.046 487.784 159.16 487.462C155.272 487.165 152.318 485.957 152.386 485.797C152.447 485.597 155.427 486.484 159.215 486.771C162.998 487.087 166.083 486.684 166.112 486.892Z" fill="#455A63"/>
<path d="M196.349 405.313C196.383 405.39 195.11 406.053 192.939 406.858C190.771 407.666 187.687 408.566 184.195 409.13C180.699 409.685 177.485 409.791 175.173 409.702C172.86 409.613 171.446 409.384 171.454 409.3C171.462 409.193 172.886 409.25 175.178 409.212C177.471 409.177 180.635 408.991 184.084 408.441C187.532 407.888 190.593 407.075 192.781 406.394C194.971 405.715 196.307 405.213 196.349 405.313Z" fill="#455A63"/>
<path d="M194.28 397.547C194.471 397.546 194.635 398.139 194.646 398.874C194.655 399.608 194.509 400.207 194.316 400.211C194.125 400.215 193.961 399.621 193.952 398.884C193.942 398.147 194.089 397.548 194.28 397.547Z" fill="#455A63"/>
<path d="M194.287 392.218C194.478 392.22 194.63 392.818 194.627 393.552C194.621 394.287 194.462 394.883 194.271 394.883C194.079 394.883 193.928 394.285 193.932 393.548C193.937 392.811 194.096 392.215 194.287 392.218Z" fill="#455A63"/>
<path d="M194.397 386.888C194.588 386.895 194.729 387.495 194.71 388.229C194.691 388.964 194.52 389.556 194.328 389.552C194.137 389.548 193.996 388.947 194.015 388.211C194.034 387.474 194.206 386.882 194.397 386.888Z" fill="#455A63"/>
<path d="M194.61 381.563C194.801 381.572 194.93 382.176 194.897 382.909C194.864 383.644 194.68 384.232 194.489 384.224C194.298 384.218 194.169 383.615 194.202 382.878C194.235 382.141 194.419 381.553 194.61 381.563Z" fill="#455A63"/>
<path d="M194.925 376.241C195.116 376.254 195.233 376.859 195.187 377.594C195.139 378.327 194.946 378.912 194.755 378.9C194.564 378.889 194.446 378.285 194.494 377.549C194.541 376.813 194.734 376.227 194.925 376.241Z" fill="#455A63"/>
<path d="M195.345 370.927C195.536 370.944 195.641 371.553 195.579 372.285C195.518 373.017 195.312 373.599 195.12 373.584C194.929 373.57 194.825 372.962 194.887 372.227C194.947 371.493 195.154 370.909 195.345 370.927Z" fill="#455A63"/>
<path d="M195.765 366.576C195.956 366.597 196.071 366.992 196.024 367.46C195.976 367.929 195.782 368.293 195.591 368.274C195.401 368.257 195.284 367.86 195.333 367.39C195.38 366.921 195.575 366.555 195.765 366.576Z" fill="#455A63"/>
<path d="M152.908 596.212C153.096 596.249 153.131 596.866 152.987 597.586C152.842 598.309 152.573 598.863 152.385 598.826C152.197 598.789 152.161 598.172 152.306 597.452C152.451 596.729 152.72 596.175 152.908 596.212Z" fill="#455A63"/>
<path d="M153.954 590.985C154.141 591.022 154.177 591.639 154.032 592.359C153.888 593.081 153.619 593.635 153.431 593.598C153.242 593.561 153.208 592.945 153.351 592.224C153.496 591.502 153.765 590.948 153.954 590.985Z" fill="#455A63"/>
<path d="M154.998 585.76C155.187 585.797 155.222 586.412 155.078 587.134C154.933 587.856 154.664 588.41 154.475 588.373C154.288 588.335 154.252 587.719 154.397 586.998C154.542 586.276 154.811 585.723 154.998 585.76Z" fill="#455A63"/>
<path d="M156.045 580.532C156.232 580.569 156.268 581.187 156.124 581.907C155.979 582.63 155.71 583.184 155.522 583.147C155.335 583.11 155.299 582.493 155.444 581.773C155.587 581.05 155.858 580.495 156.045 580.532Z" fill="#455A63"/>
<path d="M157.089 575.308C157.276 575.345 157.312 575.962 157.169 576.682C157.024 577.404 156.755 577.958 156.566 577.92C156.379 577.883 156.343 577.268 156.488 576.546C156.632 575.824 156.902 575.27 157.089 575.308Z" fill="#455A63"/>
<path d="M158.134 570.081C158.321 570.118 158.357 570.733 158.214 571.455C158.069 572.177 157.8 572.731 157.611 572.694C157.424 572.656 157.388 572.04 157.533 571.319C157.678 570.598 157.947 570.044 158.134 570.081Z" fill="#455A63"/>
<path d="M159.181 564.854C159.368 564.891 159.404 565.508 159.26 566.229C159.115 566.952 158.846 567.507 158.658 567.47C158.47 567.432 158.434 566.816 158.579 566.094C158.724 565.372 158.993 564.817 159.181 564.854Z" fill="#455A63"/>
<path d="M160.225 559.629C160.413 559.666 160.449 560.283 160.305 561.003C160.16 561.725 159.891 562.279 159.702 562.242C159.515 562.204 159.479 561.589 159.624 560.867C159.769 560.145 160.038 559.592 160.225 559.629Z" fill="#455A63"/>
<path d="M161.272 554.403C161.459 554.441 161.495 555.056 161.35 555.776C161.206 556.499 160.937 557.053 160.748 557.016C160.56 556.979 160.525 556.362 160.669 555.642C160.814 554.92 161.083 554.366 161.272 554.403Z" fill="#455A63"/>
<path d="M162.316 549.177C162.505 549.214 162.539 549.831 162.396 550.551C162.251 551.274 161.982 551.827 161.794 551.789C161.606 551.752 161.57 551.137 161.715 550.415C161.86 549.693 162.129 549.14 162.316 549.177Z" fill="#455A63"/>
<path d="M163.362 543.951C163.549 543.988 163.585 544.604 163.442 545.326C163.297 546.047 163.028 546.601 162.839 546.564C162.652 546.527 162.616 545.911 162.761 545.19C162.905 544.468 163.175 543.914 163.362 543.951Z" fill="#455A63"/>
<path d="M164.407 538.725C164.594 538.762 164.63 539.377 164.487 540.098C164.342 540.821 164.073 541.374 163.884 541.337C163.697 541.3 163.661 540.683 163.806 539.963C163.949 539.24 164.22 538.687 164.407 538.725Z" fill="#455A63"/>
<path d="M165.453 533.498C165.64 533.535 165.676 534.152 165.533 534.872C165.388 535.595 165.118 536.148 164.93 536.111C164.743 536.073 164.707 535.458 164.852 534.736C164.997 534.015 165.266 533.461 165.453 533.498Z" fill="#455A63"/>
<path d="M166.498 528.272C166.685 528.31 166.721 528.925 166.577 529.647C166.433 530.368 166.163 530.922 165.975 530.885C165.788 530.848 165.752 530.231 165.897 529.511C166.042 528.789 166.311 528.235 166.498 528.272Z" fill="#455A63"/>
<path d="M167.544 523.044C167.732 523.082 167.767 523.7 167.624 524.42C167.479 525.143 167.21 525.697 167.021 525.66C166.834 525.623 166.798 525.006 166.943 524.285C167.088 523.562 167.357 523.007 167.544 523.044Z" fill="#455A63"/>
<path d="M168.589 517.82C168.778 517.857 168.812 518.474 168.669 519.195C168.524 519.918 168.255 520.47 168.066 520.433C167.879 520.396 167.843 519.78 167.988 519.059C168.133 518.337 168.402 517.783 168.589 517.82Z" fill="#455A63"/>
<path d="M169.635 512.595C169.824 512.632 169.858 513.247 169.715 513.969C169.57 514.691 169.301 515.245 169.112 515.207C168.925 515.17 168.889 514.554 169.034 513.833C169.179 513.111 169.448 512.558 169.635 512.595Z" fill="#455A63"/>
<path d="M170.68 507.368C170.869 507.405 170.903 508.021 170.76 508.741C170.615 509.464 170.345 510.018 170.157 509.981C169.97 509.944 169.934 509.327 170.079 508.606C170.224 507.883 170.493 507.331 170.68 507.368Z" fill="#455A63"/>
<path d="M171.726 502.141C171.913 502.179 171.949 502.795 171.805 503.516C171.661 504.237 171.391 504.791 171.203 504.754C171.016 504.717 170.98 504.102 171.125 503.38C171.268 502.658 171.539 502.104 171.726 502.141Z" fill="#455A63"/>
<path d="M172.771 496.916C172.958 496.953 172.994 497.568 172.85 498.29C172.706 499.012 172.436 499.566 172.248 499.529C172.061 499.491 172.025 498.875 172.17 498.154C172.313 497.433 172.584 496.879 172.771 496.916Z" fill="#455A63"/>
<path d="M173.817 491.688C174.004 491.725 174.04 492.342 173.897 493.062C173.752 493.785 173.483 494.34 173.294 494.303C173.107 494.266 173.071 493.65 173.216 492.929C173.361 492.206 173.63 491.651 173.817 491.688Z" fill="#455A63"/>
<path d="M174.862 486.464C175.049 486.501 175.085 487.118 174.941 487.838C174.796 488.56 174.527 489.114 174.339 489.077C174.151 489.039 174.116 488.424 174.26 487.702C174.405 486.98 174.675 486.427 174.862 486.464Z" fill="#455A63"/>
<path d="M175.908 481.238C176.095 481.276 176.131 481.891 175.988 482.613C175.843 483.334 175.573 483.888 175.385 483.851C175.198 483.814 175.162 483.197 175.307 482.477C175.452 481.755 175.721 481.201 175.908 481.238Z" fill="#455A63"/>
<path d="M176.953 476.01C177.141 476.047 177.176 476.664 177.033 477.385C176.888 478.108 176.618 478.661 176.43 478.624C176.243 478.586 176.207 477.97 176.352 477.25C176.497 476.527 176.766 475.973 176.953 476.01Z" fill="#455A63"/>
<path d="M177.999 470.785C178.187 470.822 178.222 471.439 178.078 472.159C177.934 472.881 177.664 473.435 177.476 473.398C177.289 473.36 177.253 472.745 177.398 472.023C177.543 471.302 177.812 470.748 177.999 470.785Z" fill="#455A63"/>
<path d="M179.044 465.56C179.231 465.597 179.267 466.212 179.123 466.934C178.978 467.656 178.709 468.209 178.521 468.172C178.334 468.135 178.298 467.518 178.443 466.798C178.586 466.075 178.857 465.522 179.044 465.56Z" fill="#455A63"/>
<path d="M180.09 460.332C180.277 460.369 180.313 460.987 180.169 461.707C180.024 462.43 179.755 462.984 179.567 462.946C179.38 462.908 179.344 462.293 179.488 461.571C179.632 460.85 179.903 460.294 180.09 460.332Z" fill="#455A63"/>
<path d="M181.135 455.107C181.322 455.145 181.358 455.761 181.214 456.482C181.069 457.203 180.8 457.757 180.612 457.72C180.424 457.683 180.389 457.068 180.533 456.346C180.678 455.624 180.947 455.07 181.135 455.107Z" fill="#455A63"/>
<path d="M182.181 449.882C182.368 449.919 182.404 450.534 182.26 451.255C182.115 451.978 181.846 452.532 181.658 452.495C181.47 452.457 181.434 451.841 181.579 451.12C181.724 450.397 181.993 449.845 182.181 449.882Z" fill="#455A63"/>
<path d="M183.225 444.654C183.413 444.691 183.449 445.308 183.305 446.028C183.16 446.751 182.891 447.304 182.702 447.267C182.515 447.229 182.479 446.614 182.624 445.892C182.769 445.171 183.038 444.617 183.225 444.654Z" fill="#455A63"/>
<path d="M184.272 439.429C184.459 439.466 184.495 440.082 184.351 440.803C184.206 441.525 183.937 442.078 183.749 442.041C183.562 442.004 183.526 441.389 183.671 440.667C183.815 439.945 184.085 439.391 184.272 439.429Z" fill="#455A63"/>
<path d="M185.317 434.202C185.504 434.24 185.54 434.856 185.396 435.577C185.251 436.299 184.982 436.853 184.794 436.816C184.607 436.779 184.571 436.162 184.716 435.441C184.86 434.718 185.13 434.165 185.317 434.202Z" fill="#455A63"/>
<path d="M186.361 428.976C186.55 429.014 186.584 429.63 186.441 430.351C186.296 431.072 186.027 431.626 185.838 431.589C185.651 431.552 185.615 430.937 185.76 430.215C185.905 429.493 186.174 428.939 186.361 428.976Z" fill="#455A63"/>
<path d="M187.408 423.751C187.595 423.788 187.631 424.403 187.487 425.125C187.342 425.847 187.073 426.401 186.885 426.364C186.697 426.326 186.661 425.711 186.806 424.989C186.95 424.268 187.219 423.714 187.408 423.751Z" fill="#455A63"/>
<path d="M188.453 418.523C188.641 418.56 188.676 419.177 188.533 419.897C188.388 420.62 188.119 421.174 187.93 421.137C187.742 421.1 187.707 420.483 187.852 419.763C187.996 419.04 188.266 418.486 188.453 418.523Z" fill="#455A63"/>
<path d="M189.498 413.297C189.686 413.335 189.721 413.951 189.578 414.672C189.433 415.395 189.164 415.947 188.975 415.91C188.788 415.873 188.752 415.258 188.897 414.536C189.041 413.814 189.311 413.26 189.498 413.297Z" fill="#455A63"/>
<path d="M190.544 408.072C190.731 408.109 190.767 408.725 190.624 409.446C190.479 410.168 190.21 410.722 190.021 410.685C189.834 410.648 189.798 410.031 189.943 409.31C190.088 408.589 190.357 408.035 190.544 408.072Z" fill="#455A63"/>
<path d="M191.57 170.488L191.374 234.328L218.763 235.633L219.555 220.105C219.555 220.105 229.283 222.037 231.792 213.004C233.395 207.233 232.995 162.633 232.995 162.633L191.57 170.488Z" fill="#FFBD9D"/>
<path d="M236.599 167.127C232.285 168.361 231.347 175.412 231.347 175.412L224.58 190.356C221.133 187.658 216.506 187.813 215.631 193.87C214.997 198.247 220.438 199.132 220.438 199.132C217.27 204.524 215.122 208.885 210.508 214.012C205.516 219.563 202.72 220.122 197.304 220.213H191.334C191.334 220.213 188.413 210.726 183.001 187.001C176.996 160.681 208.119 164.072 213.89 157.353C223.287 146.411 250.197 163.233 236.599 167.127Z" fill="#253138"/>
<path d="M183.569 189.483C178.523 186.094 178.068 176.612 181.012 170.926C183.955 165.239 190.15 161.387 196.551 161.263C197.407 161.246 198.291 161.287 199.089 160.978C200.274 160.522 201.04 159.399 201.815 158.392C206.324 152.53 210.755 146.77 219.159 146.771C220.524 146.771 222.033 146.771 224.442 148.081C225.642 148.734 227.333 150.946 227.616 152.281C229.196 151.532 230.805 150.776 232.533 150.514C234.261 150.252 236.158 150.554 237.463 151.717C238.77 152.878 239.252 155.018 238.238 156.441C241.07 156.262 243.754 158.606 244.2 161.409C244.646 164.213 240.631 166.182 240.213 166.4C240.213 166.4 242.416 171.015 237.16 173.781C235.042 174.896 232.292 173.553 231.979 173.392" fill="#253138"/>
<path d="M203.567 195.622C203.744 195.604 204.016 197.818 203.409 200.469C202.821 203.124 201.626 205.008 201.475 204.916C201.292 204.824 202.17 202.867 202.734 200.316C203.317 197.77 203.362 195.627 203.567 195.622Z" fill="#455A63"/>
<path d="M206.879 192.488C207.063 192.496 207.103 194.608 206.623 197.155C206.153 199.705 205.354 201.659 205.179 201.6C204.989 201.541 205.479 199.528 205.941 197.028C206.411 194.531 206.681 192.477 206.879 192.488Z" fill="#455A63"/>
<path d="M216.365 181.953C216.431 182.044 215.655 182.609 214.67 183.764C213.677 184.905 212.546 186.692 211.719 188.858C210.89 191.026 210.435 193.101 210.082 194.599C209.739 196.101 209.501 197.031 209.404 197.014C209.313 196.997 209.378 196.042 209.6 194.508C209.831 192.979 210.215 190.849 211.072 188.608C211.927 186.366 213.182 184.53 214.31 183.431C215.432 182.316 216.325 181.885 216.365 181.953Z" fill="#455A63"/>
<path d="M220.2 174.779C220.279 174.757 220.56 175.398 220.732 176.508C220.905 177.612 220.91 179.193 220.494 180.865C220.072 182.536 219.321 183.928 218.647 184.821C217.973 185.719 217.423 186.151 217.364 186.095C217.192 185.963 219.046 183.903 219.821 180.698C220.649 177.507 219.987 174.813 220.2 174.779Z" fill="#455A63"/>
<path d="M187.513 190.724C187.419 190.891 186.581 190.601 185.64 190.076C184.699 189.549 184.012 188.987 184.105 188.821C184.199 188.653 185.037 188.944 185.978 189.469C186.919 189.995 187.606 190.558 187.513 190.724Z" fill="#455A63"/>
<path d="M200.744 183.908C200.925 183.935 200.814 185.287 199.962 186.685C199.12 188.09 197.975 188.818 197.868 188.669C197.738 188.517 198.598 187.617 199.369 186.326C200.153 185.045 200.549 183.864 200.744 183.908Z" fill="#455A63"/>
<path d="M204.815 181.722C204.992 181.762 204.704 183.382 203.596 185.04C202.498 186.707 201.117 187.6 201.012 187.453C200.883 187.298 201.99 186.222 203.019 184.657C204.061 183.103 204.621 181.663 204.815 181.722Z" fill="#455A63"/>
<path d="M225.037 154.987C224.989 155.042 224.524 154.596 223.536 154.035C222.547 153.493 220.97 152.899 218.947 152.849C216.944 152.786 214.481 153.263 212.213 154.658C209.944 156.05 207.938 158.318 206.48 161.046C205.417 163.027 204.684 165.091 204.152 167.032L204.043 167.433L203.674 167.239C201.639 166.171 199.488 165.702 197.564 165.677C195.633 165.623 193.933 165.978 192.588 166.428C189.882 167.352 188.599 168.569 188.527 168.459C188.506 168.434 188.813 168.129 189.445 167.647C190.082 167.173 191.081 166.559 192.45 166.034C193.815 165.515 195.561 165.096 197.57 165.107C199.57 165.092 201.833 165.545 203.988 166.652L203.51 166.861C204.033 164.877 204.772 162.759 205.867 160.717C207.371 157.904 209.475 155.545 211.882 154.11C214.295 152.672 216.878 152.231 218.968 152.359C221.078 152.476 222.699 153.171 223.674 153.803C224.155 154.14 224.514 154.412 224.724 154.639C224.946 154.851 225.054 154.969 225.037 154.987Z" fill="#455A63"/>
<path d="M239.439 158.462C239.39 158.449 240.202 158.256 241.011 159.173C241.381 159.615 241.721 160.313 241.641 161.173C241.558 162.032 240.965 162.918 240.049 163.447C239.148 163.998 237.915 164.183 236.722 163.905C235.522 163.643 234.369 163.008 233.289 162.241C232.201 161.479 231.155 160.594 229.932 159.94C228.711 159.277 227.337 158.794 225.886 158.517C222.97 157.974 220.074 158.301 217.628 159.083C215.168 159.872 213.126 161.056 211.525 162.186C208.327 164.484 206.749 166.409 206.652 166.309C206.62 166.282 206.985 165.784 207.735 164.96C208.492 164.145 209.635 162.995 211.235 161.79C212.83 160.588 214.898 159.326 217.431 158.476C219.954 157.632 222.963 157.268 226.014 157.836C227.533 158.124 228.978 158.637 230.259 159.344C231.553 160.05 232.611 160.968 233.66 161.72C234.701 162.481 235.767 163.083 236.851 163.343C237.929 163.616 238.99 163.481 239.806 163.022C240.624 162.583 241.153 161.834 241.256 161.126C241.361 160.404 241.1 159.759 240.799 159.341C240.148 158.469 239.403 158.538 239.439 158.462Z" fill="#455A63"/>
<path d="M162.412 241.012L137.952 282.091C135.215 286.882 132.682 291.992 130.264 297.287C128.314 302.36 129.442 308.981 132.846 313.191L132.155 312.196C134.867 315.551 138.951 317.501 143.266 317.501H143.899C149.585 317.501 154.731 314.13 157 308.915L164.858 296.991L162.412 241.012Z" fill="#FF8100"/>
<path d="M236.22 233.164C229.653 229.81 223.169 229.051 216.095 228.846C207.858 228.606 196.246 227.454 187.369 228.397C187.369 228.397 162.079 230.27 160.323 247.603L163.777 329.01L157.986 363.501L239.036 365.951L238.456 325.256C239.457 304.084 237.32 274.106 237.32 274.106C238.567 262.724 244.795 257.6 245.68 250.2C246.462 243.657 242.088 236.161 236.22 233.164Z" fill="#FF8100"/>
<path d="M213.374 330.18C213.401 330.21 212.994 330.632 212.182 331.309C211.372 331.988 210.13 332.896 208.486 333.842C205.23 335.743 200.154 337.649 194.317 337.752C188.478 337.856 183.34 336.13 180.017 334.346C178.341 333.457 177.068 332.596 176.235 331.944C175.4 331.296 174.978 330.891 175.004 330.857C175.085 330.746 176.878 332.266 180.238 333.907C183.567 335.552 188.606 337.16 194.305 337.058C200.002 336.957 204.982 335.175 208.249 333.412C211.549 331.653 213.291 330.071 213.374 330.18Z" fill="#253138"/>
<path d="M160.198 248.532C160.223 248.532 160.253 248.805 160.292 249.326C160.329 249.921 160.374 250.673 160.43 251.6C160.527 253.669 160.656 256.506 160.818 259.97C161.118 267.121 161.525 276.844 161.975 287.586C162.462 298.33 162.902 308.05 163.225 315.199C163.402 318.663 163.547 321.499 163.652 323.565C163.692 324.492 163.724 325.246 163.749 325.842C163.764 326.363 163.76 326.638 163.735 326.641C163.711 326.642 163.667 326.372 163.608 325.854C163.548 325.26 163.475 324.507 163.382 323.584C163.192 321.614 162.982 318.76 162.735 315.23C162.256 308.17 161.735 298.406 161.28 287.615C160.824 276.83 160.509 267.061 160.328 259.987C160.257 256.519 160.2 253.68 160.159 251.609C160.156 250.681 160.153 249.926 160.151 249.33C160.157 248.808 160.174 248.532 160.198 248.532Z" fill="#253138"/>
<path d="M155.123 252.842C155.143 252.854 155.047 253.073 154.843 253.478C154.597 253.949 154.293 254.527 153.924 255.231C153.106 256.741 151.891 258.91 150.331 261.556C147.254 266.874 142.627 273.995 137.952 282.091C135.616 286.136 133.633 290.141 131.916 293.798C130.215 297.451 129.337 301.037 129.56 304.071C129.733 307.103 130.631 309.459 131.437 310.945C132.24 312.449 132.903 313.146 132.845 313.191C132.828 313.207 132.66 313.039 132.354 312.7C132.061 312.354 131.646 311.823 131.202 311.079C130.308 309.604 129.312 307.217 129.071 304.101C128.773 300.982 129.64 297.243 131.333 293.537C133.033 289.833 134.998 285.819 137.349 281.748C142.044 273.62 146.73 266.551 149.91 261.304C151.465 258.749 152.745 256.65 153.691 255.096C154.105 254.419 154.445 253.862 154.722 253.408C154.964 253.026 155.101 252.831 155.123 252.842Z" fill="#253138"/>
<path d="M284.502 292.773C284.392 292.782 284.302 291.822 283.836 290.372C283.369 288.932 282.442 287 280.836 285.342C279.255 283.664 277.335 282.644 275.849 282.613C274.351 282.537 273.521 283.136 273.471 283.032C273.4 282.994 274.187 282.18 275.854 282.122C277.52 282.023 279.682 283.095 281.336 284.862C283.038 286.619 283.947 288.706 284.307 290.237C284.669 291.784 284.582 292.773 284.502 292.773Z" fill="#253138"/>
<path d="M228.511 236.226C228.526 236.244 228.37 236.424 228.06 236.747C227.888 236.924 227.698 237.119 227.485 237.338C227.267 237.599 227.029 237.888 226.767 238.203C225.726 239.521 224.357 241.604 223.518 244.508C222.624 247.381 222.27 251.035 222.806 254.979C223.08 256.951 223.565 258.999 224.419 260.979C225.248 262.982 226.346 264.967 227.449 267.001C232.042 275.062 236.767 282.039 240.186 287.073C241.88 289.508 243.272 291.509 244.304 292.992C245.283 294.386 245.836 295.148 245.794 295.182C245.774 295.197 245.614 295.024 245.323 294.682C245.033 294.339 244.609 293.829 244.087 293.154C243.032 291.814 241.559 289.833 239.784 287.354C236.255 282.382 231.462 275.444 226.844 267.34C225.733 265.291 224.632 263.296 223.791 261.242C222.916 259.19 222.434 257.082 222.173 255.064C221.659 251.021 222.075 247.285 223.051 244.363C223.971 241.408 225.438 239.315 226.56 238.03C226.843 237.725 227.099 237.447 227.334 237.194C227.569 236.992 227.778 236.811 227.966 236.647C228.31 236.353 228.496 236.208 228.511 236.226Z" fill="#253138"/>
<path d="M228.56 354.075C228.568 354.099 228.369 354.183 227.987 354.323C227.524 354.483 226.97 354.675 226.302 354.906C225.57 355.16 224.668 355.45 223.605 355.733C222.543 356.024 221.343 356.389 219.988 356.68C217.297 357.343 214.049 357.948 210.414 358.438C206.776 358.887 202.752 359.196 198.517 359.224C194.283 359.22 190.255 358.934 186.614 358.506C182.977 358.037 179.723 357.45 177.029 356.802C175.672 356.519 174.47 356.159 173.407 355.875C172.342 355.598 171.438 355.313 170.704 355.064C170.037 354.838 169.48 354.647 169.016 354.491C168.633 354.352 168.437 354.269 168.443 354.246C168.451 354.223 168.662 354.263 169.058 354.358C169.531 354.479 170.098 354.628 170.781 354.805C171.524 355.013 172.435 355.26 173.506 355.5C174.572 355.747 175.777 356.073 177.134 356.323C179.828 356.906 183.071 357.439 186.687 357.871C190.31 358.261 194.31 358.527 198.515 358.529C202.719 358.502 206.716 358.215 210.335 357.804C213.949 357.352 217.187 356.801 219.878 356.202C221.234 355.943 222.438 355.611 223.505 355.359C224.573 355.113 225.482 354.86 226.224 354.647C226.905 354.466 227.473 354.315 227.946 354.191C228.341 354.093 228.552 354.052 228.56 354.075Z" fill="#253138"/>
<path d="M158.734 306.284L162.396 300.603L160.486 255.868L158.734 306.284Z" fill="black"/>
<path d="M221.951 252.842C221.951 252.842 222.07 269.146 225.838 275.603C229.606 282.06 238.422 296.016 238.392 295.183C238.362 294.35 237.892 283.677 237.892 283.677C237.892 283.677 222.028 261.966 221.951 252.842Z" fill="black"/>
<path d="M222.251 255.541C222.236 255.606 221.37 255.374 219.778 255.244C218.188 255.115 215.851 255.17 213.076 255.855C210.299 256.515 207.117 257.781 203.779 259.573C200.42 261.328 196.865 263.559 192.839 265.4C188.825 267.278 184.626 268.229 180.799 268.466C176.959 268.681 173.496 268.23 170.689 267.523C167.872 266.83 165.704 265.894 164.266 265.162C163.535 264.819 163.005 264.48 162.638 264.266C162.274 264.047 162.091 263.923 162.102 263.902C162.133 263.846 162.912 264.28 164.379 264.928C165.839 265.582 168.004 266.438 170.797 267.064C173.58 267.703 176.99 268.096 180.758 267.852C184.519 267.583 188.607 266.642 192.564 264.792C196.531 262.978 200.095 260.766 203.494 259.028C206.875 257.251 210.131 256.005 212.971 255.394C215.81 254.756 218.197 254.776 219.802 254.985C220.606 255.091 221.224 255.215 221.633 255.337C222.043 255.45 222.256 255.518 222.251 255.541Z" fill="white"/>
<path d="M238.008 299.896C238.014 299.917 237.761 300.002 237.268 300.142C236.773 300.264 236.058 300.524 235.098 300.681C233.199 301.101 230.38 301.417 226.899 301.333C223.416 301.262 219.297 300.66 214.822 299.635C210.344 298.61 205.517 297.142 200.453 295.652C195.39 294.175 190.494 293.023 185.973 292.437C181.455 291.87 177.323 291.827 173.92 292.339C170.516 292.834 167.84 293.698 166.086 294.495C164.325 295.271 163.397 295.815 163.362 295.753C163.351 295.733 163.574 295.588 164.013 295.327C164.463 295.088 165.083 294.637 165.98 294.259C167.716 293.382 170.408 292.433 173.85 291.873C177.294 291.292 181.482 291.286 186.05 291.825C190.62 292.383 195.558 293.528 200.64 295.011C205.712 296.503 210.519 297.983 214.961 299.035C219.402 300.085 223.473 300.73 226.917 300.86C230.358 301.005 233.153 300.764 235.052 300.426C236.952 300.103 237.991 299.831 238.008 299.896Z" fill="white"/>
<path d="M238.455 325.257C238.395 325.472 234.655 323.056 227.79 322.384C224.385 322.014 220.285 322.214 215.79 322.799C211.291 323.411 206.395 324.441 201.223 325.411C196.056 326.378 191.102 327.228 186.546 327.625C181.993 328.034 177.849 328.006 174.413 327.545C170.977 327.1 168.259 326.343 166.458 325.638C165.542 325.332 164.877 324.964 164.411 324.768C163.951 324.554 163.715 324.431 163.725 324.41C163.751 324.35 164.729 324.778 166.544 325.392C168.357 326.018 171.064 326.696 174.468 327.077C177.873 327.473 181.973 327.452 186.489 327.012C191.01 326.586 195.936 325.72 201.102 324.755C206.26 323.787 211.174 322.772 215.709 322.188C220.242 321.632 224.394 321.478 227.84 321.915C231.285 322.328 234.002 323.14 235.773 323.916C236.682 324.248 237.325 324.655 237.785 324.869C238.235 325.105 238.466 325.237 238.455 325.257Z" fill="white"/>
<path d="M196.785 357.943C196.757 357.979 196.302 357.691 195.506 357.137C194.714 356.578 193.555 355.784 192.111 354.829C189.227 352.917 185.131 350.436 180.385 348.122C175.632 345.816 171.153 344.126 167.866 343.038C166.224 342.49 164.885 342.068 163.957 341.79C163.029 341.507 162.52 341.327 162.531 341.282C162.543 341.238 163.072 341.331 164.024 341.539C164.975 341.74 166.338 342.095 168.008 342.586C171.346 343.566 175.89 345.199 180.677 347.522C185.457 349.853 189.547 352.417 192.378 354.441C193.796 355.451 194.916 356.305 195.662 356.929C196.412 357.547 196.813 357.907 196.785 357.943Z" fill="white"/>
<path d="M236.251 357.509C236.285 357.57 235.316 358.215 233.557 358.86C231.807 359.507 229.233 360.062 226.363 359.979C223.492 359.885 220.958 359.173 219.25 358.419C217.535 357.666 216.607 356.963 216.646 356.904C216.701 356.805 217.705 357.357 219.424 357.979C221.137 358.605 223.602 359.22 226.383 359.311C229.164 359.392 231.662 358.929 233.411 358.41C235.165 357.897 236.201 357.407 236.251 357.509Z" fill="white"/>
<path d="M223.879 228.847C223.896 228.89 223.234 229.186 222.019 229.683C220.809 230.195 219.018 230.837 216.776 231.537C214.535 232.247 211.821 232.943 208.775 233.566C205.722 234.156 202.335 234.652 198.756 234.926C195.174 235.178 191.748 235.18 188.643 235.043C185.538 234.873 182.751 234.58 180.432 234.203C178.112 233.838 176.245 233.465 174.974 233.136C173.699 232.82 173.002 232.625 173.013 232.58C173.024 232.536 173.74 232.645 175.027 232.882C176.311 233.132 178.181 233.433 180.498 233.735C182.813 234.051 185.586 234.293 188.67 234.429C191.755 234.532 195.153 234.51 198.707 234.261C202.26 233.988 205.621 233.514 208.658 232.961C211.689 232.377 214.398 231.733 216.641 231.084C218.888 230.446 220.695 229.874 221.929 229.44C223.168 229.018 223.863 228.804 223.879 228.847Z" fill="white"/>
<path d="M224.618 355.087C225.957 354.482 226.355 352.655 225.515 351.596C224.675 350.54 223.172 350.305 221.822 350.331C215.2 350.462 209.421 354.893 202.906 356.083C197.95 356.989 192.841 355.968 188.02 354.506C183.199 353.042 178.494 351.133 173.544 350.199C172.508 350.003 171.429 349.853 170.412 350.128C169.396 350.403 168.453 351.205 168.325 352.25C168.197 353.296 168.444 354.069 170.002 354.602C170.002 354.602 186.399 359.16 198.27 358.983C210.863 358.797 224.618 355.087 224.618 355.087Z" fill="black"/>
<path d="M476.817 555.562H566.252V543.274H476.817V555.562Z" fill="#253138"/>
<path d="M566.403 555.715H476.666V543.121H566.403V555.715ZM476.971 555.41H566.097V543.427H476.971V555.41Z" fill="#253138"/>
<path d="M485.109 551.472L497.983 614.979H545.613L558.057 555.561L485.109 551.472Z" fill="#253138"/>
<path d="M485.109 608.973L491.974 618.414H549.87L558.057 608.973H485.109Z" fill="#455A63"/>
<path d="M518.176 553.328C518 553.328 517.775 523.906 517.673 487.62C517.57 451.323 517.63 421.905 517.806 421.905C517.983 421.905 518.206 451.32 518.309 487.618C518.411 523.903 518.352 553.327 518.176 553.328Z" fill="#253138"/>
<path d="M538.097 479.7C538.118 479.71 538.033 479.945 537.856 480.385C537.647 480.883 537.382 481.514 537.058 482.29C536.881 482.709 536.685 483.165 536.474 483.66C536.291 484.178 536.094 484.736 535.881 485.331C535.665 485.931 535.433 486.57 535.19 487.246C534.951 487.925 534.763 488.665 534.528 489.43C533.551 492.479 532.777 496.219 532.03 500.38C531.378 504.562 530.889 509.192 530.643 514.073C530.208 523.844 530.761 532.704 531.35 539.086C531.639 542.278 531.927 544.859 532.14 546.641C532.231 547.476 532.305 548.156 532.364 548.695C532.409 549.166 532.422 549.415 532.401 549.419C532.378 549.422 532.325 549.179 532.24 548.715C532.148 548.181 532.034 547.504 531.894 546.674C531.605 544.901 531.246 542.326 530.902 539.131C530.195 532.748 529.571 523.86 530.007 514.042C530.254 509.14 530.763 504.484 531.449 500.284C532.234 496.102 533.06 492.35 534.098 489.297C534.348 488.533 534.553 487.792 534.809 487.114C535.069 486.441 535.314 485.804 535.546 485.204C535.777 484.613 535.994 484.059 536.196 483.545C536.415 483.044 536.64 482.596 536.832 482.188C537.201 481.433 537.503 480.817 537.741 480.328C537.956 479.906 538.078 479.69 538.097 479.7Z" fill="#253138"/>
<path d="M535.81 455.905C535.832 455.912 535.731 456.247 535.525 456.875C535.294 457.556 534.982 458.466 534.594 459.611C534.387 460.208 534.158 460.866 533.911 461.583C533.687 462.316 533.448 463.108 533.19 463.958C532.668 465.66 532.061 467.595 531.522 469.771C531.236 470.857 530.938 471.993 530.626 473.173C530.357 474.367 530.076 475.609 529.788 476.894C529.161 479.454 528.712 482.236 528.135 485.142C527.149 490.985 526.28 497.445 525.683 504.259C525.117 511.078 524.872 517.595 524.785 523.523C524.769 529.451 524.842 534.793 525.085 539.272C525.163 541.513 525.308 543.535 525.424 545.314C525.526 547.093 525.638 548.623 525.751 549.873C525.844 551.078 525.916 552.039 525.97 552.756C526.013 553.416 526.025 553.764 526.004 553.766C525.983 553.769 525.927 553.425 525.843 552.77C525.758 552.055 525.645 551.098 525.504 549.897C525.353 548.651 525.206 547.119 525.069 545.341C524.919 543.563 524.744 541.54 524.637 539.295C524.335 534.812 524.212 529.461 524.197 523.519C524.252 517.577 524.481 511.042 525.047 504.204C525.648 497.372 526.536 490.894 527.557 485.04C528.15 482.127 528.624 479.34 529.272 476.777C529.576 475.491 529.866 474.25 530.148 473.054C530.475 471.872 530.788 470.738 531.088 469.653C531.655 467.477 532.295 465.547 532.85 463.849C533.126 463.005 533.384 462.216 533.622 461.485C533.89 460.775 534.137 460.121 534.362 459.528C534.799 458.398 535.146 457.501 535.407 456.829C535.651 456.215 535.79 455.897 535.81 455.905Z" fill="#253138"/>
<path d="M512.519 558.531C512.508 558.533 512.491 558.416 512.468 558.187C512.446 557.923 512.417 557.59 512.383 557.175C512.319 556.238 512.232 554.934 512.12 553.279C511.905 549.847 511.599 544.963 511.222 538.949C510.446 526.849 509.323 510.136 507.287 491.755C506.248 482.565 505.043 473.837 503.787 465.924C503.122 461.974 502.517 458.215 501.831 454.718C501.202 451.211 500.524 447.963 499.898 444.998C499.311 442.026 498.656 439.364 498.129 437.016C497.611 434.665 497.11 432.653 496.692 431.01C496.298 429.399 495.987 428.132 495.763 427.219C495.67 426.814 495.594 426.487 495.535 426.229C495.488 426.005 495.47 425.888 495.481 425.884C495.492 425.882 495.53 425.992 495.599 426.211C495.672 426.465 495.769 426.785 495.885 427.185C496.138 428.091 496.487 429.349 496.931 430.948C497.386 432.583 497.924 434.586 498.475 436.931C499.035 439.276 499.725 441.934 500.34 444.903C500.993 447.865 501.697 451.113 502.348 454.62C503.058 458.116 503.684 461.876 504.368 465.829C505.655 473.748 506.88 482.484 507.921 491.684C509.959 510.085 511.01 526.815 511.673 538.921C512.001 544.977 512.229 549.878 512.367 553.266C512.428 554.925 512.477 556.23 512.51 557.17C512.519 557.585 512.527 557.919 512.532 558.184C512.533 558.414 512.529 558.531 512.519 558.531Z" fill="#253138"/>
<path d="M566.398 555.511C566.398 555.687 546.31 555.828 521.536 555.828C496.753 555.828 476.671 555.687 476.671 555.511C476.671 555.334 496.753 555.192 521.536 555.192C546.31 555.192 566.398 555.334 566.398 555.511Z" fill="#455A63"/>
<path d="M552.423 581.36C552.423 581.537 538.887 581.679 522.196 581.679C505.497 581.679 491.966 581.537 491.966 581.36C491.966 581.184 505.497 581.042 522.196 581.042C538.887 581.042 552.423 581.184 552.423 581.36Z" fill="#455A63"/>
<path d="M552.951 585.059C552.951 585.234 539.415 585.377 522.724 585.377C506.024 585.377 492.492 585.234 492.492 585.059C492.492 584.882 506.024 584.74 522.724 584.74C539.415 584.74 552.951 584.882 552.951 585.059Z" fill="#455A63"/>
<path d="M552.951 578.314C552.951 578.491 538.95 578.633 521.684 578.633C504.413 578.633 490.415 578.491 490.415 578.314C490.415 578.137 504.413 577.996 521.684 577.996C538.95 577.996 552.951 578.137 552.951 578.314Z" fill="#455A63"/>
<path d="M539.824 483.256C535.16 482.452 530.111 487.362 529.575 492.066C529.04 496.771 531.188 501.346 533.588 505.427C538.906 514.46 545.871 522.657 554.605 528.451C563.341 534.243 573.932 537.511 584.369 536.543C581.657 527.757 583.278 518.189 581.406 509.187C579.773 501.329 575.408 494.067 569.234 488.938C563.061 483.811 555.121 480.852 547.097 480.688C544.159 480.629 540.75 480.467 539.824 483.256Z" fill="#FBA425"/>
<path d="M584.37 536.542C584.36 536.562 584.129 536.478 583.693 536.298C583.263 536.109 582.636 535.798 581.887 535.301C580.36 534.34 578.537 532.389 576.857 529.672C576.007 528.325 575.06 526.863 574.118 525.237C573.199 523.6 572.221 521.858 571.191 520.029C570.155 518.204 569.026 516.314 567.669 514.493C566.319 512.67 564.745 510.91 563.024 509.214C559.582 505.82 555.956 502.941 552.787 500.163C549.604 497.4 546.894 494.706 544.888 492.211C542.865 489.729 541.573 487.459 540.812 485.846C540.443 485.031 540.173 484.391 540.029 483.943C539.874 483.5 539.803 483.263 539.824 483.255C539.883 483.234 540.225 484.159 541.032 485.736C541.858 487.302 543.191 489.505 545.235 491.926C547.265 494.357 549.979 496.992 553.17 499.72C556.348 502.463 559.995 505.332 563.472 508.761C565.21 510.474 566.802 512.263 568.17 514.125C569.544 515.983 570.674 517.9 571.701 519.739C572.712 521.58 573.674 523.331 574.576 524.974C575.489 526.597 576.417 528.075 577.239 529.432C578.862 532.161 580.577 534.09 582.03 535.1C583.463 536.131 584.402 536.478 584.37 536.542Z" fill="#253138"/>
<path d="M560.135 531.164C560.052 531.154 560.092 529.967 560.286 528.058C560.478 526.148 560.838 523.518 561.383 520.641C561.929 517.763 562.557 515.183 563.075 513.338C563.594 511.488 563.99 510.37 564.073 510.391C564.16 510.415 563.918 511.576 563.513 513.445C563.107 515.314 562.552 517.895 562.009 520.76C561.467 523.624 561.038 526.229 560.732 528.117C560.425 530.004 560.226 531.175 560.135 531.164Z" fill="#253138"/>
<path d="M580.93 507.198C580.911 507.287 579.662 507.083 577.652 506.741C575.643 506.399 572.868 505.934 569.791 505.518C566.711 505.103 563.911 504.812 561.883 504.609C559.855 504.406 558.599 504.273 558.602 504.181C558.607 504.096 559.873 504.072 561.917 504.16C563.959 504.249 566.779 504.469 569.874 504.886C572.97 505.305 575.746 505.843 577.741 506.298C579.734 506.754 580.949 507.117 580.93 507.198Z" fill="#253138"/>
<path d="M541.849 517.05C541.765 517.041 541.821 515.668 542.032 513.456C542.242 511.244 542.619 508.195 543.185 504.85C543.753 501.505 544.404 498.503 544.935 496.344C545.465 494.186 545.866 492.871 545.948 492.891C546.037 492.911 545.792 494.264 545.375 496.441C544.957 498.619 544.38 501.624 543.814 504.957C543.25 508.289 542.803 511.316 542.478 513.509C542.155 515.703 541.939 517.06 541.849 517.05Z" fill="#253138"/>
<path d="M568.792 488.957C568.789 489.133 563.056 489.17 555.988 489.041C548.919 488.91 543.192 488.662 543.196 488.487C543.198 488.312 548.929 488.274 556.001 488.403C563.068 488.533 568.796 488.781 568.792 488.957Z" fill="#253138"/>
<path d="M532.067 469.284L536.864 468.886C540.27 468.604 543.578 467.597 546.556 465.92C548.028 465.09 549.507 464.28 551.073 463.651C557.007 461.269 563.627 461.696 570.013 461.375C580.435 460.852 590.748 458.216 600.142 453.67C600.685 453.407 601.164 453.008 601.455 452.479C602.441 450.683 600.612 449.085 599.035 448.113C590.95 443.132 582.72 438.086 573.55 435.612C564.381 433.139 553.971 433.558 546.147 438.941C536.963 445.262 533.618 458.244 532.067 469.284Z" fill="#FBA425"/>
<path d="M601.564 451.888C601.554 451.909 601.273 451.777 600.75 451.51C600.176 451.209 599.418 450.813 598.474 450.318C596.501 449.281 593.663 447.749 590.073 446.028C586.483 444.327 582.13 442.405 577.068 441.017C572.025 439.616 566.21 438.881 560.212 439.65C554.239 440.438 548.739 442.762 544.846 446.25C540.927 449.726 538.534 453.923 536.845 457.489C535.158 461.087 534.119 464.147 533.363 466.239C533.008 467.244 532.723 468.047 532.508 468.66C532.308 469.212 532.194 469.499 532.173 469.493C532.151 469.486 532.226 469.186 532.386 468.621C532.574 467.998 532.819 467.181 533.126 466.162C533.81 464.041 534.787 460.951 536.435 457.301C538.087 453.682 540.466 449.395 544.455 445.809C548.423 442.211 554.051 439.817 560.13 439.018C566.23 438.236 572.141 439.003 577.225 440.45C582.333 441.885 586.69 443.863 590.27 445.623C593.846 447.403 596.658 448.996 598.596 450.1C599.514 450.638 600.251 451.069 600.811 451.397C601.315 451.701 601.576 451.869 601.564 451.888Z" fill="#253138"/>
<path d="M590.038 458.08C589.939 458.227 583.662 454.165 576.019 449.013C568.375 443.857 562.258 439.562 562.356 439.415C562.454 439.27 568.731 443.328 576.376 448.485C584.019 453.637 590.137 457.936 590.038 458.08Z" fill="#253138"/>
<path d="M584.008 438.813C584.042 438.981 581.864 439.548 579.11 439.798C576.354 440.056 574.109 439.897 574.111 439.726C574.111 439.544 576.332 439.416 579.051 439.162C581.771 438.916 583.975 438.635 584.008 438.813Z" fill="#253138"/>
<path d="M555.866 433.772C556.017 433.861 555.093 435.707 553.806 437.89C552.516 440.076 551.349 441.773 551.197 441.684C551.046 441.595 551.967 439.752 553.257 437.567C554.546 435.383 555.715 433.683 555.866 433.772Z" fill="#253138"/>
<path d="M561.489 461.779C561.445 461.851 560.282 461.241 558.468 460.141C556.654 459.041 554.203 457.427 551.585 455.527C548.967 453.625 546.66 451.828 545.001 450.513C543.343 449.195 542.339 448.347 542.393 448.277C542.446 448.206 543.543 448.926 545.271 450.151C547.153 451.519 549.436 453.177 551.959 455.011C554.57 456.905 556.967 458.568 558.712 459.762C560.457 460.955 561.536 461.7 561.489 461.779Z" fill="#253138"/>
<path d="M514.648 454.084C514.26 449.915 510.047 446.772 505.861 446.728C501.676 446.686 497.775 449.196 495.214 452.508C492.654 455.82 491.242 459.864 490.088 463.887C487.269 473.707 485.726 484.024 486.933 494.17C488.137 504.314 492.253 514.302 499.534 521.47C500.717 522.635 502.25 523.801 503.876 523.453C504.763 523.265 505.491 522.648 506.165 522.039C520.466 509.121 528.723 489.771 528.158 470.508C528.045 466.651 527.539 462.635 525.403 459.42C523.266 456.206 518.285 452.793 514.648 454.084Z" fill="#FBA425"/>
<path d="M501.814 524.334C501.791 524.334 501.767 524.085 501.737 523.607C501.713 523.061 501.681 522.369 501.644 521.519C501.564 519.705 501.545 517.076 501.614 513.828C501.672 510.58 501.889 506.716 502.269 502.436C502.685 498.161 503.283 493.473 504.141 488.588C505.023 483.706 506.079 479.098 507.168 474.941C508.287 470.793 509.419 467.092 510.486 464.023C511.543 460.953 512.468 458.492 513.169 456.816C513.498 456.032 513.766 455.393 513.978 454.888C514.17 454.45 514.28 454.224 514.3 454.232C514.321 454.241 514.25 454.483 514.097 454.936C513.915 455.452 513.684 456.102 513.401 456.905C512.772 458.605 511.913 461.084 510.914 464.165C509.904 467.244 508.819 470.947 507.736 475.09C506.682 479.24 505.646 483.836 504.769 488.7C503.914 493.566 503.299 498.235 502.855 502.493C502.441 506.754 502.18 510.604 502.064 513.841C501.939 517.079 501.889 519.702 501.892 521.515C501.882 522.366 501.873 523.057 501.866 523.605C501.853 524.083 501.836 524.333 501.814 524.334Z" fill="#253138"/>
<path d="M504.618 488.055C504.677 488.118 503.873 489.011 502.497 490.383C501.12 491.755 499.168 493.596 496.94 495.551C494.709 497.504 492.627 499.201 491.088 500.384C489.548 501.57 488.557 502.249 488.503 502.184C488.447 502.112 489.339 501.308 490.803 500.036C492.436 498.617 494.376 496.934 496.519 495.072C498.645 493.191 500.568 491.489 502.187 490.055C503.64 488.77 504.555 487.991 504.618 488.055Z" fill="#253138"/>
<path d="M521.449 501.613C521.372 501.662 520.529 500.453 519.189 498.485C517.737 496.364 515.93 493.73 513.936 490.816C511.897 487.932 510.054 485.324 508.57 483.223C507.191 481.285 506.353 480.073 506.423 480.018C506.491 479.965 507.459 481.08 508.932 482.954C510.408 484.827 512.379 487.466 514.459 490.453C516.535 493.439 518.324 496.206 519.569 498.24C520.814 500.274 521.522 501.568 521.449 501.613Z" fill="#253138"/>
<path d="M512.632 458.975C512.726 459.124 507.136 462.888 500.146 467.381C493.154 471.876 487.41 475.402 487.315 475.253C487.22 475.104 492.809 471.341 499.801 466.845C506.791 462.352 512.537 458.828 512.632 458.975Z" fill="#253138"/>
<path d="M528.395 475.991C528.272 476.117 524.486 472.62 519.939 468.177C515.391 463.735 511.806 460.033 511.928 459.906C512.051 459.78 515.837 463.279 520.385 467.721C524.931 472.163 528.518 475.864 528.395 475.991Z" fill="#253138"/>
<path d="M497.889 430.799C493.316 427.332 488.479 426.651 482.744 426.876C477.011 427.105 471.428 428.851 466.172 431.153C457.207 435.081 448.778 440.868 443.422 449.06C438.064 457.252 436.2 468.097 440.212 477.026C440.61 477.915 441.131 478.846 442.027 479.228C442.97 479.633 444.051 479.318 445.028 478.999C455.225 475.672 465.494 472.314 474.87 467.104C484.246 461.896 492.781 454.654 497.812 445.181C499.019 442.908 500.03 440.473 500.227 437.907C500.426 435.34 499.716 432.612 497.889 430.799Z" fill="#FBA425"/>
<path d="M497.98 429.725C497.986 429.747 497.734 429.848 497.246 430.023C496.694 430.214 495.985 430.457 495.109 430.76C494.637 430.917 494.121 431.087 493.562 431.274C493 431.475 492.403 431.729 491.754 431.98C490.465 432.502 488.967 433.022 487.389 433.788C486.59 434.152 485.756 434.53 484.888 434.926C484.02 435.326 483.156 435.818 482.241 436.285C480.391 437.193 478.521 438.353 476.531 439.529C472.62 442 468.482 444.976 464.457 448.483C460.462 452.032 456.983 455.759 454.034 459.321C452.614 461.148 451.225 462.856 450.089 464.574C449.509 465.422 448.91 466.219 448.401 467.027C447.9 467.839 447.416 468.617 446.954 469.362C445.993 470.83 445.286 472.249 444.605 473.461C444.273 474.073 443.948 474.634 443.677 475.164C443.419 475.695 443.184 476.185 442.968 476.633C442.558 477.464 442.225 478.136 441.967 478.659C441.731 479.119 441.597 479.358 441.577 479.349C441.555 479.34 441.65 479.085 441.847 478.608C442.078 478.071 442.377 477.381 442.743 476.528C442.945 476.071 443.165 475.572 443.405 475.03C443.66 474.49 443.972 473.918 444.288 473.295C444.945 472.062 445.627 470.62 446.566 469.131C447.02 468.375 447.496 467.584 447.989 466.762C448.489 465.94 449.079 465.134 449.655 464.272C450.779 462.531 452.161 460.801 453.578 458.953C456.521 455.345 460.013 451.579 464.034 448.005C468.091 444.472 472.268 441.491 476.222 439.031C478.236 437.861 480.127 436.709 481.997 435.816C482.924 435.357 483.799 434.874 484.678 434.481C485.557 434.097 486.402 433.728 487.21 433.375C488.807 432.631 490.321 432.137 491.63 431.644C492.288 431.407 492.894 431.172 493.463 430.987C494.031 430.82 494.554 430.664 495.032 430.523C495.926 430.267 496.648 430.061 497.209 429.901C497.709 429.765 497.973 429.703 497.98 429.725Z" fill="#253138"/>
<path d="M462.253 449.069C462.303 449.238 457.321 450.843 451.129 452.654C444.936 454.465 439.876 455.796 439.827 455.627C439.777 455.457 444.758 453.852 450.952 452.042C457.144 450.232 462.204 448.901 462.253 449.069Z" fill="#253138"/>
<path d="M461.795 473.617C461.709 473.618 461.608 472.294 461.552 470.15C461.493 468.008 461.483 465.045 461.574 461.776C461.665 458.506 461.84 455.548 462.018 453.411C462.197 451.275 462.37 449.96 462.457 449.965C462.547 449.972 462.531 451.299 462.468 453.438C462.397 455.785 462.307 458.638 462.211 461.793C462.133 464.948 462.059 467.803 462 470.15C461.944 472.291 461.885 473.616 461.795 473.617Z" fill="#253138"/>
<path d="M482.823 462.904C482.647 462.917 482.088 456.897 481.574 449.463C481.06 442.025 480.786 435.988 480.961 435.975C481.137 435.962 481.695 441.981 482.209 449.418C482.724 456.853 482.998 462.892 482.823 462.904Z" fill="#253138"/>
<path d="M456.648 435.39C456.652 435.303 458.013 435.268 460.212 435.283C462.411 435.299 465.446 435.363 468.797 435.474C472.149 435.584 475.179 435.721 477.375 435.851C479.57 435.981 480.927 436.106 480.924 436.194C480.924 436.281 479.564 436.317 477.365 436.302C475.166 436.286 472.129 436.221 468.776 436.111C465.423 436.001 462.389 435.863 460.194 435.734C457.999 435.603 456.643 435.479 456.648 435.39Z" fill="#253138"/>
<path d="M485.339 407.602C483.374 411.16 481.41 414.721 479.444 418.279C479.306 418.527 479.124 418.806 478.841 418.831C478.531 418.855 478.3 418.564 478.131 418.304C472.934 410.328 467.739 402.354 462.543 394.38L466.135 392.346L485.339 407.602Z" fill="#FBA425"/>
<path d="M485.339 407.602C483.374 411.16 481.41 414.721 479.444 418.279C479.306 418.527 479.124 418.806 478.841 418.831C478.531 418.855 478.3 418.564 478.131 418.304C472.934 410.328 467.739 402.354 462.543 394.38L466.135 392.346L485.339 407.602Z" fill="black"/>
<path d="M516.956 426.842C499.234 416.385 481.51 405.926 463.785 395.466C463.244 395.146 462.656 394.768 462.492 394.161C462.279 393.375 462.871 392.616 463.438 392.031C470.75 384.486 481.373 380.113 491.852 380.867C502.332 381.622 512.41 387.674 517.541 396.844C522.672 406.013 522.842 418.138 516.956 426.842Z" fill="#FBA425"/>
<path d="M471.449 385.451C471.447 385.429 471.687 385.401 472.145 385.365C472.604 385.342 473.281 385.26 474.154 385.268C475.902 385.226 478.442 385.34 481.532 385.854C484.62 386.361 488.247 387.355 492.039 389.046C495.826 390.728 499.745 393.164 503.315 396.364C506.856 399.598 509.673 403.257 511.724 406.858C513.784 410.462 515.134 413.972 515.947 416.995C516.767 420.019 517.133 422.536 517.264 424.278C517.36 425.146 517.347 425.828 517.369 426.287C517.38 426.746 517.373 426.987 517.352 426.987C517.296 426.991 517.23 426.028 517.019 424.305C516.814 422.579 516.379 420.095 515.512 417.119C513.833 411.198 509.931 403.213 502.888 396.837C495.844 390.469 487.512 387.381 481.453 386.297C478.405 385.733 475.888 385.55 474.151 385.517C472.415 385.478 471.451 385.509 471.449 385.451Z" fill="#253138"/>
<path d="M509.76 405.186C509.79 405.266 508.767 405.742 507.072 406.408C505.378 407.076 503.01 407.931 500.363 408.772C497.714 409.612 495.286 410.282 493.518 410.714C491.749 411.145 490.64 411.35 490.618 411.267C490.597 411.18 491.665 410.823 493.398 410.28C495.358 409.667 497.644 408.953 500.171 408.163C502.687 407.349 504.965 406.615 506.919 405.984C508.649 405.426 509.729 405.102 509.76 405.186Z" fill="#253138"/>
<path d="M501.386 382.696C501.558 382.681 501.935 385.333 502.016 388.628C502.101 391.924 501.859 394.591 501.686 394.583C501.508 394.578 501.464 391.918 501.378 388.645C501.299 385.37 501.207 382.712 501.386 382.696Z" fill="#253138"/>
<path d="M463.322 394.871C463.298 394.791 464.768 394.259 467.183 393.513C469.599 392.769 472.964 391.827 476.714 390.922C480.466 390.019 483.892 389.324 486.38 388.887C488.871 388.45 490.422 388.256 490.436 388.34C490.453 388.431 488.933 388.779 486.47 389.329C484.007 389.878 480.606 390.64 476.864 391.54C473.124 392.441 469.75 393.314 467.305 393.947C464.863 394.579 463.349 394.959 463.322 394.871Z" fill="#253138"/>
<path d="M297.394 283.84L286.994 269.525C286.955 268.504 286.797 263.173 287.538 260.381C287.695 259.789 290.175 256.24 292.225 253.409C293.505 251.64 294.618 250.151 294.893 249.836C294.989 249.727 295.204 249.544 295.504 249.309L295.507 249.307C296.579 248.471 298.736 246.982 300.458 245.811L300.467 245.806L300.489 245.791C300.565 245.739 300.64 245.689 300.714 245.639L300.716 245.637C300.723 245.632 300.731 245.627 300.738 245.622C301.038 245.419 301.32 245.228 301.577 245.054C302.22 244.621 302.705 244.297 302.895 244.171L302.983 244.112C302.983 244.112 302.983 244.112 302.984 244.112C303.013 244.126 303.881 244.547 303.887 245.949C303.888 246.288 303.65 246.775 303.281 247.329C303.046 247.683 302.757 248.064 302.443 248.452C301.234 249.944 299.65 251.536 299.281 252.039C298.685 252.852 297.398 258.259 297.318 258.596C297.317 258.601 297.316 258.607 297.314 258.612L302.705 254.695L307.012 248.191L308.78 245.52L309.669 244.178C309.669 244.178 310.308 242.645 311.263 241.055C311.681 240.36 312.159 239.653 312.67 239.06C312.791 238.918 312.915 238.783 313.04 238.656C313.04 238.656 313.04 238.656 313.041 238.655C313.499 238.191 313.978 237.833 314.459 237.667C315.315 237.372 315.797 237.757 316.052 238.138C316.078 238.177 316.102 238.217 316.124 238.255C316.146 238.294 316.165 238.335 316.18 238.377C316.211 238.454 316.229 238.535 316.238 238.616C316.238 238.617 316.238 238.617 316.238 238.617C316.251 238.753 316.234 238.89 316.187 239.021C316.187 239.021 316.007 239.63 315.763 240.447C315.602 240.985 315.415 241.613 315.233 242.218C314.909 243.295 314.605 244.297 314.509 244.581C313.992 246.119 311.992 250.699 311.992 250.699L313.632 253.168C313.892 253.559 314.003 254.03 313.945 254.496C313.769 255.926 313.382 259.014 313.289 259.425C313.205 259.486 313.556 261.412 313.746 262.959C313.986 263.989 313.893 266.346 313.893 266.346C313.845 266.855 313.743 267.29 313.57 267.599C312.825 268.925 304.114 277.383 299.792 281.541C298.402 282.878 297.466 283.771 297.394 283.84Z" fill="#FFB17C"/>
<path d="M311.992 250.699C311.992 250.699 309.981 255.551 310.032 255.963C310.082 256.376 310.683 257.684 311.17 257.53C311.656 257.376 311.992 250.699 311.992 250.699Z" fill="#EFA16E"/>
<path d="M313.891 266.364C313.892 266.358 313.892 266.352 313.893 266.346C313.893 266.346 313.986 263.989 313.746 262.959C313.572 261.538 313.262 259.799 313.277 259.476C313.179 259.907 312.509 262.919 312.832 263.657C313.114 264.305 313.689 265.825 313.891 266.364Z" fill="#EFA16E"/>
<path d="M297.314 258.612L302.706 254.695C302.706 254.695 301.494 257.532 300.39 258.484C299.286 259.436 296.926 260.188 297.314 258.612Z" fill="#FBA425"/>
<path d="M233.003 247.746L264.207 296.257C268.035 302.208 274.329 302.259 278.254 296.372L293.578 273.386" stroke="#FF8100" stroke-width="20"/>
</svg>
