<svg width="441" height="431" viewBox="0 0 441 431" fill="none" xmlns="http://www.w3.org/2000/svg">
<path d="M424.067 402.704L171.737 406.737V277.731H418.308L424.067 402.704Z" fill="#081226"/>
<path d="M418.307 277.73L440.892 292.398C440.892 292.398 415.062 296.249 413.836 296.181" fill="#081226"/>
<path d="M440.892 417.372H188.562V292.398H440.892V417.372Z" fill="#172956"/>
<path d="M171.736 278.561L188.562 292.398V417.371L171.736 406.737V278.561Z" fill="#010407"/>
<path d="M57.6335 148.442C52.1317 148.636 48.1078 157.434 46.2795 161.405C43.4519 167.548 41.5673 174.074 39.1617 180.394C36.0899 188.464 28.7514 205.545 27.2458 214.682C27.1868 215.009 27.1393 215.339 27.1021 215.672C26.912 217.212 26.9477 218.491 27.1771 219.578C27.1962 219.705 27.217 219.832 27.2394 219.96C28.6812 228.136 36.4782 233.596 44.6546 232.154C47.2215 231.701 49.5204 230.622 51.4224 229.101C52.7257 228.207 53.8828 227.068 54.8076 225.803C57.2433 222.471 58.9034 218.61 60.6793 214.743C66.4739 202.126 67.3231 190.56 68.1723 176.702C68.3938 173.087 69.155 165.394 68.7006 161.801C68.1592 157.521 70.1749 147.998 57.6335 148.442Z" fill="#FEAC8F"/>
<path d="M67.9406 175.189C67.9406 175.189 67.9397 175.21 67.9379 175.252C67.9097 175.903 67.6542 181.496 66.948 188.162C66.5949 191.495 66.1292 195.096 65.5233 198.48C64.9177 201.864 64.1711 205.032 63.2616 207.492L63.6838 207.648C64.6379 205.066 65.4057 201.753 66.0247 198.23C66.9527 192.946 67.5437 187.193 67.9031 182.758C68.2625 178.324 68.3901 175.209 68.3902 175.207L67.9406 175.189Z" fill="#FF6129"/>
<path d="M48.9613 287.717C48.8519 289.542 48.7868 291.222 48.7579 292.767C48.5338 304.793 50.5123 308.648 50.9547 309.016C52.2028 310.053 59.1062 317.904 60.0038 318.314C61.8274 319.146 60.7616 309.589 61.5953 304.703C61.7438 303.832 61.5268 307.845 61.4571 309.603L61.2798 313.468C63.6802 312.665 64.1043 308.25 64.6199 306.802C65.3107 304.862 65.0578 303.544 64.8779 303.037C64.0655 300.749 60.9277 297.924 60.5681 293.894C60.5349 293.523 59.4467 286.541 59.0051 282.985" fill="#B2C0F0"/>
<path d="M28.231 223.37C28.6285 225.235 28.7469 226.92 29.5764 229.313L48.9432 288.463C48.9432 288.463 59.6587 288.848 59.9811 288.838C59.9811 288.838 58.5763 230.253 57.9643 220.283C57.9649 220.102 57.9635 219.919 57.9576 219.736C57.9415 219.234 57.9004 218.739 57.8366 218.251L57.8358 218.242L57.8355 218.242C56.8405 210.67 50.2432 204.943 42.4502 205.193C34.1519 205.459 27.6407 212.402 27.907 220.7C27.9292 221.392 27.9986 222.07 28.1104 222.733C28.0202 222.748 27.9729 222.756 27.9729 222.756L28.231 223.37Z" fill="#FEAC8F"/>
<path d="M326.68 229.705L281.495 228.032L282.136 210.725C282.266 207.223 285.22 204.478 288.723 204.608L321.204 205.81C324.706 205.94 327.45 208.895 327.32 212.397L326.68 229.705ZM286.32 223.551L322.199 224.88L322.668 212.225C322.703 211.288 321.968 210.498 321.031 210.463L288.551 209.26C287.614 209.225 286.824 209.96 286.789 210.897L286.32 223.551Z" fill="#339BDB"/>
<path d="M362.062 221.485L359.738 284.27C359.691 285.55 358.614 286.544 357.339 286.497L258.868 282.852C257.588 282.805 256.589 281.733 256.636 280.453L258.96 217.668C259.007 216.388 260.083 215.394 261.363 215.441L359.835 219.086C361.11 219.133 362.109 220.205 362.062 221.485Z" fill="#002041"/>
<path d="M355.989 221.262L353.665 284.045C353.618 285.324 352.544 286.321 351.268 286.274L252.796 282.628C251.517 282.581 250.52 281.507 250.567 280.228L252.891 217.445C252.938 216.166 254.012 215.169 255.291 215.216L353.764 218.862C355.04 218.909 356.036 219.983 355.989 221.262Z" fill="#424FA0"/>
<path d="M273.328 283.389L262.671 282.994L264.154 242.939L274.811 243.334L273.328 283.389Z" fill="#172956"/>
<path d="M276.138 250.136L262.328 249.625C260.95 249.574 259.871 248.411 259.922 247.034L260.157 240.684C260.208 239.307 261.37 238.227 262.748 238.278L276.558 238.789C277.936 238.84 279.015 240.003 278.964 241.38L278.728 247.73C278.677 249.107 277.515 250.187 276.138 250.136ZM262.705 239.441C261.969 239.414 261.348 239.991 261.321 240.727L261.086 247.077C261.059 247.813 261.635 248.435 262.371 248.462L276.181 248.973C276.917 249 277.538 248.423 277.565 247.687L277.8 241.337C277.827 240.601 277.251 239.979 276.515 239.952L262.705 239.441Z" fill="#339BDB"/>
<path d="M330.732 285.514L341.389 285.908L342.872 245.854L332.215 245.46L330.732 285.514Z" fill="#172956"/>
<path d="M327.982 249.553L328.217 243.203C328.268 241.826 329.43 240.746 330.808 240.797L344.618 241.308C345.996 241.359 347.075 242.522 347.024 243.899L346.788 250.249C346.737 251.626 345.576 252.706 344.198 252.655L330.388 252.144C329.011 252.093 327.931 250.93 327.982 249.553ZM330.765 241.96C330.029 241.933 329.408 242.51 329.381 243.246L329.146 249.596C329.119 250.332 329.695 250.954 330.431 250.981L344.241 251.492C344.977 251.519 345.598 250.942 345.625 250.206L345.86 243.856C345.887 243.12 345.311 242.498 344.575 242.471L330.765 241.96Z" fill="#339BDB"/>
<g style="mix-blend-mode:multiply">
<g style="mix-blend-mode:multiply">
<path d="M362.062 221.485L361.135 246.531L355.064 246.307L312.618 262.446L294.107 261.761L258.109 240.667L252.158 237.182L252.414 230.291L352.89 234.011L353.451 218.85L359.835 219.086C361.11 219.133 362.109 220.205 362.062 221.485Z" fill="#BFD1E0"/>
</g>
</g>
<path d="M355.989 221.262L355.258 240.997L312.193 257.883L293.858 257.205L252.16 237.18L252.89 217.445C252.937 216.166 254.012 215.169 255.291 215.216L353.763 218.862C355.039 218.909 356.036 219.983 355.989 221.262Z" fill="#172956"/>
<path d="M309.981 264.113L295.605 263.58C293.178 263.49 291.283 261.451 291.373 259.024L291.515 255.207C291.605 252.78 293.645 250.885 296.072 250.975L310.447 251.508C312.874 251.598 314.769 253.638 314.679 256.065L314.537 259.881C314.447 262.308 312.408 264.203 309.981 264.113Z" fill="#339BDB"/>
<path d="M84.2617 102.326C85.9815 99.5912 83.9755 90.1798 82.1105 87.5307C77.0022 80.2756 68.6587 75.6768 60.0233 73.6341C60.079 73.7044 15.1655 88.5353 45.9443 123.461C78.6789 160.606 50.4791 125.111 50.4791 125.111" fill="#00152B"/>
<path d="M78.4573 111.759C78.4573 111.759 62.9508 138.397 41.5656 127.246C7.0064 88.0311 57.4364 71.3778 57.3734 71.2988C67.0688 73.5926 76.4383 78.7557 82.1733 86.9024C84.2674 89.877 86.5197 100.444 84.589 103.516L78.4573 111.759Z" fill="#00152B"/>
<path d="M23.3826 233.911C18.814 244.051 18.814 245.051 20.7319 262.398C21.1683 266.346 19.8675 278.637 25.4616 299.524C26.2541 302.483 29.5723 317.891 30.1903 321.054C30.6608 323.461 31.2708 327.144 31.8316 329.394C32.6459 333.037 32.9607 335.83 33.3334 338.144C34.586 345.923 41.5198 351.486 49.2986 350.234C54.4966 349.396 58.5829 345.849 60.3489 341.267C61.3937 339.253 62.058 335.395 62.2578 333.399C62.4776 331.204 62.688 329.077 62.8874 327.036C63.1612 324.235 63.4142 321.598 63.6419 319.178C64.2036 313.208 64.6116 308.561 64.7985 306.023C64.941 304.087 66.2164 296.886 66.5127 292.746L65.0963 234.539C51.314 221.551 35.314 221.551 23.3826 233.911Z" fill="#0E1C3D"/>
<path d="M32.3774 404.336L34.4823 419.283C34.4823 419.283 37.8583 429.196 40.9933 425.359C44.1282 421.522 47.2311 419.493 47.2311 419.493L48.2602 403.953L32.3774 404.336Z" fill="#B2C0F0"/>
<path d="M40.4489 404.895L40.9909 425.226C40.9909 425.226 30.8868 426.564 34.5735 419.924L32.5878 405.98L40.4489 404.895Z" fill="#B2C0F0"/>
<path d="M48.2644 419.416L74.246 429.563C74.8863 430.038 74.4294 430.839 73.5137 430.847L41.5713 430.997C41.1261 431 40.7273 430.798 40.5787 430.493L39.1855 427.636C38.7827 426.81 37.9807 426.744 38.0543 427.618L37.3717 430.377C37.4084 430.811 32.9905 430.693 32.9514 430.297C32.709 427.844 33.22 419.823 33.6598 417.589C33.7229 417.269 34.0513 417.012 34.4879 416.949L34.4902 416.949C34.8821 416.892 35.2831 417.001 35.523 417.233C36.77 418.44 40.7585 422.071 42.8841 421.336C44.3085 420.843 46.1535 419.961 46.7294 419.453C47.1182 419.11 47.8367 419.098 48.2644 419.416Z" fill="#FF4A0B"/>
<path d="M62.0271 334.017C60.611 326.435 53.3955 321.325 45.7365 322.558C39.6505 323.538 35.088 328.233 33.9902 333.956C33.8582 334.285 33.755 334.709 33.6757 335.294C29.6118 365.262 25.1369 402.389 26.1535 413.235C29.625 413.502 51.7977 409.811 53.8901 409.354C56.2996 395.813 59.863 362.539 62.2825 338.178C62.422 336.773 62.3317 335.369 62.0271 334.017Z" fill="#0F1C3E"/>
<path d="M38.3826 233.911C33.814 244.051 33.814 245.051 35.7319 262.398C36.1683 266.346 34.8675 278.638 40.4616 299.524C41.2541 302.483 44.5723 317.892 45.1904 321.054C45.6608 323.461 46.2708 327.144 46.8316 329.394C47.6459 333.037 47.9607 335.83 48.3334 338.144C49.586 345.923 56.5198 351.486 64.2986 350.234C69.4967 349.397 73.5829 345.849 75.3489 341.267C76.3937 339.253 77.058 335.395 77.2578 333.399C77.4776 331.205 77.688 329.077 77.8874 327.036C78.1612 324.235 78.4142 321.598 78.6419 319.179C79.2036 313.208 79.6116 308.561 79.7985 306.023C79.941 304.087 81.2164 296.886 81.5127 292.746L80.0963 234.54C66.314 221.551 50.314 221.551 38.3826 233.911Z" fill="#172956"/>
<path d="M47.4155 404.202L49.5204 419.149C49.5204 419.149 52.8963 429.062 56.0314 425.224C59.1663 421.387 62.2692 419.359 62.2692 419.359L63.2983 403.819L47.4155 404.202Z" fill="#B2C0F0"/>
<path d="M55.4868 404.761L56.0289 425.091C56.0289 425.091 45.9247 426.43 49.6114 419.79L47.6257 405.845L55.4868 404.761Z" fill="#B2C0F0"/>
<path d="M63.3025 419.281L89.2841 429.428C89.9244 429.904 89.4675 430.705 88.5518 430.712L56.6094 430.862C56.1642 430.866 55.7654 430.664 55.6168 430.359L54.2236 427.501C53.8208 426.676 53.0188 426.609 53.0924 427.483L52.4098 430.242C52.4464 430.677 48.0286 430.558 47.9895 430.163C47.747 427.71 48.2581 419.688 48.6979 417.454C48.761 417.134 49.0894 416.878 49.526 416.814L49.5282 416.814C49.9202 416.757 50.3212 416.866 50.5611 417.099C51.8081 418.305 55.7966 421.937 57.9222 421.202C59.3466 420.709 61.1916 419.827 61.7675 419.319C62.1563 418.976 62.8747 418.964 63.3025 419.281Z" fill="#FF4A0B"/>
<path d="M77.0652 333.883C75.6491 326.3 68.4336 321.191 60.7746 322.424C54.6886 323.404 50.1261 328.099 49.0282 333.821C48.8963 334.15 48.7931 334.575 48.7138 335.159C44.6499 365.127 40.175 402.255 41.1916 413.1C44.6631 413.367 66.8358 409.677 68.9282 409.219C71.3377 395.679 74.9011 362.405 77.3206 338.043C77.4601 336.638 77.3698 335.235 77.0652 333.883Z" fill="#172956"/>
<path d="M71.733 158.046L48.418 157.583L50.003 148.854C51.253 140.428 52.032 133.243 51.043 124.853L50.619 121.258H71.733L71.857 122.353C72.892 131.464 75.667 139.123 74.968 148.271L71.733 158.046Z" fill="#B2C0F0"/>
<path d="M71.746 121.184C71.746 121.184 63.104 121.185 59.164 121.259C58.914 122.156 73.647 144.528 71.746 121.184Z" fill="#8294C4"/>
<path d="M75.178 141.901C76.362 143.456 92.959 172.345 92.439 182.722C91.915 193.177 89.253 243.761 89.809 245.333C89.809 245.333 58.356 258.939 13.608 251.893C-0.148972 239.858 31.597 169.425 36.218 156.472C48.418 141.921 49.128 142.53 51.232 139.01C51.232 139.01 57.529 147.14 75.178 141.901Z" fill="#FF4A0B"/>
<path d="M68.9578 128.832C72.3452 128.708 81.0147 130.685 84.1137 110.227C86.9849 91.2763 74.2097 86.7501 70.8467 85.8492C68.0087 85.0891 58.6425 81.4085 49.3999 102.831C49.2135 103.263 48.7124 103.456 48.2875 103.255C46.5115 102.415 42.5808 100.118 39.825 104.502C37.0394 108.934 40.2877 113.678 42.9166 115.086C43.6756 115.492 45.3982 116.492 45.6573 117.314C45.6573 117.314 63.3417 129.037 68.9578 128.832Z" fill="#B2C0F0"/>
<path d="M80.2059 88.2411C80.2059 88.2411 52.5827 102.836 48.7322 103.318C48.7322 103.318 49.9664 70.3277 80.2059 88.2411Z" fill="#00152B"/>
<path d="M40.616 107.436C40.616 107.436 46.1701 102.842 46.0245 112.408Z" fill="#8294C4"/>
<path d="M79.2777 118.672L71.4231 118.868C71.4231 118.868 73.4804 122.593 75.7443 122.139C78.0083 121.686 79.2777 118.672 79.2777 118.672Z" fill="white"/>
<path d="M75.2085 108.797L74.0913 113.817L76.7618 113.873C77.2548 113.884 77.579 113.363 77.3516 112.925L75.2085 108.797Z" fill="#8294C4"/>
<path d="M65.1799 105.003C64.2659 105.517 65.8459 102.971 67.0441 102.776C68.2424 102.58 69.3504 103.261 69.5197 104.296C69.5197 104.296 67.3746 103.767 65.1799 105.003Z" fill="black"/>
<path d="M82.9303 105.752C83.7251 106.436 82.6777 103.628 81.5419 103.201C80.4065 102.773 79.1861 103.221 78.8166 104.203C78.8166 104.203 81.022 104.109 82.9303 105.752Z" fill="black"/>
<path d="M67.292 110.067C67.244 110.972 67.56 111.725 67.9991 111.749C68.4383 111.773 68.8337 111.056 68.8817 110.151C68.9297 109.246 68.6138 108.493 68.1746 108.469C67.7365 108.446 67.3401 109.162 67.292 110.067Z" fill="black"/>
<path d="M79.5685 109.891C79.523 110.755 79.8242 111.474 80.2431 111.497C80.6623 111.519 81.0393 110.836 81.0858 109.972C81.1324 109.108 80.8297 108.389 80.4108 108.367C79.992 108.344 79.615 109.027 79.5685 109.891Z" fill="black"/>
<path d="M46.719 96.5906C46.719 96.5906 49.2186 93.6161 46.719 96.5906C32.6104 113.379 17.7086 102.961 12.8979 96.1141C5.90161 86.1563 9.33599 71.3487 20.6969 66.9858C22.1015 66.4464 24.5505 65.259 26.1625 65.2057C32.9141 64.9826 39.2455 67.3038 41.3325 69.4146C41.3325 69.4146 53.7181 80.2864 46.719 96.5906Z" fill="#00152B"/>
<path d="M59.5138 147.126C53.456 146.278 47.3555 155.128 44.5886 159.121C40.3095 165.296 36.9879 172.075 33.1364 178.526C28.2181 186.763 16.8925 204.038 13.4821 213.745C13.3544 214.092 13.2387 214.444 13.1338 214.801C12.6285 216.45 12.4209 217.856 12.4622 219.089C12.4586 219.232 12.4568 219.375 12.4568 219.519C12.4568 228.744 19.9351 236.223 29.1602 236.223C32.0563 236.223 34.7801 235.485 37.1546 234.188C38.7534 233.461 40.2392 232.438 41.4953 231.232C44.8033 228.057 47.365 224.151 50.0541 220.263C58.8291 207.575 61.9899 195.083 65.5929 180.083C66.5328 176.17 68.85 167.9 69.046 163.88C69.2795 159.092 73.3224 149.061 59.5138 147.126Z" fill="#FEAC8F"/>
<path d="M65.6314 178.383C65.6314 178.383 65.6263 178.406 65.6162 178.451C65.4597 179.158 64.1011 185.229 62.0422 192.386C61.0128 195.965 59.8084 199.816 58.4924 203.402C57.1768 206.988 55.7485 210.311 54.2788 212.827L54.7106 213.079C56.2529 210.438 57.7323 206.96 59.0894 203.225C61.1243 197.622 62.881 191.441 64.1299 186.658C65.3787 181.875 66.1193 178.492 66.1198 178.489L65.6314 178.383Z" fill="#FF6129"/>
<path d="M218.242 156.821C218.242 156.821 247.229 127.709 314.011 138.288C329.119 140.681 348.812 143.475 367.54 150.943C367.54 150.943 369.124 186.458 291.143 191.123C211.917 175.129 218.242 156.821 218.242 156.821Z" fill="#172956"/>
<path d="M271.395 94.8641L268.289 118.453C267.387 133.448 252.832 139.38 252.832 139.38C269.92 159.651 302.587 158.11 314.011 138.288C306.117 135.459 297.266 123.258 296.922 114.614L296.124 94.5563L271.395 94.8641Z" fill="#B2C0F0"/>
<g opacity="0.34">
<path opacity="0.34" d="M296.396 101.985C296.396 102.168 297.134 116.58 297.134 116.58C297.134 116.58 288.815 140.405 268.289 118.453C268.642 115.635 268.959 113.618 269.278 110.938C271.924 97.3517 275.37 100.157 275.37 100.157L296.396 101.985Z" fill="#8597C9"/>
</g>
<path d="M308.016 74.4763C308.016 94.3284 296.264 115.849 281.693 116.087C267.041 116.327 255.103 94.978 255.103 74.9246C255.103 54.8709 267.041 43.8715 281.693 43.8337C296.264 43.7961 308.016 54.6241 308.016 74.4763Z" fill="#B2C0F0"/>
<path d="M255.379 79.1536C256.844 78.9049 258.309 78.6561 259.773 78.4077C259.1 76.772 256.325 69.5271 259.773 63.1422C263.081 57.0155 270.87 53.9986 276.817 54.3715C283.571 54.795 287.623 57.942 291.012 55.4714C292.916 54.083 293.533 51.5757 293.751 49.6243C293.901 50.8713 294.242 52.7157 295.119 54.7512C297.639 60.5978 301.901 61.7931 304.222 65.6522C305.784 68.2503 306.801 72.6103 304.222 80.3231C305.509 80.2331 306.796 80.1428 308.082 80.0528C309.439 75.7231 311.067 69.5858 312.079 62.0842C313.582 50.9459 314.617 43.2794 310.349 39.5585C309.499 38.8171 305.737 35.8775 296.733 38.6667C294.623 36.436 283.335 30.2963 283.335 30.2963C283.335 30.2963 269.226 26.0562 258.812 33.7083C251.729 38.9132 246.177 48.6175 247.962 56.6269C248.906 60.8623 251.487 62.7541 253.758 70.9397C254.717 74.3955 255.158 77.3059 255.379 79.1536Z" fill="#00152B"/>
<path d="M305.423 80.9988C305.423 80.9988 307.113 72.2865 312.245 73.1058C317.366 73.9235 310.027 88.2395 305.423 90.0054V80.9988Z" fill="#B2C0F0"/>
<path d="M259.241 81.4884C259.241 81.4884 257.52 72.7275 252.281 73.6418C247.031 74.5579 254.548 88.8981 259.241 90.5744V81.4884Z" fill="#B2C0F0"/>
<path d="M2.39586 254.455L1.04452 252.116C-1.11012 248.388 0.276346 243.679 4.14065 241.608L212.277 130.097L220.504 145.776L13.2405 257.421C9.39961 259.495 4.54348 258.172 2.39586 254.455Z" fill="#424FA0"/>
<path d="M325.791 176.629C282.567 200.793 227.847 184.457 203.756 138.794C179.086 92.0326 196.458 33.766 242.334 10.0766C287.383 -13.1864 341.541 6.56013 363.56 52.8217C385.079 98.0304 368.268 152.882 325.791 176.629ZM319.365 163.802C355.253 143.859 369.408 97.5738 351.138 59.5045C332.511 20.6906 286.989 4.33874 249.283 23.9424C210.998 43.8459 196.445 92.5396 216.937 131.704C237.026 170.096 282.945 184.04 319.365 163.802Z" fill="#081226"/>
<path d="M329.745 181.332C286.521 205.495 231.802 189.16 207.711 143.497C183.04 96.7353 200.412 38.4698 246.288 14.7793C291.338 -8.48375 345.495 11.2628 367.515 57.5244C389.033 102.733 372.222 157.585 329.745 181.332ZM323.319 168.505C359.208 148.561 373.363 102.276 355.093 64.2072C336.466 25.3933 290.943 9.04144 253.237 28.6451C214.952 48.5486 200.399 97.2423 220.891 136.406C240.98 174.799 286.9 188.743 323.319 168.505Z" fill="#172956"/>
<path d="M327.477 175.935C286.655 198.708 235.049 183.208 212.38 140.114C189.197 96.0444 205.571 41.1737 248.752 18.8228C291.198 -3.14865 342.304 15.3871 363.129 59.0127C383.507 101.702 367.633 153.533 327.477 175.935ZM323.319 167.635C359.208 147.691 372.664 101.733 355.093 63.336C338.219 26.4636 291.346 8.61522 253.237 27.7739C214.685 47.1552 200.399 96.3711 220.892 135.535C240.98 173.928 286.9 187.873 323.319 167.635Z" fill="#424FA0"/>
<path d="M104.313 206.831C106.344 206.776 108.209 206.685 109.923 206.567C123.256 205.651 127.331 203.088 127.695 202.562C128.723 201.08 136.744 192.679 137.111 191.646C137.855 189.547 127.38 191.652 121.891 191.202C120.913 191.122 125.375 190.974 127.328 190.881L131.623 190.703C130.502 188.123 125.574 188.082 123.921 187.651C121.707 187.074 120.272 187.482 119.729 187.73C117.276 188.851 114.452 192.598 110.026 193.386C109.618 193.459 101.996 195.339 98.1021 196.172" fill="#B2C0F0"/>
<path d="M35.096 236.009C37.1212 235.388 38.9751 235.094 41.544 233.944L105.14 206.779C105.14 206.779 104.529 194.881 104.486 194.525C104.486 194.525 39.7763 201.754 28.7998 203.397C28.5985 203.413 28.397 203.433 28.1949 203.457C27.6406 203.523 27.0962 203.617 26.5623 203.735L26.5528 203.736L26.5524 203.737C18.2682 205.571 12.5675 213.428 13.599 222.03C14.6973 231.19 23.0128 237.724 32.1722 236.626C32.9351 236.535 33.6792 236.392 34.4027 236.204C34.4276 236.302 34.4407 236.354 34.4407 236.354L35.096 236.009Z" fill="#FEAC8F"/>
<path d="M258.397 338.603C260.267 338.603 261.707 338.313 262.717 337.743C263.727 337.173 264.437 336.293 264.837 335.103C265.237 333.913 265.437 332.393 265.437 330.523V305.443H260.957V330.443C260.957 331.453 260.887 332.293 260.757 332.943C260.627 333.593 260.387 334.093 260.057 334.443C259.727 334.793 259.247 335.033 258.637 335.163C258.027 335.293 257.227 335.363 256.237 335.363V338.603H258.397ZM283.997 336.903C285.277 336.033 286.207 334.813 286.777 333.243C287.347 331.673 287.637 329.833 287.637 327.723V315.403C287.637 313.273 287.347 311.443 286.777 309.923C286.207 308.403 285.277 307.233 283.997 306.403C282.717 305.573 280.987 305.163 278.797 305.163C276.607 305.163 274.867 305.573 273.577 306.383C272.287 307.193 271.347 308.373 270.777 309.903C270.207 311.433 269.917 313.273 269.917 315.403V327.683C269.917 329.813 270.197 331.673 270.757 333.263C271.317 334.853 272.247 336.073 273.557 336.923C274.867 337.773 276.607 338.203 278.797 338.203C280.987 338.203 282.717 337.773 283.997 336.903ZM276.057 333.903C275.427 333.413 275.007 332.713 274.797 331.823C274.587 330.933 274.477 329.883 274.477 328.683V314.483C274.477 313.283 274.587 312.253 274.797 311.383C275.007 310.513 275.427 309.853 276.057 309.383C276.687 308.913 277.597 308.683 278.797 308.683C279.997 308.683 280.907 308.913 281.517 309.383C282.127 309.853 282.547 310.513 282.757 311.383C282.967 312.253 283.077 313.283 283.077 314.483V328.683C283.077 329.883 282.967 330.933 282.757 331.823C282.547 332.713 282.127 333.413 281.517 333.903C280.907 334.393 279.997 334.643 278.797 334.643C277.597 334.643 276.687 334.393 276.057 333.903ZM296.757 337.843V305.443H292.317V337.843H296.757ZM305.837 337.843V315.723L315.157 337.843H318.037V305.443H314.277V326.963L305.077 305.443H301.997V337.843H305.837ZM346.017 336.803C347.257 335.873 348.107 334.553 348.557 332.863C349.007 331.173 349.237 329.193 349.237 326.923V305.443H344.957V327.123C344.957 328.513 344.867 329.773 344.677 330.923C344.487 332.073 344.087 332.973 343.477 333.643C342.867 334.313 341.917 334.643 340.637 334.643C339.387 334.643 338.447 334.313 337.817 333.643C337.187 332.973 336.787 332.073 336.597 330.923C336.407 329.773 336.317 328.513 336.317 327.123V305.443H331.997V326.923C331.997 329.193 332.227 331.173 332.677 332.863C333.127 334.553 333.987 335.873 335.237 336.803C336.487 337.733 338.287 338.203 340.637 338.203C342.987 338.203 344.777 337.733 346.017 336.803ZM365.657 337.283C366.817 336.673 367.727 335.783 368.397 334.623C369.067 333.463 369.397 332.083 369.397 330.483C369.397 328.453 368.927 326.703 367.997 325.223C367.067 323.743 365.987 322.473 364.757 321.403L359.277 316.603C358.527 315.933 357.987 315.283 357.657 314.643C357.327 314.003 357.157 313.193 357.157 312.203C357.157 311.033 357.467 310.143 358.097 309.543C358.727 308.943 359.597 308.643 360.717 308.643C361.837 308.643 362.697 308.913 363.297 309.463C363.897 310.013 364.317 310.733 364.557 311.623C364.797 312.513 364.957 313.493 365.037 314.563L368.877 313.523C368.747 312.113 368.487 310.873 368.097 309.823C367.707 308.773 367.187 307.893 366.537 307.203C365.887 306.513 365.067 305.993 364.097 305.663C363.127 305.333 361.997 305.163 360.717 305.163C358.367 305.163 356.517 305.813 355.157 307.123C353.797 308.433 353.117 310.273 353.117 312.643C353.117 314.273 353.367 315.633 353.877 316.743C354.387 317.853 355.167 318.873 356.237 319.803L361.677 324.603C362.687 325.513 363.527 326.413 364.197 327.303C364.867 328.193 365.197 329.373 365.197 330.843C365.197 332.073 364.897 333.013 364.297 333.663C363.697 334.313 362.807 334.643 361.637 334.643C360.487 334.643 359.597 334.303 358.957 333.623C358.317 332.943 357.857 332.073 357.577 331.003C357.297 329.933 357.117 328.833 357.037 327.683L353.037 328.763C353.147 330.633 353.517 332.273 354.157 333.683C354.797 335.093 355.737 336.203 356.977 337.003C358.217 337.803 359.767 338.203 361.637 338.203C363.157 338.203 364.497 337.893 365.657 337.283Z" fill="#339BDB"/>
<path d="M419.814 381.051V392.551H204.814V381.051H419.814Z" fill="#B2C0F0"/>
<path d="M398.364 381.051V392.551H204.864V381.051H398.364Z" fill="#FF6129"/>
<path d="M419.814 351.051V362.551H204.814V351.051H419.814Z" fill="#B2C0F0"/>
<path d="M398.364 351.051V362.551H204.864V351.051H398.364Z" fill="#FF6129"/>
</svg>
