<svg width="89" height="89" viewBox="0 0 89 89" fill="none" xmlns="http://www.w3.org/2000/svg">
<circle cx="44.5" cy="44.5" r="44.5" fill="#DBDAF4"/>
<path d="M47.3462 52.6154C50.0885 52.6154 52.4344 51.6407 54.3837 49.6914C56.333 47.7421 57.3077 45.3962 57.3077 42.6538C57.3077 39.9115 56.333 37.5656 54.3837 35.6163C52.4344 33.667 50.0885 32.6923 47.3462 32.6923C44.6038 32.6923 42.2579 33.667 40.3086 35.6163C38.3593 37.5656 37.3846 39.9115 37.3846 42.6538C37.3846 45.3962 38.3593 47.7421 40.3086 49.6914C42.2579 51.6407 44.6038 52.6154 47.3462 52.6154ZM28.8462 64C28.0753 64 27.4083 63.7183 26.845 63.155C26.2816 62.5917 26 61.9247 26 61.1538C26 60.3534 26.2816 59.6863 26.845 59.1526L34.4495 51.5258C32.6114 48.8724 31.6923 45.9151 31.6923 42.6538C31.6923 40.5341 32.1037 38.5069 32.9264 36.5724C33.7491 34.6379 34.8609 32.9703 36.2617 31.5694C37.6626 30.1686 39.3302 29.0568 41.2647 28.2341C43.1992 27.4114 45.2264 27 47.3462 27C49.4659 27 51.4931 27.4114 53.4276 28.2341C55.3621 29.0568 57.0297 30.1686 58.4306 31.5694C59.8314 32.9703 60.9432 34.6379 61.7659 36.5724C62.5886 38.5069 63 40.5341 63 42.6538C63 44.7736 62.5886 46.8008 61.7659 48.7353C60.9432 50.6698 59.8314 52.3374 58.4306 53.7383C57.0297 55.1391 55.3621 56.2509 53.4276 57.0736C51.4931 57.8963 49.4659 58.3077 47.3462 58.3077C44.0849 58.3077 41.1276 57.3886 38.4742 55.5505L30.8474 63.1773C30.2989 63.7258 29.6318 64 28.8462 64Z" fill="#7C4FCF"/>
</svg>
