<svg width="89" height="89" viewBox="0 0 89 89" fill="none" xmlns="http://www.w3.org/2000/svg">
<circle cx="44.5" cy="44.5" r="44.5" fill="#FCD4DC"/>
<path d="M44.5075 38.9178C43.1315 38.9178 41.8429 39.4494 40.8673 40.4208C39.8963 41.3923 39.3578 42.6754 39.3578 44.0455C39.3578 45.4156 39.8963 46.6987 40.8673 47.6701C41.8429 48.637 43.1315 49.1731 44.5075 49.1731C45.8835 49.1731 47.172 48.637 48.1477 47.6701C49.1187 46.6987 49.6571 45.4156 49.6571 44.0455C49.6571 42.6754 49.1187 41.3923 48.1477 40.4208C47.6711 39.9427 47.104 39.5636 46.4791 39.3056C45.8541 39.0476 45.184 38.9158 44.5075 38.9178ZM63.4815 49.7093L60.4718 47.1477C60.6145 46.2771 60.6881 45.3881 60.6881 44.5037C60.6881 43.6193 60.6145 42.7258 60.4718 41.8597L63.4815 39.2982C63.7089 39.1044 63.8716 38.8462 63.9481 38.5581C64.0245 38.27 64.0111 37.9655 63.9095 37.6852L63.8681 37.566C63.0398 35.2597 61.7987 33.1219 60.2049 31.2561L60.1221 31.1599C59.9286 30.9333 59.6706 30.7704 59.3823 30.6927C59.0939 30.615 58.7887 30.6261 58.5068 30.7246L54.77 32.0489C53.3894 30.9216 51.8523 30.0327 50.1864 29.414L49.4638 25.5236C49.4093 25.2306 49.2666 24.9609 49.0545 24.7506C48.8424 24.5402 48.5711 24.3991 48.2765 24.346L48.1523 24.3231C45.7592 23.8923 43.2373 23.8923 40.8443 24.3231L40.72 24.346C40.4255 24.3991 40.1542 24.5402 39.9421 24.7506C39.73 24.9609 39.5872 25.2306 39.5327 25.5236L38.8056 29.4324C37.1555 30.0559 35.6182 30.9427 34.2542 32.0581L30.4898 30.7246C30.208 30.6254 29.9025 30.6138 29.614 30.6916C29.3255 30.7694 29.0675 30.9327 28.8745 31.1599L28.7916 31.2561C27.2007 33.1239 25.9599 35.2612 25.1284 37.566L25.087 37.6852C24.8799 38.258 25.0502 38.8995 25.515 39.2982L28.5615 41.8872C28.4189 42.7487 28.3498 43.6285 28.3498 44.4991C28.3498 45.3789 28.4189 46.2588 28.5615 47.1111L25.5242 49.7001C25.2969 49.8939 25.1341 50.152 25.0577 50.4402C24.9812 50.7283 24.9947 51.0327 25.0962 51.3131L25.1377 51.4322C25.9706 53.7371 27.1993 55.8679 28.8008 57.7421L28.8837 57.8383C29.0772 58.0649 29.3352 58.2278 29.6235 58.3055C29.9119 58.3832 30.2171 58.3721 30.499 58.2737L34.2634 56.9402C35.6348 58.0629 37.1627 58.9519 38.8148 59.5659L39.5419 63.4746C39.5964 63.7677 39.7392 64.0373 39.9513 64.2477C40.1634 64.458 40.4347 64.5992 40.7292 64.6523L40.8535 64.6752C43.2701 65.1083 45.7449 65.1083 48.1615 64.6752L48.2857 64.6523C48.5803 64.5992 48.8516 64.458 49.0637 64.2477C49.2758 64.0373 49.4185 63.7677 49.473 63.4746L50.1956 59.5842C51.8615 58.961 53.3986 58.0766 54.7792 56.9494L58.516 58.2737C58.7978 58.3729 59.1032 58.3844 59.3918 58.3067C59.6803 58.2289 59.9382 58.0656 60.1313 57.8383L60.2141 57.7421C61.8156 55.8588 63.0444 53.7371 63.8773 51.4322L63.9187 51.3131C64.1166 50.7449 63.9464 50.1079 63.4815 49.7093ZM44.5075 52.1012C40.0389 52.1012 36.4172 48.4949 36.4172 44.0455C36.4172 39.596 40.0389 35.9897 44.5075 35.9897C48.976 35.9897 52.5978 39.596 52.5978 44.0455C52.5978 48.4949 48.976 52.1012 44.5075 52.1012Z" fill="#EE2A52"/>
</svg>
