<svg width="89" height="89" viewBox="0 0 89 89" fill="none" xmlns="http://www.w3.org/2000/svg">
<circle cx="44.5" cy="44.5" r="44.5" fill="#FEF0D9"/>
<path d="M52.8104 52.0335C52.8104 52.0335 58.3748 46.5165 60.262 44.5738C66.235 38.746 63.2582 26.7406 63.2582 26.7406C63.2582 26.7406 51.2928 23.7684 45.456 29.7323C40.9033 34.1614 37.946 37.2308 37.946 37.2308C37.946 37.2308 30.4749 35.6767 26 40.1447L49.8336 64C54.3085 59.4737 52.8104 52.0335 52.8104 52.0335ZM49.892 34.5499C50.2534 34.1887 50.6825 33.9021 51.1549 33.7066C51.6273 33.5111 52.1336 33.4105 52.645 33.4105C53.1564 33.4105 53.6627 33.5111 54.1351 33.7066C54.6075 33.9021 55.0366 34.1887 55.398 34.5499C55.9418 35.0935 56.3119 35.7858 56.4617 36.5393C56.6115 37.2929 56.5342 38.0738 56.2396 38.7835C55.9449 39.4932 55.4462 40.0997 54.8064 40.5264C54.1666 40.9532 53.4144 41.1809 52.645 41.1809C51.8756 41.1809 51.1234 40.9532 50.4836 40.5264C49.8438 40.0997 49.345 39.4932 49.0504 38.7835C48.7558 38.0738 48.6784 37.2929 48.8282 36.5393C48.978 35.7858 49.3482 35.0935 49.892 34.5499ZM27.9456 62.0574C31.547 61.9548 34.9948 60.5778 37.6736 58.1722L31.8368 52.3443C27.9456 54.2869 27.9456 62.0574 27.9456 62.0574Z" fill="#FCC101"/>
</svg>
