<svg width="422" height="424" viewBox="0 0 422 424" fill="none" xmlns="http://www.w3.org/2000/svg">
<path d="M400.782 285.271C360.196 380.833 252.086 434.368 158.332 419.927C143.077 417.578 101.253 410.578 64.2238 377.555C-7.05968 313.985 -22.3042 188.108 35.198 99.3987C77.0495 34.8342 152.073 -1.76511 223.359 0.0655464C238.714 0.45987 297.562 2.89019 349.278 45.5346C356.874 51.7982 373.628 66.6824 388.728 90.295C424.184 145.742 427.232 222.991 400.782 285.271Z" fill="#E3EAFD"/>
<path d="M352.34 96.6806C351.398 96.3996 350.862 95.4077 351.143 94.4662C351.689 92.6362 352.165 90.7557 352.555 88.8761C352.752 87.925 353.675 87.3106 354.625 87.489C354.637 87.4913 354.648 87.4932 354.659 87.4954C355.622 87.6952 356.24 88.6375 356.04 89.6001C355.629 91.5784 355.129 93.5585 354.554 95.4846C354.291 96.3654 353.406 96.8907 352.522 96.7247C352.461 96.7134 352.4 96.699 352.34 96.6806ZM353.827 79.5974C353.958 77.683 354.008 75.7451 353.975 73.8355C353.959 72.8535 354.741 72.0429 355.724 72.026C356.711 72.0126 357.517 72.7929 357.534 73.7757C357.568 75.7845 357.516 77.8247 357.379 79.8389C357.312 80.8195 356.462 81.5602 355.482 81.4933C355.411 81.4885 355.341 81.4795 355.272 81.4667C354.398 81.3023 353.765 80.5066 353.827 79.5974ZM353.165 64.5102C352.867 62.6201 352.483 60.7202 352.024 58.862C351.788 57.9081 352.37 56.943 353.324 56.707C354.278 56.4724 355.242 57.0534 355.479 58.0075C355.963 59.9643 356.367 61.9654 356.681 63.9555C356.834 64.9265 356.171 65.8374 355.2 65.9909C354.993 66.0235 354.789 66.0191 354.594 65.9824C353.876 65.8475 353.286 65.2741 353.165 64.5102ZM349.146 49.95C348.432 48.172 347.632 46.4048 346.77 44.6965C346.327 43.819 346.679 42.7486 347.557 42.3058C348.434 41.8639 349.504 42.216 349.947 43.0923C350.855 44.8913 351.697 46.7518 352.449 48.6226C352.815 49.5345 352.373 50.5711 351.461 50.9373C351.135 51.0683 350.792 51.0961 350.471 51.0356C349.893 50.927 349.382 50.5353 349.146 49.95ZM341.983 36.648C340.894 35.0771 339.723 33.53 338.502 32.0514C337.876 31.2929 337.983 30.1714 338.741 29.5455C339.499 28.9191 340.621 29.0267 341.246 29.785C342.531 31.3408 343.763 32.9686 344.908 34.6217C345.468 35.4293 345.267 36.5381 344.459 37.0977C344.052 37.3797 343.568 37.4687 343.117 37.3838C342.673 37.3004 342.26 37.0489 341.983 36.648ZM332.055 25.2628C330.644 23.9692 329.16 22.7206 327.645 21.551C326.866 20.9506 326.722 19.8329 327.322 19.0551C327.923 18.2767 329.04 18.1323 329.818 18.7327C331.414 19.9632 332.976 21.2781 334.461 22.6392C335.185 23.3037 335.234 24.4291 334.57 25.1538C334.138 25.6245 333.512 25.8095 332.927 25.6997C332.612 25.6405 332.309 25.4957 332.055 25.2628ZM268.218 8.16761C267.984 7.21322 268.567 6.24917 269.522 6.01484C271.478 5.53485 273.481 5.13403 275.475 4.82325C276.447 4.67201 277.356 5.33648 277.507 6.30779C277.659 7.27834 276.994 8.18831 276.023 8.33969C274.13 8.63461 272.228 9.01594 270.371 9.47191C270.116 9.53446 269.861 9.53869 269.619 9.49321C268.954 9.36827 268.39 8.86758 268.218 8.16761ZM319.858 16.3667C318.196 15.4199 316.472 14.5336 314.735 13.7333C313.842 13.3215 313.452 12.2644 313.863 11.3718C314.275 10.4787 315.33 10.0935 316.224 10.5006C318.054 11.3438 319.869 12.2771 321.62 13.2744C322.473 13.7608 322.771 14.8473 322.285 15.7015C321.899 16.379 321.136 16.7065 320.41 16.5701C320.221 16.5346 320.035 16.467 319.858 16.3667ZM283.546 5.79501C283.531 4.81252 284.317 4.00393 285.299 3.98912C287.312 3.95921 289.353 4.01586 291.365 4.15622C292.347 4.22043 293.085 5.07556 293.017 6.05578C292.948 7.036 292.098 7.77525 291.117 7.70711C289.205 7.5734 287.265 7.51947 285.352 7.54833C285.23 7.55014 285.111 7.53911 284.995 7.51751C284.181 7.36446 283.559 6.65543 283.546 5.79501ZM305.981 10.4207C304.15 9.87001 302.271 9.39123 300.396 8.99781C299.434 8.79657 298.818 7.85336 299.02 6.89112C299.219 5.94187 300.14 5.32892 301.089 5.5072C301.101 5.50947 301.114 5.51188 301.126 5.5149C303.101 5.92827 305.079 6.43228 307.006 7.01153C307.947 7.29526 308.481 8.28727 308.198 9.22867C307.934 10.1078 307.05 10.6315 306.167 10.4656C306.105 10.4539 306.043 10.4387 305.981 10.4207Z" fill="#96B6FA"/>
<path d="M257.802 13.559C258.146 13.6237 258.514 13.588 258.858 13.4333C259.695 13.0574 260.554 12.6933 261.411 12.3491C262.323 11.9836 262.766 10.9472 262.4 10.0353C262.035 9.1229 260.998 8.67842 260.086 9.046C259.185 9.40709 258.282 9.79053 257.4 10.1859C256.504 10.5883 256.103 11.6419 256.506 12.538C256.754 13.0909 257.249 13.455 257.802 13.559Z" fill="#96B6FA"/>
<path d="M220.91 53.3433C221.754 53.5019 222.612 53.0295 222.912 52.1952C223.221 51.3318 223.555 50.4599 223.902 49.6049C224.272 48.694 223.834 47.6561 222.923 47.2864C222.008 46.915 220.974 47.3551 220.604 48.2654C220.239 49.1657 219.888 50.0837 219.561 50.9927C219.229 51.9178 219.71 52.9369 220.635 53.269C220.726 53.3016 220.818 53.3261 220.91 53.3433Z" fill="#96B6FA"/>
<path d="M269.834 144.184C268.879 143.956 268.289 142.996 268.517 142.039C268.746 141.083 269.705 140.495 270.662 140.723C272.482 141.158 274.349 141.522 276.232 141.811C277.199 141.956 277.87 142.868 277.721 143.84C277.572 144.811 276.664 145.478 275.692 145.329C274.877 145.204 274.066 145.066 273.261 144.915C272.113 144.699 270.96 144.454 269.834 144.184ZM283.606 144.337C283.623 143.354 284.432 142.571 285.415 142.587C287.302 142.617 289.21 142.569 291.087 142.442C292.066 142.373 292.916 143.117 292.983 144.098C293.049 145.078 292.308 145.927 291.327 145.993C289.351 146.127 287.342 146.178 285.357 146.145C285.254 146.143 285.153 146.133 285.055 146.115C284.219 145.958 283.592 145.217 283.606 144.337ZM260.579 141.288C258.735 140.569 256.895 139.761 255.113 138.885C254.231 138.452 253.867 137.386 254.3 136.503C254.733 135.621 255.799 135.258 256.681 135.69C258.374 136.522 260.12 137.289 261.872 137.972C262.788 138.329 263.241 139.361 262.884 140.277C262.568 141.087 261.724 141.534 260.899 141.379C260.792 141.359 260.685 141.329 260.579 141.288ZM298.834 143.296C298.634 142.334 299.252 141.391 300.214 141.192C302.059 140.808 303.909 140.341 305.713 139.804C306.656 139.522 307.646 140.059 307.927 141.001C308.207 141.943 307.671 142.934 306.729 143.214C304.829 143.78 302.881 144.272 300.939 144.676C300.704 144.725 300.47 144.725 300.248 144.684C299.561 144.555 298.985 144.024 298.834 143.296ZM246.728 134.026C245.088 132.92 243.472 131.727 241.926 130.481C241.16 129.865 241.039 128.745 241.655 127.98C242.272 127.213 243.392 127.093 244.158 127.709C245.627 128.892 247.162 130.025 248.719 131.076C249.534 131.626 249.749 132.732 249.199 133.547C248.789 134.154 248.071 134.428 247.394 134.301C247.163 134.257 246.936 134.166 246.728 134.026ZM234.806 123.903C233.444 122.461 232.127 120.945 230.892 119.396C230.279 118.627 230.405 117.508 231.173 116.895C231.942 116.281 233.062 116.407 233.674 117.176C234.848 118.648 236.099 120.089 237.393 121.46C238.068 122.174 238.036 123.3 237.321 123.975C236.89 124.382 236.31 124.532 235.769 124.43C235.413 124.363 235.074 124.187 234.806 123.903ZM225.372 111.421C224.356 109.716 223.401 107.949 222.533 106.169C222.102 105.286 222.469 104.221 223.352 103.79C224.236 103.358 225.301 103.726 225.732 104.609C226.556 106.3 227.464 107.979 228.43 109.6C228.933 110.444 228.656 111.537 227.812 112.039C227.424 112.271 226.984 112.337 226.573 112.26C226.089 112.169 225.644 111.878 225.372 111.421ZM218.886 97.1796C218.268 95.2935 217.722 93.3592 217.266 91.4302C217.04 90.4738 217.632 89.5147 218.589 89.2886C219.543 89.0627 220.503 89.6548 220.73 90.6112C221.163 92.4424 221.68 94.2788 222.268 96.0707C222.575 97.0045 222.066 98.0098 221.132 98.3159C220.837 98.4126 220.535 98.4282 220.25 98.3745C219.633 98.2585 219.096 97.8189 218.886 97.1796ZM215.687 81.8526C215.499 79.8814 215.394 77.8759 215.373 75.8916C215.363 74.9087 216.152 74.1036 217.135 74.0936C218.114 74.0839 218.922 74.8717 218.933 75.8546C218.952 77.7397 219.052 79.6442 219.23 81.5167C219.323 82.4948 218.605 83.3636 217.626 83.4562C217.456 83.4724 217.289 83.4643 217.129 83.4341C216.369 83.2915 215.763 82.6606 215.687 81.8526ZM215.93 66.2131C216.112 64.7653 216.34 63.3052 216.609 61.8739C216.706 61.3554 216.809 60.8402 216.917 60.3263C217.12 59.365 218.056 58.728 219.025 58.9519C219.987 59.1539 220.603 60.0979 220.4 61.06C220.298 61.548 220.2 62.0387 220.107 62.5312C219.851 63.8923 219.634 65.2796 219.461 66.6561C219.339 67.6312 218.449 68.3227 217.474 68.2003C217.438 68.1956 217.401 68.1899 217.365 68.1832C216.448 68.0109 215.812 67.1515 215.93 66.2131Z" fill="#96B6FA"/>
<path d="M314.792 139.923C315.139 139.989 315.51 139.952 315.856 139.795C316.733 139.396 317.618 138.971 318.486 138.531C319.364 138.088 319.715 137.017 319.272 136.14C318.828 135.263 317.759 134.911 316.881 135.355C316.055 135.772 315.215 136.176 314.382 136.555C313.488 136.961 313.092 138.016 313.499 138.911C313.749 139.46 314.242 139.82 314.792 139.923Z" fill="#96B6FA"/>
<path d="M325.526 111.365C325.797 111.136 325.894 110.76 325.766 110.429L322.118 100.986C324.942 97.1939 327.181 92.9246 328.688 88.2986L338.497 85.8224C338.841 85.7353 339.092 85.4398 339.122 85.0861L340.151 72.987C340.181 72.6333 339.983 72.2996 339.659 72.1559L330.408 68.0599C329.704 63.2459 328.217 58.6598 326.073 54.446L331.262 45.7535C331.443 45.4487 331.412 45.0621 331.183 44.7909L323.355 35.5084C323.126 35.2372 322.751 35.1407 322.42 35.2688L312.976 38.9159C309.184 36.0922 304.915 33.8527 300.289 32.3459L297.812 22.5369C297.725 22.1927 297.43 21.9416 297.076 21.9117L284.977 20.8833C284.623 20.8534 284.29 21.051 284.146 21.3754L280.05 30.6263C275.236 31.3307 270.65 32.8176 266.436 34.9612L257.743 29.7725C257.439 29.5908 257.052 29.6221 256.781 29.8509L247.498 37.6794C247.227 37.908 247.131 38.2839 247.259 38.6148L250.906 48.0585C248.082 51.8502 245.843 56.1194 244.336 60.7455L234.527 63.2219C234.183 63.3086 233.932 63.6043 233.902 63.9578L232.873 76.0573C232.844 76.411 233.041 76.7446 233.366 76.8883L242.616 80.9844C243.321 85.7982 244.807 90.3845 246.951 94.5982L241.763 103.291C241.581 103.595 241.612 103.982 241.841 104.253L249.669 113.536C249.898 113.807 250.274 113.903 250.605 113.776L260.049 110.128C263.84 112.952 268.11 115.191 272.736 116.698L275.212 126.508C275.299 126.851 275.594 127.103 275.948 127.133L288.047 128.161C288.401 128.191 288.735 127.993 288.878 127.669L292.974 118.418C297.788 117.713 302.374 116.227 306.588 114.083L315.281 119.272C315.586 119.454 315.972 119.422 316.243 119.193L325.526 111.365Z" fill="#96B6FA"/>
<path d="M282.533 86.0612C276.171 83.8669 272.779 76.9062 274.973 70.5429C276.036 67.4605 278.235 64.9766 281.166 63.549C284.097 62.1211 287.409 61.9194 290.491 62.9831C296.854 65.1772 300.245 72.1381 298.051 78.5012C296.055 84.2899 290.114 87.6192 284.266 86.5204C283.686 86.4114 283.107 86.2588 282.533 86.0612ZM282.413 66.109C280.166 67.2039 278.48 69.1081 277.665 71.4716C275.983 76.3495 278.583 81.6875 283.461 83.3694C288.34 85.0537 293.677 82.4511 295.36 77.5727C297.041 72.6948 294.441 67.3568 289.563 65.6748C289.121 65.5223 288.673 65.4042 288.221 65.3194C286.26 64.9509 284.24 65.2192 282.413 66.109Z" fill="#C0D2FB"/>
<path d="M280.765 103.8C281.769 103.989 282.789 104.128 283.821 104.216C284.146 104.244 284.471 104.266 284.797 104.284C286.402 104.368 288.013 104.325 289.602 104.154C289.623 104.152 289.645 104.15 289.667 104.147C289.728 104.141 289.789 104.134 289.851 104.126C289.971 104.112 290.09 104.098 290.209 104.083C290.523 104.042 290.763 103.804 290.819 103.509C290.832 103.437 290.835 103.362 290.825 103.286C290.775 102.896 290.418 102.621 290.028 102.671C288.022 102.928 285.974 102.971 283.942 102.797C273.848 101.941 265.413 95.9087 261.027 87.5388C258.586 82.8837 257.399 77.505 257.877 71.8908C257.96 70.9061 258.093 69.933 258.273 68.9753C259.485 62.5288 262.849 56.7431 267.932 52.4575C273.769 47.5343 281.174 45.1789 288.783 45.8255C304.497 47.1625 316.183 61.0258 314.848 76.7323C314.766 77.7008 314.635 78.6615 314.457 79.6103C313.683 83.7225 312.019 87.6197 309.569 91.0163C309.505 91.1042 309.465 91.2014 309.446 91.3012C309.397 91.5635 309.498 91.8435 309.729 92.01C310.049 92.2392 310.493 92.1691 310.724 91.8489C313.296 88.2828 315.044 84.191 315.855 79.874C316.043 78.8779 316.18 77.8697 316.267 76.8532C317.669 60.3627 305.388 45.808 288.904 44.4067C280.916 43.7279 273.142 46.2007 267.014 51.3691C261.678 55.8681 258.147 61.942 256.874 68.7096C256.685 69.7153 256.546 70.7366 256.458 71.7697C255.779 79.7582 258.251 87.532 263.42 93.6602C267.92 98.9968 273.996 102.528 280.765 103.8Z" fill="#C0D2FB"/>
<path d="M403.548 154.031C404.015 154.119 404.503 153.895 404.73 153.45C405.154 152.618 405.558 151.763 405.931 150.907C406.174 150.35 405.92 149.703 405.363 149.46C404.807 149.214 404.159 149.471 403.916 150.028C403.561 150.843 403.175 151.659 402.771 152.452C402.495 152.992 402.711 153.655 403.251 153.931C403.348 153.979 403.447 154.012 403.548 154.031Z" fill="#96B6FA"/>
<path d="M406.569 146.151C405.987 145.978 405.655 145.367 405.827 144.785C406.261 143.316 406.625 141.807 406.908 140.302C406.967 139.984 407.023 139.665 407.077 139.344C407.176 138.745 407.742 138.34 408.341 138.44C408.904 138.557 409.344 139.106 409.245 139.705C409.189 140.041 409.131 140.375 409.068 140.707C408.772 142.286 408.39 143.868 407.935 145.408C407.774 145.954 407.227 146.28 406.679 146.177C406.643 146.17 406.606 146.161 406.569 146.151ZM407.655 133.792C407.735 131.935 407.7 130.058 407.552 128.212C407.503 127.607 407.954 127.077 408.559 127.028C409.161 126.981 409.695 127.43 409.743 128.036C409.899 129.971 409.935 131.94 409.851 133.886C409.825 134.492 409.313 134.962 408.706 134.937C408.653 134.935 408.6 134.928 408.549 134.918C408.02 134.819 407.632 134.344 407.655 133.792ZM406.758 122.686C406.382 120.87 405.886 119.059 405.287 117.301C405.091 116.727 405.398 116.102 405.972 115.906C406.548 115.71 407.171 116.016 407.367 116.591C407.996 118.434 408.515 120.335 408.911 122.238C409.034 122.833 408.653 123.415 408.059 123.539C407.914 123.568 407.769 123.568 407.632 123.543C407.208 123.463 406.852 123.135 406.758 122.686ZM403.16 112.14C402.348 110.469 401.425 108.833 400.416 107.281C400.086 106.771 400.231 106.09 400.74 105.76C401.248 105.431 401.929 105.574 402.26 106.083C403.318 107.712 404.286 109.427 405.138 111.179C405.403 111.725 405.175 112.383 404.63 112.649C404.409 112.755 404.171 112.782 403.947 112.74C403.617 112.678 403.319 112.466 403.16 112.14ZM397.097 102.792C395.903 101.369 394.611 100.008 393.255 98.744C392.811 98.3309 392.787 97.6351 393.201 97.1907C393.614 96.7464 394.31 96.7209 394.754 97.1363C396.175 98.4606 397.53 99.8881 398.781 101.378C399.171 101.844 399.111 102.536 398.646 102.926C398.383 103.147 398.048 103.224 397.736 103.165C397.495 103.12 397.267 102.994 397.097 102.792ZM388.948 95.1988C387.446 94.1106 385.862 93.1064 384.239 92.2138C383.707 91.9216 383.513 91.2529 383.806 90.7214C384.098 90.1899 384.764 89.9959 385.299 90.2875C387 91.2231 388.663 92.2772 390.238 93.4186C390.729 93.7752 390.839 94.4622 390.483 94.9533C390.226 95.309 389.794 95.4649 389.39 95.3889C389.235 95.3601 389.084 95.2977 388.948 95.1988ZM379.193 89.8318C377.475 89.1475 375.692 88.5622 373.891 88.0927C373.304 87.9389 372.952 87.3385 373.106 86.7514C373.258 86.1641 373.856 85.821 374.447 85.9648C376.334 86.4583 378.205 87.0717 380.007 87.7893C380.57 88.0143 380.846 88.6533 380.621 89.2173C380.424 89.7133 379.904 89.9859 379.398 89.8907C379.329 89.8779 379.261 89.8587 379.193 89.8318ZM361.757 85.5113C361.763 84.9041 362.26 84.4174 362.867 84.4233C364.547 84.4398 366.256 84.549 367.94 84.7463C368.196 84.7749 368.451 84.8075 368.705 84.8412C369.306 84.9039 369.73 85.4747 369.648 86.0777C369.566 86.6794 369.013 87.1008 368.411 87.0204C368.173 86.9877 367.933 86.958 367.689 86.9307C366.077 86.7412 364.447 86.6373 362.845 86.6213C362.779 86.6208 362.714 86.6142 362.652 86.6025C362.137 86.5059 361.752 86.052 361.757 85.5113Z" fill="#96B6FA"/>
<path d="M353.002 178.428C351.124 178.05 349.254 177.553 347.441 176.954C346.865 176.762 346.552 176.141 346.743 175.564C346.934 174.987 347.558 174.682 348.132 174.866C349.861 175.439 351.645 175.912 353.437 176.273C354.032 176.392 354.417 176.972 354.297 177.567C354.178 178.157 353.607 178.542 353.017 178.431C353.013 178.43 353.007 178.429 353.002 178.428ZM357.696 178.041C357.744 177.436 358.273 176.984 358.878 177.032C360.698 177.175 362.546 177.21 364.369 177.134C364.972 177.111 365.488 177.58 365.512 178.188C365.537 178.794 365.066 179.305 364.46 179.331C362.549 179.41 360.613 179.374 358.705 179.223C358.665 179.22 358.626 179.215 358.587 179.207C358.042 179.105 357.651 178.607 357.696 178.041ZM342.095 174.812C340.364 173.991 338.667 173.057 337.053 172.037C336.54 171.712 336.388 171.032 336.712 170.52C337.036 170.006 337.713 169.855 338.228 170.178C339.768 171.152 341.385 172.042 343.037 172.827C343.586 173.087 343.819 173.743 343.56 174.29C343.341 174.752 342.843 174.99 342.364 174.9C342.273 174.883 342.183 174.854 342.095 174.812ZM368.925 177.835C368.826 177.236 369.231 176.67 369.83 176.571C371.631 176.273 373.431 175.861 375.182 175.345C375.764 175.175 376.375 175.508 376.547 176.089C376.718 176.671 376.385 177.283 375.803 177.454C373.967 177.995 372.078 178.428 370.189 178.74C370.058 178.761 369.929 178.759 369.807 178.736C369.366 178.653 369.002 178.303 368.925 177.835ZM332.389 168.67C330.909 167.459 329.487 166.145 328.163 164.763C327.743 164.325 327.758 163.629 328.196 163.209C328.635 162.789 329.331 162.803 329.751 163.242C331.013 164.561 332.369 165.813 333.781 166.968C334.251 167.352 334.321 168.045 333.936 168.515C333.673 168.837 333.263 168.971 332.881 168.899C332.706 168.866 332.536 168.791 332.389 168.67ZM324.438 160.377C323.289 158.844 322.222 157.227 321.268 155.572C320.965 155.047 321.146 154.375 321.671 154.072C322.196 153.769 322.869 153.949 323.173 154.475C324.083 156.053 325.1 157.595 326.197 159.059C326.561 159.544 326.463 160.233 325.977 160.598C325.72 160.79 325.407 160.853 325.114 160.798C324.854 160.749 324.609 160.606 324.438 160.377ZM318.701 150.419C317.951 148.654 317.304 146.827 316.776 144.991C316.608 144.407 316.946 143.799 317.529 143.631C318.112 143.463 318.721 143.802 318.889 144.384C319.392 146.135 320.009 147.876 320.725 149.558C320.962 150.117 320.702 150.763 320.143 151C319.935 151.089 319.716 151.108 319.511 151.069C319.162 151.003 318.851 150.77 318.701 150.419Z" fill="#96B6FA"/>
<path d="M380.626 175.547C380.835 175.586 381.056 175.566 381.265 175.475C382.129 175.101 382.984 174.699 383.81 174.282C384.351 174.008 384.569 173.347 384.295 172.805C384.02 172.265 383.36 172.047 382.818 172.32C382.031 172.718 381.214 173.101 380.391 173.458C379.834 173.7 379.578 174.347 379.82 174.904C379.971 175.251 380.28 175.482 380.626 175.547Z" fill="#96B6FA"/>
<path d="M388.562 156.184C388.743 156.031 388.808 155.78 388.722 155.558L386.282 149.239C388.171 146.702 389.669 143.845 390.678 140.749L397.242 139.092C397.472 139.034 397.64 138.836 397.66 138.6L398.348 130.503C398.368 130.267 398.236 130.044 398.019 129.948L391.829 127.207C391.357 123.985 390.363 120.917 388.928 118.097L392.4 112.28C392.522 112.076 392.5 111.818 392.347 111.636L387.109 105.425C386.956 105.243 386.704 105.179 386.483 105.264L380.164 107.705C377.627 105.815 374.77 104.317 371.674 103.308L370.017 96.7448C369.959 96.5146 369.761 96.3463 369.525 96.3263L361.428 95.6383C361.192 95.6184 360.968 95.7504 360.872 95.9675L358.131 102.158C354.91 102.629 351.841 103.624 349.022 105.058L343.205 101.586C343.001 101.465 342.742 101.486 342.561 101.639L336.349 106.877C336.168 107.03 336.103 107.282 336.189 107.503L338.63 113.823C336.74 116.36 335.242 119.217 334.233 122.312L327.669 123.969C327.439 124.027 327.271 124.225 327.251 124.462L326.563 132.558C326.543 132.795 326.675 133.018 326.892 133.114L333.082 135.855C333.554 139.076 334.549 142.145 335.983 144.965L332.511 150.781C332.39 150.985 332.411 151.244 332.564 151.426L337.802 157.637C337.955 157.819 338.207 157.883 338.428 157.797L344.747 155.357C347.285 157.247 350.141 158.745 353.237 159.753L354.894 166.317C354.952 166.547 355.15 166.715 355.387 166.736L363.483 167.423C363.719 167.443 363.943 167.311 364.039 167.094L366.78 160.904C370.001 160.433 373.07 159.437 375.889 158.003L381.706 161.475C381.91 161.597 382.169 161.576 382.35 161.423L388.562 156.184Z" fill="#96B6FA"/>
<path d="M359.746 139.391C357.646 138.668 355.953 137.169 354.981 135.172C354.008 133.176 353.871 130.921 354.596 128.821C356.09 124.487 360.824 122.182 365.167 123.671C369.5 125.166 371.81 129.908 370.316 134.241C369.592 136.34 368.094 138.033 366.097 139.005C364.474 139.796 362.68 140.034 360.937 139.707C360.537 139.631 360.138 139.526 359.746 139.391ZM356.674 129.537C356.141 131.082 356.242 132.741 356.957 134.21C357.673 135.678 358.918 136.78 360.462 137.313C362.007 137.844 363.665 137.744 365.135 137.029C366.603 136.314 367.705 135.068 368.237 133.525C369.337 130.337 367.638 126.849 364.45 125.749C364.162 125.65 363.872 125.574 363.582 125.519C360.652 124.969 357.674 126.637 356.674 129.537Z" fill="#C0D2FB"/>
<path d="M358.516 151.738C359.2 151.866 359.895 151.961 360.602 152.021C362.007 152.141 363.425 152.118 364.821 151.952C364.884 151.944 364.946 151.937 365.009 151.929C365.493 151.867 365.863 151.498 365.95 151.043C365.97 150.932 365.974 150.816 365.959 150.698C365.882 150.096 365.33 149.674 364.729 149.749C363.428 149.916 362.102 149.943 360.789 149.831L360.789 149.831C360.717 149.825 360.645 149.818 360.573 149.811C357.469 149.517 354.556 148.461 352.037 146.764C350.669 145.843 349.418 144.732 348.316 143.449C348.307 143.439 348.298 143.428 348.289 143.418C348.262 143.385 348.234 143.354 348.208 143.322C345.021 139.543 343.496 134.749 343.915 129.823C343.968 129.185 344.054 128.556 344.171 127.936C344.956 123.762 347.134 120.017 350.424 117.242C354.203 114.055 358.997 112.531 363.922 112.95C368.844 113.37 373.316 115.68 376.504 119.459C379.69 123.238 381.215 128.032 380.797 132.957C380.744 133.584 380.658 134.206 380.543 134.82C380.042 137.483 378.965 140.005 377.379 142.204C377.281 142.34 377.219 142.489 377.19 142.644C377.114 143.049 377.27 143.481 377.627 143.738C378.121 144.092 378.806 143.983 379.162 143.489C380.937 141.029 382.143 138.206 382.703 135.228C382.832 134.54 382.928 133.845 382.987 133.144C383.455 127.632 381.75 122.269 378.184 118.041C374.618 113.814 369.623 111.224 364.109 110.759C358.598 110.29 353.235 111.996 349.007 115.562C345.326 118.666 342.889 122.856 342.011 127.526C341.881 128.219 341.785 128.924 341.724 129.636C340.818 140.306 348.21 149.801 358.516 151.738Z" fill="#C0D2FB"/>
<path d="M2.39289 232.311C9.08071 204.471 30.9501 182.616 58.7908 175.933C77.9315 171.338 96.2954 173.803 111.817 181.249C116.965 183.719 123.083 180.923 124.51 175.394C138.231 122.21 186.521 82.9185 243.992 82.9185C312.139 82.9185 367.383 138.163 367.383 206.309C367.383 208.119 367.346 210.59 367.315 212.961C367.556 218.057 369.781 220.221 373.102 220.764C399.802 223.543 420.785 245.554 421.949 272.702C423.286 303.874 397.915 329.7 366.715 329.7H78.1125C28.7079 329.7 -9.97488 283.794 2.39289 232.311Z" fill="#5053F0"/>
<path d="M24.7451 242.744C30.7165 217.887 50.2429 198.374 75.1009 192.406C92.1911 188.303 108.588 190.505 122.447 197.153C127.043 199.358 132.506 196.862 133.779 191.925C146.03 144.438 189.148 109.357 240.461 109.357C301.307 109.357 350.633 158.682 350.633 219.529C350.633 221.144 350.601 223.35 350.572 225.467C350.788 230.018 352.774 231.949 355.74 232.435C379.579 234.916 398.314 254.569 399.354 278.808C400.548 306.641 377.895 329.701 350.036 329.701H92.3526C48.2407 329.701 13.7023 288.713 24.7451 242.744Z" fill="#606AF4"/>
<path d="M356.789 190.142C356.441 190.142 356.126 189.902 356.045 189.549C344.957 140.95 316.724 117.282 294.992 105.985C271.444 93.7432 250.281 92.978 250.07 92.9715C249.649 92.9591 249.317 92.6075 249.33 92.1863C249.343 91.7651 249.687 91.4324 250.116 91.4469C250.33 91.4534 271.842 92.2306 295.695 104.631C309.709 111.916 321.789 121.728 331.6 133.793C343.856 148.865 352.582 167.51 357.533 189.209C357.627 189.62 357.37 190.029 356.959 190.123C356.902 190.136 356.845 190.142 356.789 190.142Z" fill="#C0D2FB"/>
<path d="M272.97 385.515C272.97 385.515 375.012 220.394 325.057 172.07C297.14 145.064 239.319 152.46 215.363 175.532V152.964C215.363 150.125 211.407 149.437 210.449 152.11L193.161 200.365L233.158 214.53C235.579 215.388 237.591 212.511 235.954 210.531L219.323 190.42C219.323 190.42 360.893 147.149 185.847 366.271L272.97 385.515Z" fill="#C0D2FB"/>
<path d="M181.184 159.485L126.132 156.621C121.636 156.387 118.049 159.892 118.176 164.422L119.599 215.05C119.715 219.188 123.295 222.348 127.544 222.138L179.819 219.556C183.363 219.381 186.289 216.239 186.394 212.516L187.669 167.165C187.782 163.126 184.898 159.678 181.184 159.485Z" fill="#FF877F"/>
<path d="M151.999 209.933C140.565 209.933 131.263 200.631 131.263 189.198C131.263 177.764 140.565 168.462 151.999 168.462C163.433 168.462 172.734 177.764 172.734 189.198C172.734 200.631 163.433 209.933 151.999 209.933ZM151.999 171.937C142.481 171.937 134.738 179.68 134.738 189.198C134.738 198.716 142.481 206.459 151.999 206.459C161.517 206.459 169.26 198.716 169.26 189.198C169.26 179.68 161.517 171.937 151.999 171.937Z" fill="white"/>
<path d="M145.503 197.183V182.276C145.503 180.683 147.237 179.696 148.607 180.509L161.168 187.962C162.51 188.758 162.51 190.701 161.168 191.497L148.607 198.951C147.237 199.763 145.503 198.776 145.503 197.183Z" fill="white"/>
<path d="M106.807 122.279L66.2598 120.169C62.9481 119.997 60.3061 122.578 60.3998 125.915L61.4481 163.204C61.5338 166.251 64.17 168.579 67.2995 168.424L105.802 166.523C108.412 166.394 110.567 164.08 110.644 161.337L111.583 127.935C111.667 124.961 109.542 122.421 106.807 122.279Z" fill="#FF877F"/>
<path d="M99.6372 160.39H70.5524C67.3336 160.39 64.7149 157.771 64.7149 154.553V135.383C64.7149 132.164 67.3336 129.545 70.5524 129.545H99.6372C102.856 129.545 105.475 132.164 105.475 135.383V154.553C105.475 157.771 102.856 160.39 99.6372 160.39ZM70.5524 132.299C68.8522 132.299 67.469 133.683 67.469 135.383V154.553C67.469 156.253 68.8522 157.636 70.5524 157.636H99.6372C101.337 157.636 102.721 156.253 102.721 154.553V135.383C102.721 133.683 101.337 132.299 99.6372 132.299H70.5524Z" fill="white"/>
<path d="M99.9665 128.719C99.9665 129.784 99.1035 130.647 98.0387 130.647H93.0814C92.0167 130.647 91.1536 129.784 91.1536 128.719C91.1536 127.654 92.0167 126.791 93.0814 126.791H98.0387C99.1035 126.791 99.9665 127.654 99.9665 128.719Z" fill="white"/>
<path d="M98.3142 137.953C98.3142 138.785 97.6397 139.46 96.8077 139.46H91.5585C90.7265 139.46 90.0521 138.785 90.0521 137.953V137.661C90.0521 136.829 90.7265 136.155 91.5585 136.155H96.8077C97.6397 136.155 98.3142 136.829 98.3142 137.661V137.953Z" fill="white"/>
<path d="M81.3124 154.332H80.6152C75.7963 154.332 71.8754 150.411 71.8754 145.592V144.895C71.8754 140.076 75.7963 136.155 80.6152 136.155H81.3124C86.1314 136.155 90.0521 140.076 90.0521 144.895V145.592C90.0521 150.411 86.1314 154.332 81.3124 154.332ZM80.6152 138.909C77.3146 138.909 74.6295 141.594 74.6295 144.895V145.592C74.6295 148.892 77.3146 151.578 80.6152 151.578H81.3124C84.6128 151.578 87.298 148.892 87.298 145.592V144.895C87.298 141.594 84.6128 138.909 81.3124 138.909H80.6152Z" fill="white"/>
<path d="M172.832 103.496L134.224 101.488C131.071 101.324 128.556 103.782 128.645 106.959L129.643 142.463C129.724 145.365 132.235 147.581 135.214 147.434L171.875 145.623C174.36 145.501 176.412 143.297 176.485 140.686L177.379 108.882C177.459 106.05 175.436 103.632 172.832 103.496Z" fill="#FF877F"/>
<path d="M167.773 108.062H140.479C137.951 108.062 135.091 109.384 135.091 111.992V127.173C135.091 129.675 137.978 132.187 140.479 132.187H159.254C159.9 132.187 160.265 132.946 160.265 133.593V135.836C160.265 136.759 161.178 137.101 161.634 137.254C161.851 137.407 162.218 137.635 162.674 137.635C163.052 137.635 163.423 137.473 163.665 137.189L167.699 132.421C170.25 132.366 171.278 129.675 171.278 127.173V111.992C171.278 109.509 170.256 108.062 167.773 108.062ZM168.656 127.173C168.656 128.347 168.72 129.564 167.773 129.564H166.753L162.363 134.467V131.17C162.363 130.524 162.323 129.564 161.676 129.564H140.479C139.317 129.564 137.189 128.335 137.189 127.173V112.618C137.189 110.922 139.306 110.684 140.479 110.684H167.773C168.927 110.684 168.656 110.837 168.656 111.992V127.173Z" fill="white"/>
<path d="M166.034 115.541C166.034 116.044 165.625 116.453 165.121 116.453H140.723C140.219 116.453 139.811 116.044 139.811 115.541V115.267C139.811 114.764 140.219 114.355 140.723 114.355H165.121C165.625 114.355 166.034 114.764 166.034 115.267V115.541Z" fill="white"/>
<path d="M166.034 120.785C166.034 121.289 165.625 121.698 165.121 121.698H140.723C140.219 121.698 139.811 121.289 139.811 120.785V120.512C139.811 120.008 140.219 119.6 140.723 119.6H165.121C165.625 119.6 166.034 120.008 166.034 120.512V120.785Z" fill="white"/>
<path d="M166.034 126.03C166.034 126.534 165.625 126.942 165.121 126.942H140.723C140.219 126.942 139.811 126.534 139.811 126.03V125.757C139.811 125.253 140.219 124.844 140.723 124.844H165.121C165.625 124.844 166.034 125.253 166.034 125.757V126.03Z" fill="white"/>
<path d="M120.334 58.2099L72.0591 55.6983C68.1163 55.4933 64.9708 58.5666 65.0824 62.539L66.3305 106.934C66.4323 110.562 69.5711 113.334 73.2969 113.15L119.137 110.886C122.244 110.732 124.81 107.977 124.902 104.712L126.02 64.9445C126.119 61.4032 123.59 58.3792 120.334 58.2099Z" fill="#FF877F"/>
<path d="M99.0045 66.5289C98.2027 66.2439 97.3618 66.8455 97.3618 67.6963V69.4393V72.8568V89.8468C95.6828 88.4653 93.3383 87.6043 90.7393 87.6043C85.6356 87.6043 81.4982 90.9142 81.4982 94.9972C81.4982 99.0802 85.6356 102.39 90.7393 102.39C95.8432 102.39 99.9806 99.0802 99.9806 94.9972C99.9806 94.9617 99.9746 94.9273 99.974 94.8919H99.9806V72.8715C103.642 73.4262 106.129 76.206 107.585 78.4766C108.196 79.43 109.662 78.9479 109.602 77.8169C109.238 70.9544 102.258 67.6846 99.0045 66.5289Z" fill="white"/>
<path d="M58.0595 22.9922L7.83661 20.3794C3.73472 20.1659 0.462116 23.3634 0.578448 27.4961L1.8767 73.6831C1.98276 77.4576 5.24826 80.3412 9.12444 80.1496L56.8146 77.7941C60.0473 77.6344 62.7166 74.768 62.8122 71.3711L63.9751 29.9986C64.0788 26.3143 61.4477 23.1685 58.0595 22.9922Z" fill="#FF877F"/>
<path d="M49.5893 67.996H14.385C11.6767 67.996 9.47296 65.792 9.47296 63.0837V37.4315C9.47296 34.7231 11.6767 32.5191 14.385 32.5191H49.5893C52.2978 32.5191 54.5013 34.7231 54.5013 37.4315V63.0837C54.5013 65.792 52.2978 67.996 49.5893 67.996ZM14.385 35.9304C13.5575 35.9304 12.8843 36.6039 12.8843 37.4315V63.0837C12.8843 63.9112 13.5575 64.5847 14.385 64.5847H49.5893C50.4168 64.5847 51.0902 63.9112 51.0902 63.0837V37.4315C51.0902 36.6039 50.4168 35.9304 49.5893 35.9304H14.385Z" fill="white"/>
<path d="M31.9967 51.2343C31.6513 51.2343 31.3053 51.1297 31.01 50.9197L11.2931 36.9376C10.5248 36.3927 10.3437 35.328 10.8886 34.5599C11.4337 33.7909 12.4987 33.6111 13.2665 34.1554L31.9961 47.4373L50.48 34.308C51.2482 33.7617 52.3129 33.9421 52.8582 34.7111C53.4037 35.4786 53.2233 36.5433 52.4555 37.089L32.9844 50.9191C32.6886 51.129 32.3428 51.2343 31.9967 51.2343Z" fill="white"/>
<path d="M12.546 67.2118L12.0453 63.8373L12.2798 65.5268L10.8494 64.5995C11.2236 63.9979 18.3287 51.5694 23.013 43.3632C23.4802 42.5443 24.5207 42.2584 25.3402 42.7275C26.1583 43.1945 26.4426 44.236 25.9761 45.0541C25.9761 45.0541 22.9343 50.3821 19.8865 55.7116C18.3624 58.3767 16.8366 61.0424 15.6887 63.0418C13.3697 67.0813 13.3699 67.0813 12.546 67.2118Z" fill="white"/>
<path d="M51.3306 67.2117C50.5067 67.0818 50.5067 67.082 48.1878 63.0419C47.0398 61.0424 45.5139 58.3767 43.9895 55.7116C40.9417 50.3822 37.9004 45.0541 37.9004 45.0541C37.4334 44.236 37.7179 43.1946 38.536 42.7276C39.3535 42.2592 40.3955 42.5451 40.863 43.3632C45.5477 51.5694 52.6529 63.9979 53.0269 64.5995L51.5966 65.5269L51.3306 67.2117Z" fill="white"/>
<path d="M229.207 374.71C206.6 376.073 213.644 339.955 214.052 338.519L179.739 362.755C179.739 362.755 181.556 382.07 210.084 392.201C217.301 394.765 223.898 394.878 229.73 393.624C227.243 386.372 227.749 379.864 229.207 374.71Z" fill="#FF877F"/>
<path d="M272.921 363.84C264.497 357.98 254.952 363.84 254.952 363.84C243.688 371.207 235.355 374.34 229.207 374.71C227.749 379.864 227.243 386.372 229.73 393.624C242.349 390.912 251.377 381.779 255.3 377.093C256.712 375.406 259.214 375.113 260.94 376.476C262.695 377.861 264.398 379.758 264.089 381.754C263.48 385.691 268.048 386.943 268.393 385.515C268.737 384.087 266.83 375.623 266.83 375.623C266.83 375.623 275.967 384.811 279.533 388.341C283.1 391.872 287.585 388.341 287.585 388.341C287.585 388.341 281.346 369.7 272.921 363.84Z" fill="#FFABA8"/>
<path d="M123.791 282.74C123.791 282.74 156.681 269.572 217.891 320.105C217.891 320.105 223.003 330.688 217.426 340.108C211.848 349.528 158.704 395.425 151.4 420.878C151.4 420.878 119.739 431.165 86.9955 406.77C86.9955 406.77 89.8852 335.932 123.791 282.74Z" fill="#FF877F"/>
<path d="M188.811 270.988L172.62 290.617C171.013 292.565 170.658 295.277 171.77 297.545C174.018 302.129 179.35 308.803 191.176 307.88C194.694 307.606 197.809 305.483 199.346 302.307L210.667 278.903L188.811 270.988Z" fill="#FFABA8"/>
<path d="M98.3269 366.805C94.5088 351.255 133.183 316.587 133.183 316.587L123.791 282.741C123.791 282.741 40.2798 338.335 61.5616 383.042C64.6124 389.451 68.6646 393.94 73.3625 396.942C80.087 378.841 90.8035 370.54 98.3269 366.805Z" fill="#FF877F"/>
<path d="M98.2995 364.541C97.889 364.541 97.5156 364.262 97.4133 363.845C93.5089 347.946 130.952 314.161 132.547 312.73C132.922 312.395 133.499 312.424 133.838 312.8C134.175 313.176 134.143 313.754 133.768 314.091C133.385 314.434 95.543 348.567 99.1882 363.409C99.3083 363.9 99.0086 364.394 98.5185 364.515C98.4459 364.532 98.3721 364.541 98.2995 364.541Z" fill="#E65C55"/>
<path d="M156.904 365.466C156.904 365.466 111.051 383.269 99.8585 369.878C99.0997 368.97 98.6047 367.936 98.3269 366.804C90.8034 370.54 80.0871 378.841 73.3624 396.942C97.4788 412.352 138.7 388.369 149.846 381.299C151.68 380.136 153.88 379.728 156.006 380.169C160.305 381.06 167.731 382.371 171.737 381.754C177.596 380.851 186.013 401.521 195.509 395.145C195.509 395.145 187.377 359.218 156.904 365.466Z" fill="#FFABA8"/>
<path d="M219.477 239.873C219.694 240.487 219.49 283.576 219.49 283.576L194.89 282.936L189.016 242.069C189.016 242.069 215.839 229.586 219.477 239.873Z" fill="#FFABA8"/>
<path d="M196.104 250.024L197.512 271.78C197.53 272.059 197.584 272.328 197.677 272.591C198.245 274.205 200.607 279.615 205.995 276.861C210.884 274.362 215.382 272.153 218.863 272.503C220.426 272.661 221.612 273.976 221.604 275.547C221.585 279.462 221.378 288.283 220.029 295.919C219.755 297.468 218.33 298.537 216.763 298.4C212.039 297.988 202.101 296.839 194.322 294.042C193.268 293.663 192.504 292.751 192.332 291.645C191.492 286.249 188.878 269.859 187.443 265.405C186.097 261.223 180.334 259.706 177.869 259.241C177.061 259.089 176.357 258.616 175.909 257.926C174.325 255.489 171.648 249.651 178.87 245.602C180.381 244.755 180.886 242.843 179.993 241.358C178.215 238.401 176.765 233.638 182.206 229.771C187.736 225.841 192.916 228.175 195.888 230.318C197.09 231.184 198.711 231.03 199.785 230.009C200.396 229.428 201.268 229.103 202.492 229.565C204.14 230.187 205.959 229.177 206.406 227.473C207.266 224.198 209.593 220.411 215.74 220.245C226.648 219.951 230.171 231.402 228.752 238.806C227.334 246.21 215.489 245.857 209.12 243.535C204.278 241.769 199.222 245.637 197.077 247.593C196.398 248.212 196.045 249.107 196.104 250.024Z" fill="#1E147E"/>
<path d="M188.035 273.321C188.035 273.321 189.953 260.314 184.906 258.227C179.858 256.141 173.567 258.999 176.772 267.506C180.758 278.089 188.035 273.321 188.035 273.321Z" fill="#FFABA8"/>
<path d="M180.396 400.573C180.469 400.576 180.543 400.578 180.617 400.578L276.824 400.473C279.203 400.471 281.129 398.541 281.126 396.162C281.124 393.783 279.186 391.818 276.815 391.861L180.608 391.966C178.229 391.968 176.304 393.898 176.306 396.276C176.309 398.58 178.121 400.46 180.396 400.573Z" fill="#1E147E"/>
<path d="M363.31 313.223H283.188C277.278 313.223 271.898 316.634 269.377 321.98L232.336 400.521H331.907C335.715 400.521 339.138 398.194 340.538 394.652L369.261 321.973C370.92 317.774 367.826 313.223 363.31 313.223Z" fill="#1E147E"/>
<path d="M306.864 353.493C305.127 358.888 306.41 364.127 309.729 365.195C313.047 366.263 317.145 362.756 318.881 357.361C320.617 351.967 319.335 346.728 316.016 345.66C312.697 344.592 308.6 348.099 306.864 353.493Z" fill="#839CF4"/>
<path d="M16.1115 406.742C15.9178 405.491 16.1814 404.196 16.8302 403.213C17.4788 402.23 18.4449 401.66 19.4643 401.66H364.758C366.099 401.66 367.347 402.515 368.069 403.927C368.791 405.339 368.888 407.115 368.326 408.637L364.584 418.765C363.727 421.085 361.871 422.57 359.828 422.57H21.8336C19.9333 422.57 18.2996 420.884 17.9387 418.551L16.1115 406.742Z" fill="#839CF4"/>
</svg>
