<svg width="562" height="425" viewBox="0 0 562 425" fill="none" xmlns="http://www.w3.org/2000/svg">
<g opacity="0.5">
<path d="M547.835 257.917C556.002 262.632 556.046 270.272 547.932 274.987L297.078 420.768C288.965 425.483 275.776 425.483 267.609 420.768L15.1148 274.99C6.94833 270.275 6.90446 262.635 15.0181 257.92L265.872 112.139C273.985 107.424 287.175 107.424 295.342 112.139L547.835 257.917Z" fill="#4B7ABF"/>
</g>
<path d="M555.765 233.272L297.537 383.338C289.185 388.192 275.607 388.192 267.201 383.338L7.28266 233.275C3.05267 230.832 0.939742 227.627 0.948981 224.428L0.906891 239.335C0.897652 242.535 3.01061 245.74 7.24057 248.182L267.159 398.246C275.565 403.1 289.142 403.1 297.494 398.246L555.723 248.179C559.872 245.767 561.949 242.613 561.958 239.454L562 224.548C561.991 227.706 559.914 230.861 555.765 233.272Z" fill="#5889D6"/>
<path d="M554.717 215.701C563.124 220.555 563.169 228.419 554.817 233.272L296.588 383.339C288.236 388.193 274.659 388.193 266.252 383.339L6.33446 233.276C-2.07216 228.422 -2.11732 220.558 6.2349 215.704L264.464 65.6372C272.816 60.7833 286.394 60.7833 294.8 65.6372L554.717 215.701Z" fill="#F3FBFF"/>
<g style="mix-blend-mode:multiply" opacity="0.23">
<g style="mix-blend-mode:multiply" opacity="0.23">
<path d="M222.061 214.724L261.288 212.374C261.288 212.374 274.651 253.497 342.027 243.43L341.883 283.904L349.224 288.142H371.125L452.496 240.188L447.663 193.089L362.78 135.266L275.299 157.946L222.061 214.724Z" fill="#5889D6"/>
</g>
</g>
<g style="mix-blend-mode:multiply" opacity="0.23">
<g style="mix-blend-mode:multiply" opacity="0.23">
<path d="M505.829 230.546C505.829 233.587 503.539 236.556 499.425 238.989C497.886 239.884 496.17 240.635 494.309 241.244C490.445 242.568 485.972 243.283 481.286 243.283C476.599 243.283 472.163 242.568 468.263 241.244C466.403 240.635 464.685 239.848 463.111 238.953C458.961 236.592 456.599 233.48 456.563 230.475C456.563 227.469 458.854 224.464 463.004 222.066C467.762 219.276 474.202 217.774 481.107 217.774C488.012 217.774 494.488 219.276 499.282 222.066C503.432 224.464 505.829 227.576 505.829 230.546Z" fill="#5889D6"/>
</g>
</g>
<path d="M498.149 229.72C498.149 232.22 496.397 234.66 493.251 236.659C492.074 237.394 490.762 238.011 489.338 238.511C486.383 239.599 482.962 240.188 479.378 240.188C475.793 240.188 472.4 239.599 469.418 238.511C467.994 238.011 466.681 237.365 465.477 236.63C462.303 234.69 460.497 232.131 460.469 229.661C460.469 227.191 462.221 224.722 465.395 222.752C469.034 220.458 473.96 219.223 479.24 219.223C484.521 219.223 489.475 220.458 493.141 222.752C496.315 224.722 498.149 227.279 498.149 229.72Z" fill="#5889D6"/>
<path d="M497.414 228.61C497.414 230.845 495.731 233.028 492.707 234.816C491.576 235.474 490.314 236.026 488.947 236.473C486.107 237.446 482.82 237.971 479.375 237.971C475.93 237.971 472.67 237.446 469.804 236.473C468.436 236.026 467.174 235.448 466.017 234.79C462.967 233.055 461.231 230.766 461.204 228.558C461.204 226.35 462.887 224.14 465.938 222.378C469.435 220.327 474.168 219.223 479.243 219.223C484.319 219.223 489.078 220.327 492.601 222.378C495.652 224.14 497.414 226.428 497.414 228.61Z" fill="#6DB6F2"/>
<path d="M481.021 227.381C481.021 228.891 477.573 228.891 477.573 227.381V132.509H481.021V227.381Z" fill="#B8DCF4"/>
<path d="M493.727 115.827C501.746 120.457 501.78 127.956 493.82 132.581C485.854 137.21 472.916 137.21 464.897 132.581C456.886 127.956 456.837 120.458 464.804 115.828C472.763 111.203 485.716 111.202 493.727 115.827Z" fill="#5889D6"/>
<path d="M467.389 95.87L459.224 121.931H499.369L491.306 96.2076L467.389 95.87Z" fill="#5889D6"/>
<path d="M487.828 92.0772C492.565 94.812 492.585 99.241 487.883 101.974C483.177 104.709 475.534 104.709 470.797 101.974C466.064 99.241 466.035 94.812 470.741 92.0772C475.443 89.3444 483.095 89.3444 487.828 92.0772Z" fill="#6DB6F2"/>
<path d="M489.862 97.0367C489.862 98.34 488.881 99.6115 487.118 100.654C486.46 101.038 485.724 101.359 484.926 101.62C483.271 102.187 481.355 102.494 479.347 102.494C477.339 102.494 475.438 102.187 473.768 101.62C472.97 101.359 472.235 101.022 471.561 100.64C469.783 99.6279 468.771 98.2949 468.756 97.007C468.756 95.7191 469.737 94.4312 471.515 93.404C473.553 92.2085 476.313 91.5651 479.271 91.5651C482.23 91.5651 485.003 92.2085 487.057 93.404C488.835 94.4312 489.862 95.7643 489.862 97.0367Z" fill="#3F65AE"/>
<path d="M484.927 101.62C483.271 102.187 481.355 102.494 479.347 102.494C477.339 102.494 475.438 102.187 473.768 101.62C474.181 98.9065 476.527 96.8376 479.347 96.8376C482.183 96.8376 484.513 98.9065 484.927 101.62Z" fill="#FDE663"/>
<path d="M435.639 84.8586L440.417 82.0818L439.744 87.4385L434.966 90.2154L435.639 84.8586Z" fill="#5889D6"/>
<path d="M411.27 47.6242L416.048 44.8473L421.202 47.0413L416.424 49.8182L411.27 47.6242Z" fill="#5889D6"/>
<path d="M443.046 72.3258L438.268 75.1027C436.674 76.0293 434.464 75.9 432.031 74.4951L436.809 71.7183C439.242 73.1231 441.452 73.2524 443.046 72.3258Z" fill="#5889D6"/>
<path d="M425.86 53.7434L430.638 50.9665C428.741 52.0686 427.714 54.6649 428.2 58.3808C428.795 62.9001 431.707 67.9439 435.333 70.7269C435.832 71.1087 436.325 71.4391 436.809 71.7182L432.031 74.4951C431.547 74.216 431.054 73.8856 430.556 73.5038C426.929 70.7208 424.017 65.677 423.422 61.1576C422.936 57.4418 423.963 54.8455 425.86 53.7434Z" fill="#5889D6"/>
<path d="M445.813 82.5292L450.591 79.7523L453.565 85.9608L448.787 88.7377L445.813 82.5292Z" fill="#5889D6"/>
<path d="M415.235 40.489L420.013 37.7121L425.247 34.73L420.469 37.5069L415.235 40.489Z" fill="#5889D6"/>
<path d="M420.469 37.5069L425.247 34.73L429.255 40.5896L424.477 43.3665L420.469 37.5069Z" fill="#5889D6"/>
<path d="M447.556 79.3829L452.334 76.607C451.896 77.8323 451.309 78.879 450.591 79.7513L445.813 82.5282C446.531 81.6559 447.118 80.6082 447.556 79.3829Z" fill="#5889D6"/>
<path d="M424.477 43.3665L429.256 40.5906C430.492 40.5568 431.821 40.7589 433.214 41.1981L428.435 43.975C427.042 43.5358 425.713 43.3326 424.477 43.3665Z" fill="#5889D6"/>
<path d="M446.703 64.3932L451.481 61.6163C452.097 63.3834 452.568 65.168 452.86 66.9218L448.082 69.6987C447.791 67.9449 447.32 66.1603 446.703 64.3932Z" fill="#5889D6"/>
<path d="M437.07 49.341L441.848 46.5651C443.224 47.8663 444.506 49.3204 445.694 50.8782L440.916 53.6541C439.728 52.0963 438.446 50.6422 437.07 49.341Z" fill="#5889D6"/>
<path d="M452.784 73.1272L457.562 70.3503L457.537 78.8226L452.759 81.5995L452.784 73.1272Z" fill="#5889D6"/>
<path d="M448.082 69.6987L452.86 66.9228L457.562 70.3513L452.784 73.1272L448.082 69.6987Z" fill="#5889D6"/>
<path d="M429.065 39.0154L433.843 36.2385L441.215 40.4952L436.437 43.272L429.065 39.0154Z" fill="#5889D6"/>
<path d="M436.436 43.271L441.215 40.4952L441.848 46.5651L437.069 49.341L436.436 43.271Z" fill="#5889D6"/>
<path d="M449.81 61.5384L454.588 58.7615L451.481 61.6164L446.703 64.3933L449.81 61.5384Z" fill="#5889D6"/>
<path d="M440.916 53.6541L445.694 50.8772L449.39 49.7566L444.612 52.5335L440.916 53.6541Z" fill="#5889D6"/>
<path d="M452.759 81.5995L447.556 79.3839C447.118 80.6092 446.53 81.6569 445.812 82.5292L448.787 88.7387L443.561 91.7249L439.286 85.4703C438.137 85.4631 436.917 85.264 435.639 84.8587L434.966 90.2164L427.593 85.9598L426.897 79.347C425.672 78.175 424.511 76.8656 423.432 75.4782L419.418 76.6984L414.22 67.6935L417.501 64.6806C416.906 63.0171 416.456 61.3362 416.143 59.6697L411.247 56.1046L411.27 47.6242L416.424 49.8182C416.839 48.5385 417.426 47.4589 418.138 46.5405L415.236 40.489L420.469 37.5069L424.477 43.3675C425.713 43.3336 427.042 43.5358 428.435 43.975L429.064 39.0154L436.436 43.2721L437.069 49.342C438.445 50.6432 439.728 52.0974 440.916 53.6551L444.611 52.5335L449.81 61.5384L446.702 64.3943C447.319 66.1614 447.791 67.9449 448.082 69.6987L452.783 73.1272L452.759 81.5995ZM432.031 74.4961C437.354 77.5696 441.597 74.5392 440.71 67.7017C440.123 63.1782 437.196 58.117 433.562 55.3381C433.066 54.9584 432.576 54.631 432.095 54.3529C426.759 51.2723 422.528 54.3201 423.423 61.1576C424.017 65.677 426.929 70.7218 430.556 73.5048C431.054 73.8866 431.547 74.217 432.031 74.4961Z" fill="#D4EFF9"/>
<path d="M444.611 52.5335L449.389 49.7576L454.588 58.7625L449.81 61.5383L444.611 52.5335Z" fill="#5889D6"/>
<path d="M404.21 32.6286L406.875 31.079L406.501 34.0673L403.836 35.6169L404.21 32.6286Z" fill="#5889D6"/>
<path d="M390.619 11.8594L393.284 10.3109L396.158 11.5352L393.493 13.0837L390.619 11.8594Z" fill="#5889D6"/>
<path d="M408.341 25.6371L405.676 27.1867C404.786 27.7039 403.556 27.6321 402.198 26.848L404.863 25.2985C406.221 26.0825 407.451 26.1543 408.341 25.6371Z" fill="#5889D6"/>
<path d="M398.755 15.2736L401.42 13.724C400.362 14.3387 399.791 15.7867 400.062 17.8596C400.393 20.3799 402.018 23.1938 404.04 24.7464C404.318 24.9598 404.593 25.1435 404.863 25.2995L402.198 26.8491C401.928 26.6931 401.653 26.5094 401.375 26.296C399.353 24.7433 397.727 21.9295 397.396 19.4092C397.125 17.3362 397.697 15.8883 398.755 15.2736Z" fill="#5889D6"/>
<path d="M409.884 31.3284L412.549 29.7799L414.209 33.2433L411.544 34.7918L409.884 31.3284Z" fill="#5889D6"/>
<path d="M392.83 7.87984L395.495 6.33131L398.415 4.66785L395.749 6.21638L392.83 7.87984Z" fill="#5889D6"/>
<path d="M395.748 6.21638L398.413 4.66785L400.65 7.93628L397.984 9.48481L395.748 6.21638Z" fill="#5889D6"/>
<path d="M410.857 29.5747L413.522 28.0261C413.278 28.7096 412.951 29.2935 412.55 29.7799L409.885 31.3284C410.285 30.842 410.613 30.2581 410.857 29.5747Z" fill="#5889D6"/>
<path d="M397.984 9.48483L400.65 7.9363C401.339 7.91783 402.08 8.03071 402.857 8.27598L400.192 9.8245C399.415 9.57924 398.674 9.46636 397.984 9.48483Z" fill="#5889D6"/>
<path d="M410.382 21.2132L413.047 19.6646C413.391 20.6508 413.654 21.6452 413.816 22.6232L411.151 24.1717C410.989 23.1937 410.726 22.1993 410.382 21.2132Z" fill="#5889D6"/>
<path d="M405.008 12.8179L407.673 11.2683C408.44 11.9939 409.156 12.8046 409.819 13.6737L407.154 15.2233C406.491 14.3541 405.775 13.5434 405.008 12.8179Z" fill="#5889D6"/>
<path d="M413.772 26.0845L416.438 24.536L416.424 29.2616L413.759 30.8102L413.772 26.0845Z" fill="#5889D6"/>
<path d="M411.151 24.1728L413.816 22.6242L416.437 24.536L413.772 26.0846L411.151 24.1728Z" fill="#5889D6"/>
<path d="M400.543 7.05784L403.208 5.50931L407.32 7.8829L404.655 9.43143L400.543 7.05784Z" fill="#5889D6"/>
<path d="M404.655 9.43247L407.32 7.88394L407.674 11.2694L405.009 12.8179L404.655 9.43247Z" fill="#5889D6"/>
<path d="M412.114 19.6216L414.779 18.072L413.046 19.6647L410.381 21.2142L412.114 19.6216Z" fill="#5889D6"/>
<path d="M407.154 15.2233L409.819 13.6748L411.88 13.0498L409.215 14.5984L407.154 15.2233Z" fill="#5889D6"/>
<path d="M413.759 30.8102L410.857 29.5747C410.613 30.2581 410.284 30.842 409.884 31.3284L411.544 34.7918L408.629 36.4574L406.244 32.9693C405.604 32.9652 404.924 32.8544 404.21 32.6286L403.835 35.6169L399.723 33.2423L399.334 29.5541C398.65 28.9004 398.004 28.1698 397.402 27.396L395.162 28.0764L392.263 23.0542L394.093 21.3733C393.762 20.4456 393.51 19.5087 393.336 18.579L390.605 16.5902L390.618 11.8594L393.493 13.0837C393.725 12.3705 394.053 11.7681 394.449 11.256L392.83 7.88087L395.748 6.21741L397.984 9.48584C398.674 9.46737 399.415 9.57923 400.192 9.82449L400.543 7.05786L404.655 9.43248L405.008 12.8179C405.775 13.5434 406.491 14.3541 407.154 15.2233L409.215 14.5983L412.114 19.6206L410.381 21.2132C410.725 22.1994 410.988 23.1948 411.151 24.1728L413.773 26.0846L413.759 30.8102ZM402.198 26.8481C405.167 28.5618 407.534 26.8717 407.039 23.0583C406.711 20.5349 405.079 17.7118 403.052 16.1623C402.775 15.9509 402.502 15.7682 402.233 15.6133C399.257 13.8954 396.898 15.5938 397.396 19.4081C397.728 21.9285 399.352 24.7423 401.375 26.2949C401.653 26.5084 401.928 26.6921 402.198 26.8481Z" fill="#B8DCF4"/>
<path d="M409.215 14.5973L411.88 13.0488L414.779 18.072L412.114 19.6206L409.215 14.5973Z" fill="#5889D6"/>
<g style="mix-blend-mode:multiply" opacity="0.23">
<g style="mix-blend-mode:multiply" opacity="0.23">
<path d="M266.162 357.322C256.615 351.811 256.574 342.883 266.05 337.375C275.535 331.863 290.942 331.862 300.488 337.374C310.027 342.882 310.085 351.811 300.6 357.322C291.124 362.83 275.701 362.83 266.162 357.322Z" fill="#5889D6"/>
</g>
</g>
<path d="M265.011 330.221C256.992 325.592 256.958 318.093 264.917 313.468C272.884 308.838 285.822 308.838 293.841 313.468C301.852 318.093 301.9 325.591 293.934 330.22C285.975 334.845 273.022 334.846 265.011 330.221Z" fill="#5889D6"/>
<path d="M291.349 350.179L299.514 324.118H259.369L267.432 349.841L291.349 350.179Z" fill="#5889D6"/>
<path d="M287.941 344.09C292.678 346.825 292.698 351.254 287.996 353.987C283.29 356.722 275.647 356.722 270.91 353.987C266.177 351.254 266.149 346.825 270.855 344.09C275.557 341.358 283.208 341.358 287.941 344.09Z" fill="#5889D6"/>
<path d="M296.959 324.302C296.672 325.01 296.251 325.708 295.687 326.375C294.845 327.412 293.686 328.376 292.208 329.228C289.971 330.531 287.282 331.414 284.43 331.886C281.813 332.317 279.063 332.399 276.394 332.132C272.854 331.783 269.457 330.808 266.717 329.228C266.05 328.848 265.455 328.438 264.911 328.007C263.444 326.857 262.438 325.564 261.894 324.23C261.135 322.383 261.258 320.434 262.264 318.627C263.095 317.109 264.552 315.672 266.635 314.461C266.779 314.379 266.923 314.297 267.066 314.225C269.611 312.829 272.68 311.957 275.881 311.608C276.025 311.577 276.158 311.567 276.302 311.557C278.755 311.3 281.269 311.352 283.691 311.701C284.163 311.772 284.645 311.855 285.117 311.947C286.667 312.244 288.155 312.665 289.54 313.219C290.453 313.579 291.315 313.989 292.126 314.461C294.209 315.672 295.687 317.098 296.549 318.617C297.596 320.454 297.729 322.424 296.959 324.302Z" fill="#3F65AE"/>
<path d="M296.96 324.302C296.222 326.108 294.641 327.822 292.209 329.228C285.2 333.302 273.779 333.302 266.718 329.228C264.256 327.802 262.644 326.057 261.895 324.23C262.634 322.424 264.214 320.711 266.636 319.305C273.655 315.231 285.067 315.231 292.127 319.305C294.6 320.731 296.222 322.465 296.96 324.302Z" fill="#87444D"/>
<path d="M272.228 328.515C272.228 328.515 263.029 312.32 267.272 298.167C271.515 284.014 259.128 279.55 261.757 269.598C264.387 259.645 265.604 260.619 265.35 255.254C265.095 249.89 271.547 245.485 275.112 258.035C278.677 270.585 271.609 272.396 277.48 280.325C283.351 288.253 283.978 294.011 281.432 302.005C278.887 309.999 290.486 315.304 286.982 329.455L272.228 328.515Z" fill="#2C869B"/>
<path d="M276.386 317.405C276.386 317.405 273.876 303.14 279.883 293.874C285.89 284.609 281.819 281.927 281.539 276.928C281.258 271.929 286.514 272.416 287.667 266.808C288.819 261.2 289.673 256.567 292.965 257.299C296.257 258.032 300.157 267.542 298.084 271.931C296.01 276.319 291.705 278.636 293.327 282.903C294.949 287.17 296.617 292.78 292.105 299.363C287.593 305.946 290.652 315.288 289.055 318.383C287.457 321.478 276.386 317.405 276.386 317.405Z" fill="#32BAB6"/>
<path d="M313.081 285.748C309.636 298.447 299.991 295.965 298.068 299.509C296.134 303.064 302.701 304.298 299.709 311.689C298.601 314.437 297.355 316.581 296.436 318.538C295.213 321.133 294.584 323.395 295.632 326.302C294.798 327.345 293.646 328.318 292.175 329.181C290.407 330.231 288.34 331.016 286.138 331.535C285.8 331.62 285.451 331.705 285.093 331.769C284.867 331.812 284.642 331.854 284.416 331.897C281.803 332.348 279.053 332.451 276.383 332.204C276.396 331.219 276.48 330.099 276.697 328.866C277.199 326.01 278.373 322.542 280.88 318.829C280.961 318.705 281.043 318.592 281.134 318.468L281.134 318.458C282.535 316.446 283.579 314.735 284.338 313.241C284.57 312.798 284.783 312.365 284.954 311.954C287.093 307.094 286.006 304.516 284.895 299.978C283.465 294.088 284.896 289.274 294.301 287.172C294.813 287.055 295.346 286.948 295.9 286.852C306.732 284.933 304.649 272.645 307.227 270.183C310.457 267.111 316.515 273.038 313.081 285.748Z" fill="#41D8D2"/>
<path d="M310.226 276.072C310.167 276.535 308.843 287.371 300.811 291.896C299.789 292.468 298.839 292.998 297.98 293.467C291.838 296.838 290.439 297.751 291.733 300.677C293.592 304.922 293.93 307.618 289.642 317.348C286.655 324.113 286.16 329.155 286.137 331.536C285.799 331.621 285.45 331.706 285.092 331.77C285.094 329.369 285.527 324.111 288.705 316.934C293.044 307.091 292.442 304.848 290.792 301.094C289.08 297.187 291.706 295.741 297.481 292.567C298.339 292.099 299.29 291.579 300.312 290.996C307.874 286.732 309.189 276.07 309.198 275.957C309.237 275.68 309.492 275.462 309.77 275.511C310.057 275.54 310.254 275.795 310.226 276.072Z" fill="#32BAB6"/>
<path d="M284.471 332.068C281.843 332.424 279.091 332.426 276.432 332.083C276.013 332.03 275.594 331.966 275.175 331.893C272.11 331.373 269.213 330.365 266.843 328.901C266.187 328.502 265.604 328.075 265.073 327.628C264.207 325.252 263.282 322.074 262.697 318.176C262.222 315.041 261.977 311.441 262.145 307.422C262.817 291.59 243.373 284.808 249.085 278.638C252.974 274.428 263.856 281.569 269.43 290.826C271.35 294.013 272.647 297.459 272.798 300.779C272.987 304.901 274.571 307.986 276.52 310.896C276.647 311.105 276.785 311.314 276.933 311.513C278.5 313.786 280.243 315.982 281.679 318.519L281.679 318.529C281.777 318.696 281.875 318.863 281.952 319.029C283.502 321.887 284.608 325.184 284.596 329.495C284.604 330.317 284.569 331.168 284.471 332.068Z" fill="#41D8D2"/>
<path d="M276.432 332.083C276.013 332.03 275.593 331.966 275.175 331.892C273.505 328.58 269.61 319.803 268.085 307.182C266.171 291.348 254.486 283.568 254.366 283.482C254.134 283.332 254.061 283.011 254.222 282.78C254.372 282.538 254.693 282.475 254.935 282.626C255.056 282.701 267.123 290.729 269.105 307.058C270.739 320.533 275.078 329.539 276.432 332.083Z" fill="#32BAB6"/>
<path d="M295.438 196.914C295.438 196.914 290.361 203.365 284.35 207.587C278.34 211.809 279.769 216.843 286.148 217.365C291.099 217.771 294.578 216.397 298.749 212.672C302.919 208.947 304.82 209.264 305.897 207.688C306.975 206.113 305.797 199.432 305.797 199.432L295.438 196.914Z" fill="#5E99D0"/>
<path d="M322.427 215.24C322.427 215.24 320.213 219.408 314.657 224.488C309.101 229.569 308.415 232.86 312.845 235.377C317.275 237.894 324.378 235.88 328.176 231.551C331.974 227.221 333.787 226.033 335.399 224.965C337.01 223.898 335.399 216.146 335.399 216.146L322.427 215.24Z" fill="#5E99D0"/>
<path d="M337.835 133.999C337.835 133.999 315.726 141.352 308.75 146.585C301.774 151.816 294.121 196.378 294.121 196.378C292.622 200.269 305.686 205.304 307.185 201.412L322.793 161.631L357.252 145.209L337.835 133.999Z" fill="#2B529E"/>
<path d="M352.415 138.718C352.415 138.718 335.002 152.116 329.358 160.245C323.714 168.375 321.514 214.596 321.514 214.596C320.409 220.913 335.319 223.556 336.854 218.171L348.265 170.057C348.265 170.057 375.668 158.116 376.742 143.474L352.415 138.718Z" fill="#3F65AE"/>
<path d="M320.993 198.121L320.678 198.063C319.342 197.813 318.461 196.528 318.71 195.191L328.719 141.542L333.872 142.503L323.864 196.153C323.615 197.489 322.329 198.371 320.993 198.121Z" fill="#B8DCF4"/>
<path d="M362.24 218.668H361.92C360.561 218.668 359.459 217.566 359.459 216.207V161.632H364.701V216.207C364.701 217.567 363.598 218.668 362.24 218.668Z" fill="#B8DCF4"/>
<path d="M405.083 205.461L404.765 205.501C403.417 205.671 402.186 204.716 402.016 203.367L395.19 149.22L400.392 148.564L407.218 202.711C407.388 204.06 406.432 205.29 405.083 205.461Z" fill="#3E64AD"/>
<path d="M366.809 66.7178L370.852 64.6346C371.753 64.1708 372.828 64.2016 373.7 64.7178L415.085 89.1854C416.076 89.7713 416.571 90.933 416.307 92.0536L402.544 150.562C401.948 153.094 400.315 155.258 398.044 156.525L363.097 176.022C361.964 176.654 360.581 176.636 359.466 175.974L322.269 153.908C320.877 153.081 320.022 151.582 320.022 149.963V144.788L357.95 131.485L366.809 66.7178Z" fill="#302665"/>
<path d="M320.023 144.575L352.389 125.518L366.809 66.7178L410.589 92.3697L397.669 148.591L361.779 168.551L320.023 144.575Z" fill="#443D89"/>
<path d="M363.873 86.1483C363.873 86.1483 385.84 99.6635 391.882 124.747C393.153 130.022 391.278 139.918 386.445 146.466C381.612 153.015 370.941 159.989 370.941 159.989L351.81 144.321L363.873 86.1483Z" fill="#302665"/>
<path d="M222.291 149.736L274.47 119.185L274.239 184.174L222.06 214.724L222.291 149.736Z" fill="#1D1944"/>
<path d="M349.481 214.265L401.66 183.714L401.404 257.591L349.225 288.142L349.481 214.265Z" fill="#302665"/>
<path d="M214.97 136.606L267.149 106.055L401.66 183.714L349.481 214.265L214.97 136.606Z" fill="#DC006E"/>
<path d="M349.481 214.265L349.225 288.142L341.884 283.904L342.115 218.915L222.292 149.735L222.061 214.724L214.715 210.483L214.97 136.606L349.481 214.265Z" fill="#443D89"/>
<path d="M208.252 127.66L267.137 93.1824L408.378 174.727L349.493 209.204L208.252 127.66Z" fill="#D4EFF9"/>
<g style="mix-blend-mode:multiply" opacity="0.23">
<g style="mix-blend-mode:multiply" opacity="0.23">
<path d="M313.178 162.913L317.309 163.11L339.979 151.726L359.989 146.79L327.545 128.045L309.859 133.999L306.352 152.814L313.178 162.913Z" fill="#5889D6"/>
</g>
</g>
<g style="mix-blend-mode:multiply" opacity="0.23">
<g style="mix-blend-mode:multiply" opacity="0.23">
<path d="M246.025 131.686H256.985L281.474 117.634L268.643 110.477L254.447 118.279L246.025 131.686Z" fill="#5889D6"/>
</g>
</g>
<g style="mix-blend-mode:multiply" opacity="0.23">
<g style="mix-blend-mode:multiply" opacity="0.23">
<path d="M377.686 178.59L381.777 176.2C384.545 174.582 384.612 170.607 381.9 168.898L378.105 166.507L377.686 178.59Z" fill="#5889D6"/>
</g>
</g>
<path d="M349.492 218.171V209.204L208.251 127.658V136.625L349.492 218.171Z" fill="#5889D6"/>
<path d="M408.377 174.727V183.694L349.492 218.171V209.204L408.377 174.086" fill="#3F65AE"/>
<g style="mix-blend-mode:multiply" opacity="0.23">
<g style="mix-blend-mode:multiply" opacity="0.23">
<path d="M322.675 173.937L348.075 159.076L368.15 170.552L342.752 185.472L322.675 173.937Z" fill="#5889D6"/>
</g>
</g>
<g style="mix-blend-mode:multiply" opacity="0.23">
<g style="mix-blend-mode:multiply" opacity="0.23">
<path d="M324.711 176.293L346.816 159.649L366.889 171.124L344.787 187.828L324.711 176.293Z" fill="#5889D6"/>
</g>
</g>
<path d="M322.428 172.67L347.828 157.809L367.901 169.285L342.505 184.205L322.428 172.67Z" fill="#E2E3E8"/>
<path d="M324.323 175.203L346.428 158.559L366.501 170.034L344.4 186.739L324.323 175.203Z" fill="white"/>
<path d="M241.697 129.136V100.945L246.328 97.8229L257.906 112.019L263.616 109.007V116.634L241.697 129.136Z" fill="#2C869B"/>
<path d="M267.946 119.184L263.617 117.054V109.008L267.946 111.558V119.184Z" fill="#2C869B"/>
<path d="M263.48 86.1489L244.249 97.124V128.33L263.48 117.354V86.1489Z" fill="#BCBFC9"/>
<path d="M264.92 86.9554L245.689 97.9306V129.136L264.92 118.161V86.9554Z" fill="#E2E3E8"/>
<path d="M266.263 87.6943L247.032 98.6694V129.875L266.263 118.9V87.6943Z" fill="white"/>
<path d="M241.697 100.911L246.025 103.394V131.686L241.697 129.203V100.911Z" fill="#37B8BF"/>
<path d="M246.026 131.687V103.496L250.657 100.374L262.236 114.57L267.946 111.559V119.185L246.026 131.687Z" fill="#41D8D2"/>
<path d="M369.425 165.408V176.254C369.425 177.848 371.757 179.141 374.632 179.141C377.507 179.141 379.839 177.848 379.839 176.254V165.408H369.425Z" fill="#41D8D2"/>
<path d="M379.839 165.408C379.839 167.002 377.507 168.295 374.632 168.295C371.757 168.295 369.425 167.002 369.425 165.408C369.425 163.814 371.757 162.521 374.632 162.521C377.507 162.521 379.839 163.814 379.839 165.408Z" fill="#AAE8E3"/>
<path d="M379.126 165.405C379.126 166.275 378.143 167.044 376.719 167.439C376.403 167.529 376.052 167.597 375.691 167.642C375.612 167.653 375.533 167.665 375.454 167.665C375.183 167.699 374.911 167.71 374.629 167.71H374.527C374.143 167.71 373.781 167.676 373.431 167.62C373.285 167.608 373.137 167.574 372.99 167.552C372.516 167.45 372.086 167.314 371.702 167.144C370.742 166.715 370.132 166.095 370.132 165.405C370.132 164.942 370.414 164.511 370.888 164.15C371.171 163.936 371.522 163.744 371.917 163.586C372.312 163.428 372.777 163.302 373.262 163.223C373.623 163.167 374.008 163.122 374.403 163.11H374.629C374.832 163.11 375.036 163.122 375.228 163.133C375.623 163.156 375.997 163.213 376.358 163.292C376.482 163.315 376.618 163.349 376.742 163.394C377.137 163.495 377.488 163.642 377.804 163.8C378.606 164.206 379.126 164.783 379.126 165.405Z" fill="#2C869B"/>
<path d="M379.364 158.523C379.364 158.569 379.352 158.625 379.341 158.681L377.804 163.8L376.719 167.438C376.403 167.528 376.052 167.596 375.691 167.641C375.612 167.652 375.533 167.664 375.454 167.664L375.929 166.082L376.742 163.393L378.245 158.354C378.336 158.049 378.652 157.879 378.956 157.969C379.193 158.048 379.364 158.275 379.364 158.523Z" fill="#3F65AE"/>
<path d="M374.573 167.709H374.527C374.144 167.709 373.781 167.675 373.431 167.619L373.262 163.223L373.025 156.704C373.014 156.388 373.263 156.128 373.579 156.117C373.59 156.117 373.59 156.117 373.602 156.117C373.907 156.117 374.155 156.365 374.166 156.67L374.403 163.11L374.561 167.438L374.573 167.709Z" fill="#3F65AE"/>
<path d="M372.99 167.552C372.516 167.45 372.086 167.314 371.702 167.144L370.888 164.151L369.284 158.219C369.194 157.914 369.375 157.597 369.68 157.518C369.725 157.506 369.781 157.495 369.826 157.495C370.075 157.495 370.313 157.665 370.38 157.925L371.917 163.586L372.99 167.552Z" fill="#5889D6"/>
<path d="M376.742 160.806C376.742 160.839 376.742 160.873 376.731 160.907L376.358 163.291L375.928 166.082L375.691 167.641C375.612 167.652 375.533 167.664 375.454 167.664C375.183 167.698 374.911 167.709 374.629 167.709H374.527L374.561 167.438L375.228 163.133L375.601 160.727C375.657 160.422 375.94 160.206 376.256 160.251C376.539 160.297 376.742 160.535 376.742 160.806Z" fill="#5889D6"/>
<path d="M141.146 5.42039C141.133 0.559159 137.687 -1.38915 133.457 1.0532L56.1269 45.7C51.896 48.1424 48.4759 54.0547 48.4891 58.916L48.6444 113.948C48.6576 118.809 52.1027 120.772 56.3336 118.33L133.663 73.6829C137.894 71.2406 141.314 65.3136 141.301 60.4523L141.146 5.42039Z" fill="#9FD8FF"/>
<path d="M69.3927 47.8551L69.4308 61.6823L80.2909 61.4624C78.3528 67.2165 74.2451 72.7814 69.4704 75.5389C62.8338 79.371 57.4199 76.2851 57.3979 68.6297C57.3759 61.0036 62.7561 51.6872 69.3927 47.8551Z" fill="#F3FBFF"/>
<path d="M81.4769 54.7262C81.4827 56.8944 81.0072 59.9938 79.6179 62.9739L69.4323 61.6809L81.4769 54.7262Z" fill="#D8483D"/>
<path d="M68.1906 48.671C75.746 43.3913 81.4564 47.1001 81.4784 54.7262L69.4323 61.6809L68.1906 48.671Z" fill="#FEE46B"/>
<path d="M97.3272 33.4605L97.339 37.6957L93.6652 39.817L93.6534 35.5818L97.3272 33.4605Z" fill="#5889D6"/>
<path d="M132.797 58.8325L132.804 61.1326L100.302 79.8988L100.294 77.5987L132.797 58.8325Z" fill="#6DB6F2"/>
<path d="M132.782 53.7953L132.79 56.0954L100.287 74.8616L100.28 72.5615L132.782 53.7953Z" fill="#6DB6F2"/>
<path d="M131.457 33.6994L131.464 36.6534L101.495 53.9565L101.488 51.0026L131.457 33.6994Z" fill="#5889D6"/>
<path d="M131.431 24.1221L131.438 27.0761L101.469 44.3792L101.461 41.4253L131.431 24.1221Z" fill="#5889D6"/>
<path d="M131.403 14.5316L131.41 17.4856L101.441 34.7887L101.433 31.8347L131.403 14.5316Z" fill="#5889D6"/>
<path d="M97.3551 43.0378L97.3668 47.2731L93.693 49.3944L93.6813 45.1591L97.3551 43.0378Z" fill="#5889D6"/>
<path d="M74.015 80.8883L74.0253 84.0622L58.8112 92.845L58.8024 89.6711L74.015 80.8883Z" fill="#5889D6"/>
<path d="M91.324 77.7321L91.3313 80.0322L58.8287 98.7984L58.8214 96.4982L91.324 77.7321Z" fill="#6DB6F2"/>
<path d="M91.3386 82.7678L91.3459 85.0679L58.8434 103.834L58.8361 101.534L91.3386 82.7678Z" fill="#6DB6F2"/>
<path d="M115.475 56.9531L115.484 60.1269L100.271 68.9097L100.261 65.7358L115.475 56.9531Z" fill="#5889D6"/>
<path d="M97.3815 52.6299L97.3933 56.8505L93.7195 58.9718L93.7078 54.7512L97.3815 52.6299Z" fill="#5889D6"/>
<path d="M319.453 162.334L342.644 149.535L343.656 151.055L320.019 164.142L319.453 162.334Z" fill="#5889D6"/>
<path d="M342.643 149.535L310.995 130.994L299.052 137.988L319.453 162.334L342.643 149.535Z" fill="white"/>
<path d="M317.291 159.582L330.993 152.596L306.019 137.607L304.371 144.447L317.291 159.582Z" fill="#6DB6F2"/>
<path d="M313.294 130.233L309.91 132.045C309.91 132.045 306.685 132.284 304.829 132.414C302.974 132.544 301.766 133.287 300.369 135.609C298.972 137.931 297.771 139.481 299.064 140.599C300.356 141.717 301.506 141.553 303.425 140.939C305.343 140.326 307.399 138.594 307.399 138.594C307.399 138.594 308.823 138.754 310.963 138.336C313.104 137.918 313.286 136.946 313.286 136.946L316.548 135.422C318.157 133.916 314.904 128.727 313.294 130.233Z" fill="#FD958D"/>
<path d="M330.376 111.875L312.418 129.078C309.501 131.558 314.07 137.822 318.637 135.622L337.943 120.795L330.376 111.875Z" fill="#D8483D"/>
<path d="M340.291 116.066C340.257 112.853 337.626 110.335 334.412 110.308C331.094 110.282 328.523 112.917 328.655 116.187C328.786 119.398 331.32 121.977 334.533 121.944C337.746 121.911 340.324 119.279 340.291 116.066Z" fill="#D8483D"/>
<path d="M343.13 85.18C343.13 85.18 339.355 86.6277 336.881 93.7679C334.407 100.908 329.362 113.187 329.362 113.187L339.444 119.152L350.82 100.838L343.13 85.18Z" fill="#D8483D"/>
<path d="M376.755 143.583C376.755 143.583 371.078 146.421 363.542 146.3C359.847 146.234 355.683 145.465 351.537 143.272C345.464 140.063 342.087 137.773 340.209 136.26C338.184 134.621 337.906 133.885 337.906 133.885L340.329 118.769C340.329 118.769 338.162 96.0106 340.04 89.7047C341.617 84.4481 348.943 79.9698 358.792 82.5331C358.792 82.5331 361.108 82.7277 364.449 85.2997C368.083 88.1001 372.866 93.4601 375.465 97.4523C380.898 105.822 376.755 143.583 376.755 143.583Z" fill="#D8483D"/>
<path d="M366.473 139.559L375.333 135.36C374.655 141.322 367.607 144.775 363.542 146.3C359.847 146.234 355.683 145.464 351.537 143.272C345.464 140.063 342.087 137.772 340.209 136.259C341.064 134.987 342.369 133.785 344.33 132.802C352.715 128.623 356.253 126.327 356.253 126.327C356.253 126.327 341.892 120.302 342.394 119.277C342.908 118.24 358.097 123.809 358.097 123.809C360.481 115.943 363.921 109.081 367.09 104.275C367.09 104.275 376.747 98.5441 377.451 104.039C378.155 109.535 375.908 123.409 374.667 129.141C373.472 134.694 366.881 139.279 366.473 139.559Z" fill="#B2323F"/>
<path d="M360.042 125.666C360.042 125.666 365.88 102.714 369.722 100.417C373.563 98.1206 377.228 97.5833 377.429 104.046C377.533 107.431 376.689 112.012 374.608 119.242C373.087 124.524 371.9 127.609 370.998 130.26L360.042 125.666Z" fill="#D8483D"/>
<path d="M337.626 140.877L334.247 142.696C334.247 142.696 331.022 142.943 329.167 143.077C327.311 143.212 326.105 143.957 324.713 146.283C323.322 148.607 322.127 150.161 323.421 151.275C324.715 152.39 325.866 152.225 327.783 151.606C329.7 150.988 331.75 149.251 331.75 149.251C331.75 149.251 333.175 149.408 335.315 148.985C337.453 148.562 337.634 147.59 337.634 147.59L340.892 146.058C342.498 144.549 339.232 139.368 337.626 140.877Z" fill="#FD958D"/>
<path d="M369.466 132.375C365.673 135.86 342.735 147.393 342.735 147.393C339.585 149.159 334.823 140.664 337.973 138.899L362.194 123.027" fill="#D8483D"/>
<path d="M371.467 128.089C371.549 124.811 368.957 122.085 365.678 122.003C362.399 121.921 359.674 124.514 359.592 127.792C359.51 131.071 362.102 133.797 365.381 133.879C368.66 133.961 371.385 131.368 371.467 128.089Z" fill="#D8483D"/>
<path d="M362.705 86.0133C362.025 88.2805 356.008 95.3759 351.243 94.8524C350.576 94.781 350.013 94.5746 349.552 94.2898C349.54 94.2898 349.54 94.2898 349.54 94.2898C346.736 92.5449 347.454 87.5892 347.454 87.5892L350.684 85.7991C350.684 85.7991 357.522 75.3855 358.76 76.1159C358.85 76.1729 358.917 76.2974 358.939 76.5008C358.95 76.5573 358.949 76.625 358.949 76.704C358.946 77.3023 359.056 77.9812 359.232 78.6718C360.106 82.0437 362.705 86.0133 362.705 86.0133Z" fill="#FD958D"/>
<path d="M359.232 78.6718L359.232 78.7395C359.087 90.4673 349.835 94.1785 349.552 94.2898C349.54 94.2897 349.54 94.2897 349.54 94.2897C346.736 92.5448 347.454 87.5881 347.454 87.5881L350.684 85.7991C350.684 85.7991 357.522 75.3844 358.76 76.1149C358.827 76.2281 358.884 76.3537 358.94 76.5007C359.129 77.021 359.238 77.7338 359.232 78.6718Z" fill="#CE5555"/>
<path d="M338.631 72.4934C337.763 67.8836 339.624 65.8728 339.785 65.7426C346.431 60.3442 355.595 65.8297 356.142 66.2569C356.604 66.6182 358.239 70.3953 358.92 72.2828C359.459 71.2192 360.152 70.9 360.804 70.9994C361.801 71.1512 362.401 71.7831 362.426 73.4581C362.452 75.1331 361.884 78.3024 360.211 79.0965C359.858 79.2637 359.566 79.066 359.384 78.8785C359.497 82.611 353.985 89.4942 347.381 88.5896C342.773 87.9589 339.499 77.1031 338.631 72.4934Z" fill="#FD958D"/>
<path d="M348.039 54.742C358.483 52.1126 359.696 58.7231 359.696 58.7231C359.696 58.7231 363.631 58.7087 363.573 69.0292C363.556 72.012 362.71 73.6361 362.349 74.7598C362.414 74.2811 362.437 73.8279 362.431 73.4582C362.405 71.7832 361.801 71.1543 360.804 70.9994C359.943 70.8677 358.998 71.4616 358.453 73.5587C357.674 74.7832 357.702 76.9685 357.702 76.9685C357.702 76.9685 357.394 77.1173 357.043 76.7549C356.688 76.3871 355.826 74.9784 355.576 74.1967C355.453 73.8084 355.223 74.0312 353.928 72.7505C352.694 71.5299 352.297 69.5946 351.926 69.0006C349.641 71.6982 340.77 74.2298 338.879 69.8124C338.528 71.1653 339.313 75.3643 339.271 75.5613C339.233 75.4074 337.181 73.5399 337.156 69.1887C337.156 69.1887 336.102 65.2196 337.91 62.0105C340.226 57.8992 345.624 55.3501 348.039 54.742Z" fill="#302665"/>
<path d="M360.99 82.7517C360.99 82.7517 360.688 91.755 349.542 94.2888L353.329 99.8772C353.329 99.8772 362.457 93.7363 364.452 85.2997L360.99 82.7517Z" fill="#E3F6FD"/>
<path d="M349.292 94.1211L344.587 96.9086C344.587 96.9086 342.865 91.618 345.235 87.5757C345.235 87.5757 346.387 88.5335 347.448 88.5938C347.448 88.5938 347.178 92.3924 349.292 94.1211Z" fill="#E3F6FD"/>
<path d="M320.019 164.143L318.095 165.256L288.061 148.185C287.024 147.588 286.242 146.608 285.887 145.471L278.36 123.366L278.942 122.775C279.417 122.292 280.156 122.185 280.748 122.514L311.166 139.404C311.782 139.738 312.228 140.286 312.436 140.937L320.019 164.143Z" fill="#5889D6"/>
<path d="M318.094 165.256L288.06 148.185C287.023 147.588 286.241 146.607 285.886 145.47L278.36 123.365L309.289 140.435C309.89 140.769 310.336 141.318 310.558 141.969L318.094 165.256Z" fill="#6DB6F2"/>
<g style="mix-blend-mode:multiply" opacity="0.23">
<g style="mix-blend-mode:multiply">
<g style="mix-blend-mode:multiply">
<path d="M103.686 240.146C103.686 253.033 122.524 263.481 145.763 263.481C169.001 263.481 187.84 253.033 187.84 240.146C187.84 227.259 169.001 216.811 145.763 216.811C122.524 216.811 103.686 227.259 103.686 240.146Z" fill="#5889D6"/>
</g>
</g>
</g>
<path d="M141.664 53.7098C141.664 53.7098 137.562 53.9313 134.082 57.6555C131.14 60.8034 130.114 65.655 131.255 69.6227C132.396 73.5904 128.505 73.4655 128.694 80.1115C128.883 86.7575 132.13 86.8113 128.852 89.653C125.17 92.8443 128.418 97.7244 128.418 97.7244L158.312 87.4479C158.312 87.4479 160.216 85.3192 159.14 80.7432C158.065 76.1672 154.868 75.0742 155.491 71.0377C156.115 67.0013 154.65 61.0368 154.65 61.0368L141.664 53.7098Z" fill="#443D89"/>
<path d="M197.361 106.353L200.571 106.648C200.571 106.648 203.306 105.052 205.357 104.659C207.409 104.266 210.058 103.536 209.817 104.21C209.576 104.885 206.813 105.786 206.404 106.315C205.996 106.844 208.866 109.676 211.321 109.422C213.776 109.169 215.438 108.745 214.455 109.974C213.472 111.203 210.091 114.076 206.782 113.862C203.473 113.649 200.802 111.787 200.291 111.844C199.781 111.902 197.251 112.027 197.251 112.027C195.696 111.989 195.806 106.315 197.361 106.353Z" fill="#FFBBA9"/>
<path d="M198.128 111.893C199.623 111.418 200.447 109.822 199.971 108.328C199.496 106.834 197.9 106.009 196.406 106.485C194.912 106.961 194.087 108.556 194.563 110.051C195.039 111.545 196.634 112.369 198.128 111.893Z" fill="#FFBBA9"/>
<path d="M171.177 103.74L197.367 105.316C199.749 105.154 200.297 113.192 197.915 113.354C197.915 113.354 178.895 116.29 170.429 115.819" fill="#E2E3E8"/>
<path d="M175.548 106.142C173.542 103.467 169.75 102.924 167.074 104.929C164.399 106.935 163.856 110.727 165.862 113.403C167.867 116.078 171.66 116.621 174.335 114.615C177.01 112.61 177.553 108.817 175.548 106.142Z" fill="#E2E3E8"/>
<path d="M167.262 114.751C162.491 111.672 158.342 107.788 158.763 108.292C159.475 109.145 156.438 84.837 156.438 84.837C156.438 84.837 159.853 84.5868 162.278 88.9406C164.704 93.2945 174.569 105.114 174.569 105.114L167.262 114.751Z" fill="#E2E3E8"/>
<path d="M146.728 241.091L147.773 240.567L148.843 232.776L146.442 231.833L146.728 241.091Z" fill="#302665"/>
<path d="M145.735 240.598L146.723 241.092L147.31 233.26C147.31 233.26 149.128 234.001 151.524 238.35C153.929 242.689 159.528 244.411 163.358 243.151C166.88 241.996 164.32 240.649 160.693 236.31H160.684C160.367 235.925 160.039 235.521 159.703 235.088C155.584 229.777 153.968 225.949 153.968 225.949C153.968 225.949 153.747 225.707 153.381 225.342C151.813 223.812 147.599 220.195 146.675 224.698C145.54 230.259 145.735 240.598 145.735 240.598Z" fill="#302665"/>
<path d="M149.474 228.377C151.504 229.252 153.632 232.837 155.518 235.021C157.404 237.205 160.685 236.311 160.685 236.311C160.368 235.926 160.039 235.522 159.703 235.089C155.584 229.778 153.968 225.949 153.968 225.949C153.968 225.949 153.748 225.707 153.382 225.342C151.17 226.169 148.157 227.799 149.474 228.377Z" fill="url(#paint0_linear_314_261)"/>
<path d="M160.345 171.588C160.345 171.588 160.274 178.449 158.102 190.223C155.93 201.996 153.644 220.972 153.987 226.46C153.987 230.103 146.72 228.907 146.72 225.264C146.72 225.264 145.763 213.857 145.763 201.968C145.763 190.08 148.359 178.041 148.359 178.041L160.345 171.588Z" fill="url(#paint1_linear_314_261)"/>
<path d="M160.274 127.466C160.274 127.466 165.955 141.234 161.674 172.479C158.512 195.55 157.456 193.213 154.738 223.895L146.145 223.593C146.145 223.593 143.419 208.222 145.722 191.609C148.025 174.996 142.79 146.099 142.79 146.099C142.79 146.099 149.949 129.063 150.844 129.279C151.74 129.494 160.274 127.466 160.274 127.466Z" fill="#2B529E"/>
<path d="M129.478 242.76H130.524L131.244 238.099C131.244 238.099 131.803 249.43 134.859 251.755C136.076 252.684 137.636 253.144 138.961 252.927C140.962 252.603 141.232 251.359 141.367 246.698C141.403 245.581 141.359 244.382 141.26 243.165C140.791 236.792 138.952 229.797 138.952 229.797C138.952 229.797 138.727 229.544 138.339 229.192C136.933 227.921 133.462 225.397 131.884 229.797C129.883 235.395 129.478 242.76 129.478 242.76Z" fill="#302665"/>
<path d="M131.884 229.986C131.884 229.986 132.246 230.112 132.732 231.112C133.21 232.113 133.117 240.891 135.025 243.035C138.84 247.321 141.017 243.318 141.26 243.165C140.791 236.792 138.952 229.797 138.952 229.797C138.952 229.797 138.727 229.544 138.339 229.192L131.884 229.986Z" fill="url(#paint2_linear_314_261)"/>
<path d="M146.165 175.68C146.165 175.68 145.394 184.004 140.992 199.919C138.207 209.987 138.957 229.8 138.957 229.8C138.957 231.977 131.888 231.977 131.888 229.8C131.888 229.8 129.424 220.59 128.996 208.487C128.568 196.384 132.102 185.245 132.423 178.177L146.165 175.68Z" fill="url(#paint3_linear_314_261)"/>
<path d="M153.563 129.957C153.563 129.957 149.484 168.084 145.482 185.183C141.481 202.281 139.571 217.284 139.366 226.647C139.366 229.339 130.255 229.339 130.255 226.647C130.255 226.647 126.286 205.805 129.252 191.508C132.218 177.211 131.3 171.055 130.047 158.174C128.794 145.294 130.212 137.739 136.098 130.894L153.563 129.957Z" fill="#3F65AE"/>
<path d="M138.152 86.7512C141.679 89.1785 145.157 91.5156 147.712 92.1312C147.712 92.1312 148.705 91.285 148.982 90.1301C149.441 88.2442 149.377 86.3151 149.377 86.3151L148.962 83.6066L138.139 78.7469C138.139 78.7469 138.14 78.7561 138.149 78.7756C138.818 81.5842 138.649 84.2003 138.152 86.7512Z" fill="#FFBBA9"/>
<path d="M138.14 78.7468C138.14 78.7468 138.14 78.756 138.149 78.7755C138.343 79.4679 144.372 87.6809 148.966 85.9257C151.1 85.9222 148.962 83.6065 148.962 83.6065L138.14 78.7468Z" fill="#FD958D"/>
<path d="M125.99 97.068C125.99 97.068 127.385 100.985 130.003 105.396C130.297 105.886 130.603 106.399 130.913 106.918C134.007 112.056 136.095 130.91 136.095 130.91C140.721 132.211 144.558 132.627 147.704 132.515C156.935 132.213 160.266 127.442 160.266 127.442C160.266 127.442 159.31 118.674 161.077 113.128C161.442 111.977 161.919 110.966 162.549 110.204C163.354 109.233 163.968 108.363 164.4 107.528C165.963 104.547 165.22 102.017 162.527 96.6581C159.087 89.8067 156.439 84.8371 156.439 84.8371L149.031 84.8492C149.031 84.8492 149.604 91.5637 147.713 92.1323C145.821 92.7008 140.289 87.819 139.508 85.6848C139.216 84.8889 137.974 86.224 137.365 86.616C131.1 90.6469 125.99 97.068 125.99 97.068Z" fill="#CF3044"/>
<path d="M130.038 105.555C130.332 106.045 130.637 106.558 130.948 107.077C134.041 112.215 136.13 131.069 136.13 131.069C140.756 132.37 144.593 132.786 147.739 132.674C155.284 129.205 153.379 122.79 154.132 117.651C154.729 113.585 158.416 113.494 161.111 113.287C161.476 112.136 161.955 111.125 162.584 110.363C163.389 109.392 164.003 108.522 164.435 107.687C163.495 108.771 161.856 109.236 159.776 109.809C156.833 110.621 154.372 109.215 149.255 111.44C144.138 113.665 140.209 111.116 138.726 107.701C137.249 104.286 133.644 100.857 133.644 100.857L130.038 105.555Z" fill="#A02438"/>
<path d="M147.712 92.1322L145.792 91.9804L143.451 95.577C143.451 95.577 137.262 90.6922 136.85 86.8723C137.15 85.936 137.601 85.0455 138.509 84.299C140.764 87.6951 143.815 90.3223 147.712 92.1322Z" fill="url(#paint4_linear_314_261)"/>
<path d="M147.712 92.1312C147.712 92.1312 149.358 89.8227 149.006 84.4224L150.121 84.4913C150.121 84.4913 153.041 87.4163 152.017 93.1196L149.447 91.3659L147.712 92.1312Z" fill="url(#paint5_linear_314_261)"/>
<path d="M147.167 140.456L147.932 142.04C147.932 142.04 150.082 144.004 150.577 144.455C151.072 144.906 154.151 153.595 153.663 154.24C153.175 154.885 148.609 152.949 146.868 151.835C145.127 150.72 143.945 146.354 143.831 145.533C143.716 144.711 143.481 144.053 143.481 144.053L142.181 141.954L147.167 140.456Z" fill="#FFBBA9"/>
<path d="M147.273 141.072C147.368 139.668 146.307 138.453 144.904 138.358C143.5 138.263 142.285 139.324 142.19 140.727C142.095 142.131 143.156 143.346 144.559 143.441C145.963 143.536 147.178 142.475 147.273 141.072Z" fill="#FFBBA9"/>
<path d="M130.73 122.121C133.65 130.359 141.32 142.904 141.32 142.904C141.653 143.588 142.789 143.554 144.006 143.152C145.922 142.517 148.034 140.973 147.511 139.898L140.234 119.389" fill="#F0F3F7"/>
<path d="M140.428 120.716C140.405 117.984 138.173 115.79 135.441 115.813C132.709 115.836 130.515 118.068 130.538 120.8C130.561 123.531 132.793 125.726 135.525 125.703C138.256 125.68 140.451 123.448 140.428 120.716Z" fill="#F0F3F7"/>
<path d="M140.236 119.394L137.999 107.781C135.842 100.995 129.766 96.9668 127.008 96.8398C126.404 96.8102 125.96 96.9653 125.748 97.3219C124.915 98.7142 127.622 112.856 130.726 121.881L140.236 119.394Z" fill="#F0F3F7"/>
<path d="M154.837 65.1736C154.837 65.1736 155.508 69.6007 154.498 76.5309C153.489 83.4612 151.942 84.2871 149.103 84.1044C141.43 83.6106 137.932 79.0546 137.932 79.0546C137.932 79.0546 136.973 79.111 135.359 77.4696C134.65 76.7475 134.018 75.3578 133.622 74.3655L133.055 64.7256L154.837 65.1736Z" fill="#FFBBA9"/>
<path d="M154.999 72.0597L154.868 64.7554C154.868 64.7554 152.98 70.3125 147.949 70.5075C142.917 70.7024 142.889 70.223 140.951 73.3005C139.014 76.3789 134.608 75.3766 134.608 75.3766C134.608 75.3766 134.984 78.5299 137.823 79.0446C137.823 79.0446 133.94 79.0117 132.717 73.5808C131.494 68.15 130.353 62.8675 133.83 60.2423C137.306 57.6172 136.452 55.2578 140.585 53.9335C143.045 53.1455 146.23 54.2494 148.37 55.3305C150.51 56.4116 154.205 56.8266 156.109 60.9007C158.012 64.9747 156.357 69.4079 154.999 72.0597Z" fill="#443D89"/>
<defs>
<linearGradient id="paint0_linear_314_261" x1="-71.1577" y1="237.788" x2="-122.947" y2="261.619" gradientUnits="userSpaceOnUse">
<stop stop-color="#FFDBC6"/>
<stop offset="0.5" stop-color="#F4C9B8"/>
<stop offset="1" stop-color="#E8B7AA"/>
</linearGradient>
<linearGradient id="paint1_linear_314_261" x1="-63.5987" y1="213.159" x2="-115.726" y2="237.145" gradientUnits="userSpaceOnUse">
<stop stop-color="#FFDBC6"/>
<stop offset="0.5" stop-color="#F4C9B8"/>
<stop offset="1" stop-color="#E8B7AA"/>
</linearGradient>
<linearGradient id="paint2_linear_314_261" x1="-130.427" y1="245.997" x2="-194.481" y2="295.311" gradientUnits="userSpaceOnUse">
<stop stop-color="#FFDBC6"/>
<stop offset="0.5" stop-color="#F4C9B8"/>
<stop offset="1" stop-color="#E8B7AA"/>
</linearGradient>
<linearGradient id="paint3_linear_314_261" x1="-111.001" y1="223.421" x2="-175.055" y2="272.735" gradientUnits="userSpaceOnUse">
<stop stop-color="#FFDBC6"/>
<stop offset="0.5" stop-color="#F4C9B8"/>
<stop offset="1" stop-color="#E8B7AA"/>
</linearGradient>
<linearGradient id="paint4_linear_314_261" x1="-127.16" y1="82.2538" x2="-125.168" y2="71.3288" gradientUnits="userSpaceOnUse">
<stop stop-color="#EBF2F3"/>
<stop offset="0.5" stop-color="#F5F9F9"/>
<stop offset="1" stop-color="white"/>
</linearGradient>
<linearGradient id="paint5_linear_314_261" x1="-104.602" y1="80.1644" x2="-102.609" y2="69.2393" gradientUnits="userSpaceOnUse">
<stop stop-color="#EBF2F3"/>
<stop offset="0.5" stop-color="#F5F9F9"/>
<stop offset="1" stop-color="white"/>
</linearGradient>
</defs>
</svg>
